<svg width="144" height="144" viewBox="0 0 144 144" fill="none" xmlns="http://www.w3.org/2000/svg">
<g clip-path="url(#clip0)">
<rect width="144" height="144" fill="#500B34"/>
<path d="M29.7632 117.579C28.9737 116.987 28.3421 116.336 27.8684 115.625C27.3947 114.875 27.1382 114.243 27.0987 113.73C27.0592 113.178 27.1579 112.526 27.3947 111.776C27.671 110.987 28.0263 110.039 28.4605 108.934C36.5132 89.1184 40.5395 75.8158 40.5395 69.0263C40.421 67.1316 39.7697 65.7895 38.5855 65L37.4013 64.1711C37.046 63.8947 36.8487 63.4211 36.8092 62.75C36.8092 62.0395 37.0658 61.3684 37.5789 60.7368C38.0921 60.1053 38.7632 59.5526 39.5921 59.079C41.2895 58.1711 43.0263 57.7171 44.8026 57.7171C46.6184 57.7171 48.0197 57.9145 49.0066 58.3092C50.0329 58.704 50.9013 59.2368 51.6118 59.9079C53.1118 61.329 53.8618 62.829 53.8618 64.4079C53.9013 65.9868 53.7237 67.5855 53.3289 69.204C52.9737 70.8224 52.5395 72.4211 52.0263 74C51.5132 75.5395 51 77.0197 50.4868 78.4408C49.9737 79.8224 49.6382 80.8487 49.4803 81.5197C49.1645 82.9013 49.046 83.7697 49.125 84.125C50.0724 83.2961 50.6447 82.4868 50.8421 81.6974L53.1513 77.3158C58.2829 68.079 63.296 61.9605 68.1908 58.9605C69.6118 58.1316 71.3092 57.7171 73.2829 57.7171C75.296 57.7171 76.9145 58.4276 78.1381 59.8487C79.3618 61.2303 79.9934 62.7697 80.0329 64.4671C80.1118 66.1645 79.9934 67.5855 79.6776 68.7303C79.4013 69.8355 78.9671 70.8816 78.375 71.8684C77.0724 74.079 75.4934 75.1842 73.6381 75.1842C73.125 75.1842 72.6513 75.0066 72.2171 74.6513L70.9145 73.5263C69.6118 72.3816 68.3487 71.8092 67.125 71.8092C65.9408 71.8092 64.4803 72.5987 62.7434 74.1776C61.046 75.7566 59.2697 77.7895 57.4145 80.2763C51.1776 88.5263 46.0855 97.7632 42.1382 107.987L39.5329 114.855C38.8618 116.553 38.2697 117.776 37.7566 118.526C37.2434 119.237 36.4737 119.592 35.4474 119.592C34.4605 119.592 33.4539 119.395 32.4276 119C31.4408 118.645 30.5526 118.171 29.7632 117.579Z" fill="#FFF6DE"/>
</g>
<defs>
<clipPath id="clip0">
<rect width="144" height="144" fill="white"/>
</clipPath>
</defs>
</svg>
