<svg width="451" height="385" viewBox="0 0 451 385" fill="none" xmlns="http://www.w3.org/2000/svg">
<path d="M429 67.1663C414.062 73.8433 397.988 78.3218 381.183 80.3574C398.394 70.0162 411.546 53.6494 417.797 34.107C401.722 43.7154 383.862 50.6367 364.946 54.3823C349.683 38.1784 328.007 28 304.058 28C258.027 28 220.764 65.3749 220.764 111.544C220.764 118.058 221.494 124.491 222.956 130.598C153.706 127.096 92.4121 93.8743 51.3331 43.3082C44.189 55.6037 40.0486 70.0162 40.0486 85.3245C40.0486 114.312 54.7429 139.88 77.0684 154.863C63.4295 154.456 50.6025 150.71 39.3179 144.44C39.3179 144.766 39.3179 145.173 39.3179 145.499C39.3179 185.968 68.057 219.76 106.132 227.414C99.1504 229.287 91.7627 230.346 84.2126 230.346C78.8544 230.346 73.6587 229.857 68.5441 228.88C79.1792 262.102 109.867 286.204 146.318 286.856C117.823 309.248 81.9394 322.602 42.89 322.602C36.1518 322.602 29.5759 322.195 23 321.462C59.8574 345.157 103.615 359 150.621 359C303.815 359 387.596 231.73 387.596 121.315C387.596 117.732 387.515 114.068 387.353 110.485C403.671 98.6785 417.797 83.9402 429 67.1663Z" fill="white"/>
</svg>
