<svg width="486" height="230" viewBox="0 0 486 230" fill="none" xmlns="http://www.w3.org/2000/svg">
<path d="M453 212.265C415.131 212.814 387.822 210.582 349.927 210.582C345.371 210.582 331.746 210.926 336.28 211.379C341.33 211.884 346.728 211.379 351.788 211.379C365.763 211.379 379.736 211.479 393.704 210.98C404.578 210.592 415.435 210.582 426.315 210.582C435.125 210.582 420.831 212.089 419.358 212.265C397.464 214.885 375.39 216.164 353.339 216.164C349.721 216.164 346.102 216.164 342.484 216.164C338.702 216.164 350.048 216.193 353.827 216.342C370.09 216.981 386.281 218.557 402.566 218.557C409.957 218.557 417.266 218.083 424.454 219.975C424.826 220.073 427.563 220.755 425.606 220.905C419.108 221.405 412.612 221.79 406.11 222.368C389.547 223.84 373.491 223.086 357.105 220.994C353.71 220.56 343.447 220.152 346.87 220.152C357.416 220.152 367.922 220.715 378.462 220.905C391.561 221.141 404.641 221.701 417.719 222.545C422.626 222.861 427.522 224.14 432.429 224.14" stroke="black" stroke-linecap="round" stroke-linejoin="round"/>
<path d="M252.217 12.5009C243.017 7.30091 94.2172 7 36.7172 7C25.2171 7 25.2171 22.5008 25.2171 22.5008L22.7171 187.001C16.7171 189.001 7.5172 190.501 6.7172 198.501C6.34078 202.265 3.04911 213.235 6.71713 216.001C10.8447 219.113 18.7172 219.501 22.7171 219.501L290.217 222.001C292.217 219.168 296.517 211.401 297.717 203.001C298.917 194.601 274.55 184.501 262.217 180.501C262.717 126.668 261.417 17.7009 252.217 12.5009Z" fill="#FFF9EA" stroke="black"/>
<path d="M36.7171 188.5C32.5504 193.333 24.4171 203.3 25.2171 204.5M54.217 188.5C50.0504 193.333 43.9171 203.3 44.717 204.5M65.717 191C61.5504 195.833 55.4171 203.3 56.217 204.5M83.717 191C79.5504 195.833 72.9171 203.3 73.717 204.5M42.2171 30.4997C38.2175 59.9999 36.2171 172 40.2171 176C44.2171 180 179.717 181.166 247.217 179.5C246.884 133.666 245.417 40.7996 242.217 35.9996C238.217 29.9996 43.2339 23 42.2171 30.4997Z" stroke="black"/>
<path d="M27.2173 193C100.384 193.755 247.617 194.811 251.217 193" stroke="black"/>
<path d="M27.2173 197C100.384 197.755 247.617 198.811 251.217 197" stroke="black"/>
<path d="M236.523 39.7818C234.053 36.8382 61.1176 34.3852 50.7415 37.3288C38.8831 38.2243 40.8595 171.755 42.3418 175.68C43.8241 179.605 240.97 173.717 244.429 171.755C247.888 169.792 238.994 42.7255 236.523 39.7818Z" fill="#F2E8D4"/>
<path d="M358.764 210.916C346.364 205.716 347.883 161.916 348.264 158.416C348.644 154.916 355.319 153.666 362.264 152.416C379.764 149.267 410.764 151.416 426.764 158.416C435.24 162.124 427.464 180.016 430.264 176.416C431.819 174.416 445.264 175.416 445.264 181.916C445.264 188.416 443.364 196.216 439.764 197.416C436.164 198.616 430.264 200.416 423.764 200.416C421.597 203.916 416.664 211.716 414.264 214.916C411.264 218.916 374.264 217.416 358.764 210.916Z" fill="#FFF9EA" stroke="black"/>
<path d="M354 160C365.167 164 372.5 167.5 409.5 166C423.489 165.433 430.167 162 427.5 161" stroke="black"/>
<path d="M429.764 193.916L432.764 182.416C434.597 181.749 438.764 180.616 440.764 181.416C443.264 182.416 440.264 190.416 439.264 191.916C438.464 193.116 432.597 193.749 429.764 193.916Z" stroke="black"/>
<path d="M369 155.527C377.968 153.387 396.142 154.037 407.5 155.527C409.892 155.841 417.737 157.33 420.147 157.918C423.158 158.653 424.476 160.477 423 162C422.241 162.783 404.865 164.636 389.236 163.9C380.546 163.492 371.199 161.681 365.184 160.775C362.503 159.817 360.988 157.439 369 155.527Z" fill="#C2B7A2"/>
</svg>
