<svg width="303" height="230" viewBox="0 0 303 230" fill="none" xmlns="http://www.w3.org/2000/svg">
<path d="M253.217 12.5009C244.017 7.30091 95.2172 7 37.7172 7C26.2171 7 26.2171 22.5008 26.2171 22.5008L23.7171 187.001C17.7171 189.001 8.5172 190.501 7.7172 198.501C7.34078 202.265 4.04911 213.235 7.71713 216.001C11.8447 219.113 19.7172 219.501 23.7171 219.501L291.217 222.001C293.217 219.168 297.517 211.401 298.717 203.001C299.917 194.601 275.55 184.501 263.217 180.501C263.717 126.668 262.417 17.7009 253.217 12.5009Z" fill="#FFF9EA" stroke="black"/>
<path d="M37.7172 188.5C33.5505 193.333 25.4172 203.3 26.2172 204.5M55.2172 188.5C51.0505 193.333 44.9172 203.3 45.7172 204.5M66.7172 191C62.5505 195.833 56.4172 203.3 57.2172 204.5M84.7172 191C80.5505 195.833 73.9172 203.3 74.7172 204.5M43.2172 30.4997C39.2176 59.9999 37.2172 172 41.2172 176C45.2172 180 180.717 181.166 248.217 179.5C247.884 133.666 246.417 40.7996 243.217 35.9996C239.217 29.9996 44.234 23 43.2172 30.4997Z" stroke="black"/>
<path d="M28.2172 193C101.384 193.755 248.617 194.811 252.217 193" stroke="black"/>
<path d="M28.2172 197C101.384 197.755 248.617 198.811 252.217 197" stroke="black"/>
<path d="M237.523 39.7818C235.053 36.8382 62.1175 34.3852 51.7414 37.3288C39.883 38.2243 41.8594 171.755 43.3417 175.68C44.824 179.605 241.97 173.717 245.429 171.755C248.887 169.792 239.994 42.7255 237.523 39.7818Z" fill="#F2E8D4"/>
</svg>
