<svg width="381" height="217" viewBox="0 0 381 217" fill="none" xmlns="http://www.w3.org/2000/svg">
<path d="M7.87214 160.851C-13.6499 124.265 91.4229 116.643 135.167 113.158C214.465 113.158 296.615 106.737 364.823 148.438C402.224 171.304 337.92 196.13 287.396 208.543C236.872 220.956 34.7747 206.583 7.87214 160.851Z" fill="#FFF9EA" stroke="black"/>
<path d="M41.8571 145.077C38.4938 143.571 40.4557 133.402 41.8571 128.506C43.3822 121.351 73.3879 113.065 83.3727 111.559C93.3575 110.052 125.939 101.39 230.517 106.286C335.095 111.182 336.671 130.766 340.875 131.896C344.997 133.003 342.048 144.607 340.94 148.966L340.875 149.22C339.824 153.363 284.12 168.428 270.456 171.064C256.793 173.7 175.863 168.428 154.317 168.428C132.771 168.428 85.4748 160.142 77.0665 158.636C68.6583 157.129 46.0612 146.961 41.8571 145.077Z" fill="#FFF9EA" stroke="black"/>
<path d="M45 132.802C58.1579 138.669 88.7895 150.815 106.053 152.472C127.632 154.542 184.5 157.868 226.5 161.802C241.715 163.227 291 157.648 335 137.633" stroke="black"/>
<path d="M53.4661 118.272C50.3665 116.272 52.1746 102.772 53.4661 96.272C54.8717 86.7719 82.525 75.772 91.727 73.772C100.929 71.772 130.957 60.272 227.335 66.772C323.714 73.272 325.167 99.272 329.042 100.772C332.84 102.242 330.122 117.647 329.101 123.435L329.042 123.772C328.073 129.272 271.092 145.772 258.5 149.272C245.908 152.772 188.5 152.802 157.11 149.272C137.377 147.053 93.6643 138.272 85.9152 136.272C78.1662 134.272 57.3406 120.772 53.4661 118.272Z" fill="#FFF9EA" stroke="black"/>
<path d="M56.8563 99.272C68.9642 107.772 97.1514 125.372 113.037 127.772C132.894 130.772 184.231 134.272 191.012 135.272C197.792 136.272 272.377 133.772 277.704 130.772C283.032 127.772 322.261 113.272 323.714 106.272" stroke="black"/>
<path d="M49 91.272C45.8 89.272 47.6667 75.772 49 69.272C50.4512 59.7719 79 48.772 88.5 46.772C98 44.772 129 33.272 228.5 39.772C328 46.272 329.5 72.272 333.5 73.772C337.421 75.2424 334.616 90.6471 333.561 96.4348L333.5 96.772C332.5 102.272 279.5 122.272 266.5 125.772C253.5 129.272 176.5 122.272 156 122.272C135.5 122.272 90.5 111.272 82.5 109.272C74.5 107.272 53 93.772 49 91.272Z" fill="#FFF9EA" stroke="black"/>
<path d="M52.5 72.272C65 80.772 94.1 98.372 110.5 100.772C131 103.772 184 107.272 191 108.272C198 109.272 275 106.772 280.5 103.772C286 100.772 326.5 86.272 328 79.272" stroke="black"/>
<path d="M49 69.8022C45.8 67.8022 47.6667 54.3022 49 47.8022C50.4512 38.3022 79 27.3022 88.5 25.3022C98 23.3022 129 11.8022 228.5 18.3022C328 24.8022 329.5 50.8022 333.5 52.3022C337.421 53.7727 334.616 69.1774 333.561 74.9651L333.5 75.3022C332.5 80.8022 279.5 100.802 266.5 104.302C253.5 107.802 176.5 100.802 156 100.802C135.5 100.802 90.5 89.8022 82.5 87.8022C74.5 85.8022 53 72.3022 49 69.8022Z" fill="#FFF9EA" stroke="black"/>
<path d="M61 45.8021C57.4 31.4021 94.5 23.1354 113.5 20.8021C148.5 13.3022 243.201 18.2021 274 24.8023C302 30.8027 344.695 46.4564 325.5 60.8022C278 96.3022 190.5 85.3021 158.5 85.3021C126.5 85.3021 65.5 63.8021 61 45.8021Z" fill="#F2E8D4"/>
<path d="M159.5 27.3024C155.1 22.9024 157.406 10.1248 165 6.80237C173 3.30225 182.719 5.80288 194 6.80237C205.865 7.85355 216.167 10.469 224 12.3024C225.667 15.1357 228.7 22.1024 227.5 27.3024C226.3 32.5024 204.667 34.8024 194 35.3024C184.333 34.469 163.9 31.7024 159.5 27.3024Z" fill="#FAEAC2" stroke="black"/>
<path d="M178 14.8022C181 17.4689 188.1 22.5022 192.5 21.3022C196.9 20.1022 205.667 19.4689 209 17.8022" stroke="black"/>
<path d="M52.5 50.8022C65 59.3022 94.1 76.9022 110.5 79.3022C131 82.3022 184 85.8022 191 86.8022C198 87.8022 275 85.3022 280.5 82.3022C286 79.3022 326.5 64.8022 328 57.8022" stroke="black"/>
</svg>
