<svg width="174" height="221" viewBox="0 0 174 221" fill="none" xmlns="http://www.w3.org/2000/svg">
<path fill-rule="evenodd" clip-rule="evenodd" d="M76.0899 151.09C73.9462 153.086 70.562 151.959 69.1668 149.384C66.4474 144.363 62.3691 140.339 57.5388 137.66C55.4186 136.484 52.866 136.593 50.6512 137.58L19.0296 151.658C16.8194 152.642 15.032 154.46 14.4853 156.817C14.0374 158.748 13.7818 160.736 13.7345 162.754C13.719 163.416 13.8044 164.074 13.9557 164.718L19.6632 189.011C20.6336 193.141 24.3608 196.068 28.5908 195.738C35.8376 195.172 43.1334 193.964 50.41 192.073C50.563 192.035 50.716 191.995 50.8689 191.954L50.9333 191.937L51.0286 191.911C51.1364 191.882 51.2441 191.854 51.3519 191.825C88.4807 181.876 104.391 164.497 120.5 130C136.38 95.9954 147.343 69.0644 140.068 39.9957C140.005 39.7352 139.939 39.4749 139.87 39.2146C139.853 39.1533 139.837 39.0921 139.82 39.031C139.794 38.9313 139.767 38.8315 139.74 38.7317C137.811 31.5308 135.29 24.6461 132.245 18.1157C130.44 14.2433 126.013 12.4444 121.922 13.6778L97.5858 21.0153C96.9198 21.2161 96.276 21.4882 95.6868 21.8579C94.0138 22.9073 92.4665 24.1138 91.0597 25.4517C89.3234 27.1031 88.6588 29.5366 88.9092 31.9197L92.5034 66.1157C92.7544 68.5038 93.9153 70.7498 95.9631 72.004C97.6644 73.0459 99.4699 73.9159 101.351 74.5973C107.198 76.7153 112.174 82.5536 110.046 88.3969C106.856 97.1575 102.477 107.147 96.9421 118.999C89.4562 135.029 83.1513 144.515 76.0899 151.09V151.09Z" fill="white"/>
</svg>
