<svg width="479" height="479" viewBox="0 0 479 479" fill="none" xmlns="http://www.w3.org/2000/svg">
<mask id="path-1-outside-1" maskUnits="userSpaceOnUse" x="133" y="217" width="212" height="46" fill="black">
<rect fill="white" x="133" y="217" width="212" height="46"/>
<path d="M135.159 260.685C134.817 260.428 134.543 260.146 134.338 259.838C134.132 259.512 134.021 259.238 134.004 259.016C133.987 258.776 134.029 258.494 134.132 258.168C134.252 257.826 134.406 257.415 134.594 256.935C138.087 248.34 139.834 242.57 139.834 239.625C139.782 238.803 139.5 238.221 138.986 237.879L138.473 237.519C138.318 237.399 138.233 237.194 138.216 236.903C138.216 236.595 138.327 236.303 138.55 236.029C138.772 235.756 139.063 235.516 139.423 235.31C140.159 234.917 140.912 234.72 141.683 234.72C142.471 234.72 143.078 234.805 143.506 234.976C143.952 235.148 144.328 235.379 144.636 235.67C145.287 236.286 145.612 236.937 145.612 237.622C145.63 238.307 145.552 239 145.381 239.702C145.227 240.404 145.039 241.098 144.816 241.782C144.594 242.45 144.371 243.092 144.148 243.709C143.926 244.308 143.78 244.753 143.712 245.044C143.575 245.644 143.524 246.02 143.558 246.174C143.969 245.815 144.217 245.464 144.303 245.121L145.304 243.221C147.53 239.214 149.705 236.56 151.828 235.259C152.444 234.899 153.18 234.72 154.036 234.72C154.91 234.72 155.612 235.028 156.142 235.644C156.673 236.244 156.947 236.911 156.964 237.648C156.999 238.384 156.947 239 156.81 239.497C156.69 239.976 156.502 240.43 156.245 240.858C155.68 241.817 154.995 242.296 154.191 242.296C153.968 242.296 153.762 242.219 153.574 242.065L153.009 241.577C152.444 241.08 151.896 240.832 151.365 240.832C150.852 240.832 150.218 241.175 149.465 241.86C148.729 242.544 147.958 243.426 147.153 244.505C144.448 248.083 142.239 252.09 140.527 256.525L139.397 259.504C139.106 260.24 138.849 260.771 138.627 261.096C138.404 261.404 138.07 261.558 137.625 261.558C137.197 261.558 136.76 261.473 136.315 261.302C135.887 261.148 135.502 260.942 135.159 260.685Z"/>
<path d="M173.838 255.472C173.838 253.16 174.497 249.616 175.816 244.839C171.689 244.942 168.53 245.061 166.339 245.198C165.671 246.414 165.063 247.57 164.515 248.666L162.923 251.825C160.817 255.968 158.925 258.699 157.247 260.017C155.963 261.045 154.601 261.558 153.163 261.558C152.067 261.558 151.237 261.199 150.672 260.48C150.466 260.189 150.347 259.915 150.312 259.658C150.278 259.384 150.338 259.204 150.492 259.119C152.461 258.382 154.062 257.261 155.295 255.754C156.374 254.401 157.452 252.749 158.531 250.797L161.433 245.609L159.815 245.84C158.788 246.029 158.274 245.866 158.274 245.352C158.274 244.839 158.582 244.351 159.199 243.889C160.277 243.084 161.33 242.553 162.358 242.296L163.462 242.039C166.27 237.399 168.41 234.155 169.883 232.305C171.372 230.456 172.725 228.915 173.941 227.683C175.174 226.45 176.466 225.362 177.819 224.421C180.781 222.383 183.7 221.364 186.577 221.364C187.45 221.364 188.041 221.544 188.349 221.904C188.863 222.469 189.025 223.077 188.837 223.727C188.649 224.361 188.34 225.277 187.912 226.475C185.173 233.941 183.503 238.564 182.904 240.344C183.178 240.327 183.426 240.319 183.649 240.319H184.214C186.132 240.319 187.159 240.507 187.296 240.884C187.33 241.003 187.347 241.226 187.347 241.551C187.347 241.86 187.245 242.219 187.039 242.63C186.851 243.041 186.534 243.392 186.089 243.683C185.181 244.299 183.658 244.659 181.517 244.762C180.353 248.785 179.685 251.568 179.514 253.109C179.36 254.65 179.411 255.694 179.668 256.242C179.942 256.773 180.319 257.038 180.798 257.038C181.295 257.038 181.697 256.995 182.005 256.91C182.313 256.807 182.587 256.696 182.827 256.576L183.495 256.268C183.666 256.165 183.837 256.114 184.009 256.114C184.197 256.114 184.351 256.233 184.471 256.473C184.591 256.696 184.651 256.995 184.651 257.372C184.651 257.749 184.488 258.203 184.163 258.733C183.854 259.247 183.444 259.709 182.93 260.12C181.731 261.079 180.379 261.558 178.872 261.558C176.56 261.558 175.019 260.531 174.249 258.476C173.975 257.757 173.838 257.115 173.838 256.55V255.472ZM168.701 241.14C171.749 240.747 174.574 240.515 177.177 240.447C177.656 238.974 178.17 237.519 178.718 236.081L180.31 231.972C180.858 230.67 181.397 229.438 181.928 228.273L183.418 225.114C179.856 226.039 176.338 229.112 172.862 234.334C172.126 235.43 171.407 236.56 170.705 237.725L168.701 241.14Z"/>
<path d="M214.597 256.114C214.957 256.114 215.136 256.302 215.136 256.679C215.136 258.151 214.374 259.418 212.851 260.48C211.84 261.199 210.882 261.558 209.974 261.558C209.084 261.558 208.373 261.456 207.842 261.25C207.312 261.045 206.832 260.719 206.404 260.274C205.445 259.247 204.966 257.834 204.966 256.037C204.966 255.677 205.034 255.103 205.171 254.316C203.784 256.456 202.595 257.963 201.601 258.836C199.598 260.651 197.638 261.558 195.72 261.558C192.689 261.558 190.703 260.189 189.762 257.449C189.419 256.439 189.248 255.172 189.248 253.648C189.248 252.124 189.479 250.583 189.941 249.025C190.404 247.467 191.029 245.986 191.816 244.582C192.621 243.178 193.546 241.877 194.59 240.678C195.652 239.462 196.764 238.409 197.929 237.519C200.429 235.653 202.689 234.72 204.709 234.72C206.729 234.72 208.348 235.542 209.563 237.185C212.542 226.981 214.785 220.962 216.292 219.13C216.926 218.377 217.593 218 218.295 218C219.46 218 220.341 218.334 220.941 219.002C221.129 219.224 221.223 219.447 221.223 219.669C221.223 219.892 221.086 220.303 220.812 220.902C220.538 221.501 220.136 222.469 219.605 223.804C218.081 227.828 217.011 230.773 216.395 232.639C214.82 237.416 213.758 240.704 213.21 242.502L211.798 247.253C210.582 251.482 209.974 254.17 209.974 255.317C209.974 256.465 210.394 257.038 211.233 257.038C212.003 257.038 212.619 256.935 213.082 256.73L214.058 256.268C214.246 256.165 214.426 256.114 214.597 256.114ZM196.953 257.706C198.716 257.706 200.737 255.985 203.014 252.544C205.394 248.982 207.055 245.104 207.997 240.909C207.928 239.745 207.44 238.889 206.533 238.341C206.224 238.153 205.754 238.058 205.12 238.058C204.504 238.058 203.776 238.29 202.937 238.752C202.115 239.197 201.31 239.805 200.523 240.575C199.752 241.346 199.025 242.253 198.34 243.298C197.672 244.325 197.09 245.421 196.593 246.585C195.515 249.119 194.975 251.611 194.975 254.059C194.975 256.49 195.634 257.706 196.953 257.706Z"/>
<path d="M238.097 254.47C238.097 256.045 238.654 256.833 239.766 256.833C240.537 256.833 241.17 256.713 241.667 256.473C242.181 256.233 242.523 256.114 242.694 256.114C243.054 256.114 243.234 256.302 243.234 256.679C243.234 258.151 242.463 259.418 240.922 260.48C239.296 261.593 237.635 261.867 235.94 261.302C234.827 260.908 234.005 260.06 233.474 258.759C233.217 258.091 233.089 257.483 233.089 256.935C233.089 256.045 233.174 255.103 233.346 254.11C231.753 257.364 229.776 259.607 227.413 260.839C226.471 261.319 225.47 261.558 224.408 261.558C223.346 261.558 222.422 261.344 221.634 260.916C220.864 260.471 220.205 259.863 219.657 259.093C218.544 257.483 218.039 255.463 218.141 253.032C218.244 249.984 219.143 246.996 220.838 244.068C222.396 241.329 224.365 239.094 226.745 237.365C229.125 235.601 231.351 234.72 233.423 234.72C235.494 234.72 237.164 235.67 238.431 237.57C239.612 235.67 240.657 234.72 241.564 234.72C242.54 234.72 243.276 234.899 243.773 235.259C244.715 235.944 245.049 236.543 244.775 237.057C240.477 245.858 238.268 251.337 238.148 253.494C238.114 253.802 238.097 254.127 238.097 254.47ZM223.843 254.573C223.843 256.627 224.502 257.655 225.821 257.655C226.831 257.655 228.072 256.799 229.545 255.086C231.702 252.569 233.611 249.179 235.272 244.916C235.803 243.58 236.248 242.245 236.607 240.909C236.539 239.745 236.051 238.889 235.143 238.341C234.835 238.153 234.373 238.058 233.757 238.058C233.157 238.058 232.447 238.281 231.625 238.726C230.82 239.171 230.033 239.779 229.262 240.55C228.509 241.32 227.798 242.236 227.13 243.298C226.48 244.342 225.906 245.481 225.41 246.714C224.365 249.35 223.843 251.97 223.843 254.573Z"/>
<path d="M266.143 239.574C265.15 239.574 263.335 241.012 260.698 243.889C258.729 246.131 257.299 247.818 256.409 248.948L254.098 251.876C253.105 253.759 252.325 255.326 251.76 256.576L250.374 259.555C250.014 260.291 249.697 260.814 249.423 261.122C249.166 261.413 248.807 261.558 248.345 261.558C247.899 261.558 247.463 261.473 247.035 261.302C246.624 261.148 246.264 260.942 245.956 260.685C245.305 260.137 244.98 259.538 244.98 258.887C244.98 258.631 245.168 258.125 245.545 257.372L246.521 255.292C246.829 254.675 247.189 253.888 247.6 252.929L249.038 249.41C251.058 244.359 252.069 241.098 252.069 239.625C252.069 238.838 251.812 238.255 251.298 237.879L250.784 237.519C250.613 237.399 250.528 237.194 250.528 236.903C250.528 236.595 250.639 236.303 250.862 236.029C251.101 235.756 251.409 235.516 251.786 235.31C252.557 234.917 253.327 234.72 254.098 234.72C254.885 234.72 255.502 234.805 255.947 234.976C256.392 235.148 256.777 235.379 257.102 235.67C257.753 236.269 258.078 236.894 258.078 237.545C258.078 238.195 257.993 238.855 257.822 239.522C257.65 240.173 257.436 240.841 257.18 241.526C256.923 242.193 256.649 242.844 256.358 243.478C255.673 244.95 255.245 245.858 255.074 246.2C254.919 246.525 254.877 246.645 254.945 246.56C258.078 242.502 259.962 240.105 260.595 239.368C261.914 237.844 262.941 236.8 263.677 236.235C265.03 235.225 266.306 234.72 267.504 234.72C268.72 234.72 269.687 235.096 270.406 235.85C271.125 236.603 271.485 237.596 271.485 238.829C271.485 239.908 271.211 241.175 270.663 242.63C270.115 244.085 269.747 245.104 269.559 245.686L273.334 240.704L275.44 238.187C276.707 236.766 277.82 235.833 278.779 235.387C279.738 234.942 280.517 234.72 281.116 234.72C281.733 234.72 282.332 234.831 282.914 235.054C283.513 235.276 284.018 235.593 284.429 236.004C285.302 236.843 285.739 237.956 285.739 239.343C285.739 240.678 285.431 242.048 284.814 243.452C284.198 244.856 283.659 246.012 283.196 246.919C282.734 247.809 282.289 248.708 281.861 249.616C280.611 252.338 279.986 254.359 279.986 255.677C279.986 256.602 280.363 257.064 281.116 257.064C281.835 257.064 282.486 256.91 283.068 256.602C283.667 256.293 284.053 256.139 284.224 256.139C284.583 256.139 284.763 256.319 284.763 256.679C284.763 258.203 283.984 259.478 282.426 260.505C281.382 261.207 280.423 261.558 279.549 261.558C278.693 261.558 278 261.456 277.469 261.25C276.938 261.045 276.459 260.719 276.031 260.274C275.072 259.281 274.593 258.04 274.593 256.55C274.593 255.061 274.781 253.691 275.158 252.441C275.534 251.191 275.98 249.984 276.493 248.82C277.007 247.638 277.521 246.56 278.034 245.584C278.565 244.591 278.967 243.803 279.241 243.221C279.789 242.022 280.063 241.14 280.063 240.575C280.063 239.908 279.712 239.574 279.01 239.574C278.086 239.574 276.425 241.106 274.028 244.171C272.213 246.551 270.954 248.263 270.252 249.308L268.48 251.876C267.487 253.759 266.725 255.326 266.194 256.576L264.884 259.555C264.559 260.291 264.277 260.814 264.037 261.122C263.797 261.413 263.463 261.558 263.035 261.558C262.607 261.558 262.188 261.49 261.777 261.353C261.383 261.216 261.041 261.036 260.749 260.814C260.082 260.317 259.748 259.795 259.748 259.247C259.748 258.682 259.928 257.92 260.287 256.961C260.664 255.985 261.126 254.898 261.674 253.699L265.27 246.097C266.554 243.272 267.196 241.483 267.196 240.729C267.196 239.959 266.845 239.574 266.143 239.574ZM268.686 246.816C268.703 246.816 268.711 246.808 268.711 246.791L268.737 246.739C268.703 246.774 268.686 246.799 268.686 246.816Z"/>
<path d="M310.549 254.829C311.063 254.829 311.319 255.317 311.319 256.293C311.319 257.269 311.174 258.066 310.883 258.682C310.592 259.298 310.189 259.821 309.676 260.249C308.631 261.122 307.244 261.558 305.515 261.558C304.316 261.558 302.955 261.319 301.431 260.839C299.908 260.343 298.735 259.983 297.913 259.761C297.108 259.538 296.363 259.427 295.678 259.427C295.011 259.427 294.463 259.495 294.035 259.632C293.624 259.769 293.239 259.94 292.879 260.146C292.537 260.351 292.203 260.565 291.877 260.788C291.192 261.267 290.722 261.507 290.465 261.507C290.225 261.507 289.985 261.439 289.746 261.302C289.506 261.165 289.283 260.985 289.078 260.762C288.598 260.249 288.359 259.846 288.359 259.555C288.359 259.264 288.513 258.742 288.821 257.988C289.146 257.235 289.788 256.199 290.747 254.881C291.706 253.545 292.768 252.235 293.932 250.951C295.096 249.65 296.329 248.366 297.63 247.099C301.431 243.366 303.897 240.901 305.027 239.702C306.174 238.504 307.184 237.314 308.058 236.132C309.958 233.581 310.908 231.278 310.908 229.223C310.908 227.049 310.129 225.645 308.571 225.011C308.092 224.823 307.467 224.729 306.696 224.729C305.943 224.729 305.181 224.952 304.411 225.397C303.64 225.825 302.99 226.373 302.459 227.04C301.363 228.393 300.815 229.857 300.815 231.432C300.815 232.87 301.226 233.761 302.048 234.103C302.39 234.257 302.561 234.48 302.561 234.771C302.561 235.387 302.262 235.952 301.663 236.466C300.55 237.425 299.599 237.904 298.812 237.904C298.024 237.904 297.391 237.759 296.911 237.468C296.432 237.177 296.029 236.791 295.704 236.312C295.053 235.353 294.728 234.317 294.728 233.204C294.728 232.074 294.865 231.064 295.139 230.174C295.413 229.283 295.807 228.419 296.321 227.58C296.851 226.724 297.476 225.919 298.195 225.166C298.932 224.412 299.753 223.753 300.661 223.188C302.664 221.955 304.625 221.339 306.542 221.339C308.477 221.339 310.001 221.596 311.114 222.109C312.244 222.623 313.16 223.291 313.862 224.113C315.163 225.688 315.814 227.691 315.814 230.122C315.814 234.112 313.879 238.144 310.01 242.219C307.972 244.359 305.909 246.268 303.82 247.946L298.94 251.876C296.286 254.068 294.454 255.865 293.444 257.269C294.762 256.687 295.85 256.37 296.706 256.319C297.562 256.251 298.255 256.233 298.786 256.268C299.334 256.285 299.908 256.319 300.507 256.37C302.082 256.507 303.341 256.576 304.282 256.576C305.224 256.576 306.037 256.49 306.722 256.319C307.424 256.131 307.989 255.925 308.417 255.703C308.862 255.48 309.231 255.283 309.522 255.112C309.813 254.924 310.155 254.829 310.549 254.829Z"/>
<path d="M327.32 246.02C326.652 246.02 326.318 245.763 326.318 245.25C326.318 244.051 326.738 243.032 327.577 242.193C327.851 241.919 328.382 241.671 329.169 241.449C329.974 241.209 331.001 240.721 332.251 239.985C333.518 239.231 334.665 238.324 335.693 237.262C338.004 234.848 339.16 232.1 339.16 229.018C339.16 227.683 338.826 226.638 338.158 225.885C337.49 225.114 336.643 224.729 335.616 224.729C334.588 224.729 333.647 224.952 332.79 225.397C331.951 225.825 331.215 226.373 330.582 227.04C329.229 228.444 328.553 229.908 328.553 231.432C328.553 232.87 328.964 233.761 329.786 234.103C330.128 234.257 330.299 234.48 330.299 234.771C330.299 235.387 330 235.952 329.4 236.466C328.287 237.425 327.346 237.904 326.575 237.904C325.805 237.904 325.18 237.785 324.7 237.545C324.221 237.305 323.81 236.971 323.467 236.543C322.8 235.653 322.466 234.634 322.466 233.487C322.466 232.34 322.62 231.312 322.928 230.405C323.236 229.497 323.664 228.616 324.212 227.76C324.777 226.886 325.454 226.064 326.241 225.294C327.046 224.523 327.936 223.839 328.912 223.239C331.001 221.972 333.039 221.339 335.025 221.339C337.028 221.339 338.586 221.596 339.699 222.109C340.829 222.623 341.737 223.291 342.422 224.113C343.689 225.636 344.322 227.64 344.322 230.122C344.322 234.163 342.473 237.939 338.775 241.449C337.405 242.75 336.086 243.717 334.819 244.351C336.292 244.796 337.302 246.012 337.85 247.998C338.021 248.614 338.107 249.325 338.107 250.129C338.107 250.917 337.961 251.773 337.67 252.698C337.379 253.622 336.968 254.521 336.437 255.395C335.907 256.251 335.256 257.055 334.485 257.809C333.715 258.545 332.85 259.196 331.892 259.761C329.82 260.959 327.577 261.558 325.163 261.558C322.68 261.558 320.745 260.908 319.358 259.607C318.16 258.494 317.56 257.141 317.56 255.549C317.56 254.299 317.954 253.152 318.742 252.107C319.684 250.909 320.908 250.309 322.414 250.309C323.253 250.309 323.853 250.489 324.212 250.849C324.846 251.482 325 251.987 324.675 252.364C324.366 252.723 324.092 253.057 323.853 253.366C323.63 253.657 323.442 253.956 323.288 254.264C322.98 254.847 322.825 255.377 322.825 255.857C322.825 256.336 322.868 256.721 322.954 257.013C323.039 257.286 323.176 257.535 323.365 257.757C323.81 258.254 324.495 258.502 325.419 258.502C326.344 258.502 327.243 258.211 328.116 257.629C329.006 257.047 329.786 256.302 330.453 255.395C331.874 253.46 332.585 251.379 332.585 249.154C332.585 246.911 331.652 245.789 329.786 245.789L327.32 246.02Z"/>
</mask>
<path d="M135.159 260.685C134.817 260.428 134.543 260.146 134.338 259.838C134.132 259.512 134.021 259.238 134.004 259.016C133.987 258.776 134.029 258.494 134.132 258.168C134.252 257.826 134.406 257.415 134.594 256.935C138.087 248.34 139.834 242.57 139.834 239.625C139.782 238.803 139.5 238.221 138.986 237.879L138.473 237.519C138.318 237.399 138.233 237.194 138.216 236.903C138.216 236.595 138.327 236.303 138.55 236.029C138.772 235.756 139.063 235.516 139.423 235.31C140.159 234.917 140.912 234.72 141.683 234.72C142.471 234.72 143.078 234.805 143.506 234.976C143.952 235.148 144.328 235.379 144.636 235.67C145.287 236.286 145.612 236.937 145.612 237.622C145.63 238.307 145.552 239 145.381 239.702C145.227 240.404 145.039 241.098 144.816 241.782C144.594 242.45 144.371 243.092 144.148 243.709C143.926 244.308 143.78 244.753 143.712 245.044C143.575 245.644 143.524 246.02 143.558 246.174C143.969 245.815 144.217 245.464 144.303 245.121L145.304 243.221C147.53 239.214 149.705 236.56 151.828 235.259C152.444 234.899 153.18 234.72 154.036 234.72C154.91 234.72 155.612 235.028 156.142 235.644C156.673 236.244 156.947 236.911 156.964 237.648C156.999 238.384 156.947 239 156.81 239.497C156.69 239.976 156.502 240.43 156.245 240.858C155.68 241.817 154.995 242.296 154.191 242.296C153.968 242.296 153.762 242.219 153.574 242.065L153.009 241.577C152.444 241.08 151.896 240.832 151.365 240.832C150.852 240.832 150.218 241.175 149.465 241.86C148.729 242.544 147.958 243.426 147.153 244.505C144.448 248.083 142.239 252.09 140.527 256.525L139.397 259.504C139.106 260.24 138.849 260.771 138.627 261.096C138.404 261.404 138.07 261.558 137.625 261.558C137.197 261.558 136.76 261.473 136.315 261.302C135.887 261.148 135.502 260.942 135.159 260.685Z" fill="#674232"/>
<path d="M173.838 255.472C173.838 253.16 174.497 249.616 175.816 244.839C171.689 244.942 168.53 245.061 166.339 245.198C165.671 246.414 165.063 247.57 164.515 248.666L162.923 251.825C160.817 255.968 158.925 258.699 157.247 260.017C155.963 261.045 154.601 261.558 153.163 261.558C152.067 261.558 151.237 261.199 150.672 260.48C150.466 260.189 150.347 259.915 150.312 259.658C150.278 259.384 150.338 259.204 150.492 259.119C152.461 258.382 154.062 257.261 155.295 255.754C156.374 254.401 157.452 252.749 158.531 250.797L161.433 245.609L159.815 245.84C158.788 246.029 158.274 245.866 158.274 245.352C158.274 244.839 158.582 244.351 159.199 243.889C160.277 243.084 161.33 242.553 162.358 242.296L163.462 242.039C166.27 237.399 168.41 234.155 169.883 232.305C171.372 230.456 172.725 228.915 173.941 227.683C175.174 226.45 176.466 225.362 177.819 224.421C180.781 222.383 183.7 221.364 186.577 221.364C187.45 221.364 188.041 221.544 188.349 221.904C188.863 222.469 189.025 223.077 188.837 223.727C188.649 224.361 188.34 225.277 187.912 226.475C185.173 233.941 183.503 238.564 182.904 240.344C183.178 240.327 183.426 240.319 183.649 240.319H184.214C186.132 240.319 187.159 240.507 187.296 240.884C187.33 241.003 187.347 241.226 187.347 241.551C187.347 241.86 187.245 242.219 187.039 242.63C186.851 243.041 186.534 243.392 186.089 243.683C185.181 244.299 183.658 244.659 181.517 244.762C180.353 248.785 179.685 251.568 179.514 253.109C179.36 254.65 179.411 255.694 179.668 256.242C179.942 256.773 180.319 257.038 180.798 257.038C181.295 257.038 181.697 256.995 182.005 256.91C182.313 256.807 182.587 256.696 182.827 256.576L183.495 256.268C183.666 256.165 183.837 256.114 184.009 256.114C184.197 256.114 184.351 256.233 184.471 256.473C184.591 256.696 184.651 256.995 184.651 257.372C184.651 257.749 184.488 258.203 184.163 258.733C183.854 259.247 183.444 259.709 182.93 260.12C181.731 261.079 180.379 261.558 178.872 261.558C176.56 261.558 175.019 260.531 174.249 258.476C173.975 257.757 173.838 257.115 173.838 256.55V255.472ZM168.701 241.14C171.749 240.747 174.574 240.515 177.177 240.447C177.656 238.974 178.17 237.519 178.718 236.081L180.31 231.972C180.858 230.67 181.397 229.438 181.928 228.273L183.418 225.114C179.856 226.039 176.338 229.112 172.862 234.334C172.126 235.43 171.407 236.56 170.705 237.725L168.701 241.14Z" fill="#674232"/>
<path d="M214.597 256.114C214.957 256.114 215.136 256.302 215.136 256.679C215.136 258.151 214.374 259.418 212.851 260.48C211.84 261.199 210.882 261.558 209.974 261.558C209.084 261.558 208.373 261.456 207.842 261.25C207.312 261.045 206.832 260.719 206.404 260.274C205.445 259.247 204.966 257.834 204.966 256.037C204.966 255.677 205.034 255.103 205.171 254.316C203.784 256.456 202.595 257.963 201.601 258.836C199.598 260.651 197.638 261.558 195.72 261.558C192.689 261.558 190.703 260.189 189.762 257.449C189.419 256.439 189.248 255.172 189.248 253.648C189.248 252.124 189.479 250.583 189.941 249.025C190.404 247.467 191.029 245.986 191.816 244.582C192.621 243.178 193.546 241.877 194.59 240.678C195.652 239.462 196.764 238.409 197.929 237.519C200.429 235.653 202.689 234.72 204.709 234.72C206.729 234.72 208.348 235.542 209.563 237.185C212.542 226.981 214.785 220.962 216.292 219.13C216.926 218.377 217.593 218 218.295 218C219.46 218 220.341 218.334 220.941 219.002C221.129 219.224 221.223 219.447 221.223 219.669C221.223 219.892 221.086 220.303 220.812 220.902C220.538 221.501 220.136 222.469 219.605 223.804C218.081 227.828 217.011 230.773 216.395 232.639C214.82 237.416 213.758 240.704 213.21 242.502L211.798 247.253C210.582 251.482 209.974 254.17 209.974 255.317C209.974 256.465 210.394 257.038 211.233 257.038C212.003 257.038 212.619 256.935 213.082 256.73L214.058 256.268C214.246 256.165 214.426 256.114 214.597 256.114ZM196.953 257.706C198.716 257.706 200.737 255.985 203.014 252.544C205.394 248.982 207.055 245.104 207.997 240.909C207.928 239.745 207.44 238.889 206.533 238.341C206.224 238.153 205.754 238.058 205.12 238.058C204.504 238.058 203.776 238.29 202.937 238.752C202.115 239.197 201.31 239.805 200.523 240.575C199.752 241.346 199.025 242.253 198.34 243.298C197.672 244.325 197.09 245.421 196.593 246.585C195.515 249.119 194.975 251.611 194.975 254.059C194.975 256.49 195.634 257.706 196.953 257.706Z" fill="#674232"/>
<path d="M238.097 254.47C238.097 256.045 238.654 256.833 239.766 256.833C240.537 256.833 241.17 256.713 241.667 256.473C242.181 256.233 242.523 256.114 242.694 256.114C243.054 256.114 243.234 256.302 243.234 256.679C243.234 258.151 242.463 259.418 240.922 260.48C239.296 261.593 237.635 261.867 235.94 261.302C234.827 260.908 234.005 260.06 233.474 258.759C233.217 258.091 233.089 257.483 233.089 256.935C233.089 256.045 233.174 255.103 233.346 254.11C231.753 257.364 229.776 259.607 227.413 260.839C226.471 261.319 225.47 261.558 224.408 261.558C223.346 261.558 222.422 261.344 221.634 260.916C220.864 260.471 220.205 259.863 219.657 259.093C218.544 257.483 218.039 255.463 218.141 253.032C218.244 249.984 219.143 246.996 220.838 244.068C222.396 241.329 224.365 239.094 226.745 237.365C229.125 235.601 231.351 234.72 233.423 234.72C235.494 234.72 237.164 235.67 238.431 237.57C239.612 235.67 240.657 234.72 241.564 234.72C242.54 234.72 243.276 234.899 243.773 235.259C244.715 235.944 245.049 236.543 244.775 237.057C240.477 245.858 238.268 251.337 238.148 253.494C238.114 253.802 238.097 254.127 238.097 254.47ZM223.843 254.573C223.843 256.627 224.502 257.655 225.821 257.655C226.831 257.655 228.072 256.799 229.545 255.086C231.702 252.569 233.611 249.179 235.272 244.916C235.803 243.58 236.248 242.245 236.607 240.909C236.539 239.745 236.051 238.889 235.143 238.341C234.835 238.153 234.373 238.058 233.757 238.058C233.157 238.058 232.447 238.281 231.625 238.726C230.82 239.171 230.033 239.779 229.262 240.55C228.509 241.32 227.798 242.236 227.13 243.298C226.48 244.342 225.906 245.481 225.41 246.714C224.365 249.35 223.843 251.97 223.843 254.573Z" fill="#674232"/>
<path d="M266.143 239.574C265.15 239.574 263.335 241.012 260.698 243.889C258.729 246.131 257.299 247.818 256.409 248.948L254.098 251.876C253.105 253.759 252.325 255.326 251.76 256.576L250.374 259.555C250.014 260.291 249.697 260.814 249.423 261.122C249.166 261.413 248.807 261.558 248.345 261.558C247.899 261.558 247.463 261.473 247.035 261.302C246.624 261.148 246.264 260.942 245.956 260.685C245.305 260.137 244.98 259.538 244.98 258.887C244.98 258.631 245.168 258.125 245.545 257.372L246.521 255.292C246.829 254.675 247.189 253.888 247.6 252.929L249.038 249.41C251.058 244.359 252.069 241.098 252.069 239.625C252.069 238.838 251.812 238.255 251.298 237.879L250.784 237.519C250.613 237.399 250.528 237.194 250.528 236.903C250.528 236.595 250.639 236.303 250.862 236.029C251.101 235.756 251.409 235.516 251.786 235.31C252.557 234.917 253.327 234.72 254.098 234.72C254.885 234.72 255.502 234.805 255.947 234.976C256.392 235.148 256.777 235.379 257.102 235.67C257.753 236.269 258.078 236.894 258.078 237.545C258.078 238.195 257.993 238.855 257.822 239.522C257.65 240.173 257.436 240.841 257.18 241.526C256.923 242.193 256.649 242.844 256.358 243.478C255.673 244.95 255.245 245.858 255.074 246.2C254.919 246.525 254.877 246.645 254.945 246.56C258.078 242.502 259.962 240.105 260.595 239.368C261.914 237.844 262.941 236.8 263.677 236.235C265.03 235.225 266.306 234.72 267.504 234.72C268.72 234.72 269.687 235.096 270.406 235.85C271.125 236.603 271.485 237.596 271.485 238.829C271.485 239.908 271.211 241.175 270.663 242.63C270.115 244.085 269.747 245.104 269.559 245.686L273.334 240.704L275.44 238.187C276.707 236.766 277.82 235.833 278.779 235.387C279.738 234.942 280.517 234.72 281.116 234.72C281.733 234.72 282.332 234.831 282.914 235.054C283.513 235.276 284.018 235.593 284.429 236.004C285.302 236.843 285.739 237.956 285.739 239.343C285.739 240.678 285.431 242.048 284.814 243.452C284.198 244.856 283.659 246.012 283.196 246.919C282.734 247.809 282.289 248.708 281.861 249.616C280.611 252.338 279.986 254.359 279.986 255.677C279.986 256.602 280.363 257.064 281.116 257.064C281.835 257.064 282.486 256.91 283.068 256.602C283.667 256.293 284.053 256.139 284.224 256.139C284.583 256.139 284.763 256.319 284.763 256.679C284.763 258.203 283.984 259.478 282.426 260.505C281.382 261.207 280.423 261.558 279.549 261.558C278.693 261.558 278 261.456 277.469 261.25C276.938 261.045 276.459 260.719 276.031 260.274C275.072 259.281 274.593 258.04 274.593 256.55C274.593 255.061 274.781 253.691 275.158 252.441C275.534 251.191 275.98 249.984 276.493 248.82C277.007 247.638 277.521 246.56 278.034 245.584C278.565 244.591 278.967 243.803 279.241 243.221C279.789 242.022 280.063 241.14 280.063 240.575C280.063 239.908 279.712 239.574 279.01 239.574C278.086 239.574 276.425 241.106 274.028 244.171C272.213 246.551 270.954 248.263 270.252 249.308L268.48 251.876C267.487 253.759 266.725 255.326 266.194 256.576L264.884 259.555C264.559 260.291 264.277 260.814 264.037 261.122C263.797 261.413 263.463 261.558 263.035 261.558C262.607 261.558 262.188 261.49 261.777 261.353C261.383 261.216 261.041 261.036 260.749 260.814C260.082 260.317 259.748 259.795 259.748 259.247C259.748 258.682 259.928 257.92 260.287 256.961C260.664 255.985 261.126 254.898 261.674 253.699L265.27 246.097C266.554 243.272 267.196 241.483 267.196 240.729C267.196 239.959 266.845 239.574 266.143 239.574ZM268.686 246.816C268.703 246.816 268.711 246.808 268.711 246.791L268.737 246.739C268.703 246.774 268.686 246.799 268.686 246.816Z" fill="#674232"/>
<path d="M310.549 254.829C311.063 254.829 311.319 255.317 311.319 256.293C311.319 257.269 311.174 258.066 310.883 258.682C310.592 259.298 310.189 259.821 309.676 260.249C308.631 261.122 307.244 261.558 305.515 261.558C304.316 261.558 302.955 261.319 301.431 260.839C299.908 260.343 298.735 259.983 297.913 259.761C297.108 259.538 296.363 259.427 295.678 259.427C295.011 259.427 294.463 259.495 294.035 259.632C293.624 259.769 293.239 259.94 292.879 260.146C292.537 260.351 292.203 260.565 291.877 260.788C291.192 261.267 290.722 261.507 290.465 261.507C290.225 261.507 289.985 261.439 289.746 261.302C289.506 261.165 289.283 260.985 289.078 260.762C288.598 260.249 288.359 259.846 288.359 259.555C288.359 259.264 288.513 258.742 288.821 257.988C289.146 257.235 289.788 256.199 290.747 254.881C291.706 253.545 292.768 252.235 293.932 250.951C295.096 249.65 296.329 248.366 297.63 247.099C301.431 243.366 303.897 240.901 305.027 239.702C306.174 238.504 307.184 237.314 308.058 236.132C309.958 233.581 310.908 231.278 310.908 229.223C310.908 227.049 310.129 225.645 308.571 225.011C308.092 224.823 307.467 224.729 306.696 224.729C305.943 224.729 305.181 224.952 304.411 225.397C303.64 225.825 302.99 226.373 302.459 227.04C301.363 228.393 300.815 229.857 300.815 231.432C300.815 232.87 301.226 233.761 302.048 234.103C302.39 234.257 302.561 234.48 302.561 234.771C302.561 235.387 302.262 235.952 301.663 236.466C300.55 237.425 299.599 237.904 298.812 237.904C298.024 237.904 297.391 237.759 296.911 237.468C296.432 237.177 296.029 236.791 295.704 236.312C295.053 235.353 294.728 234.317 294.728 233.204C294.728 232.074 294.865 231.064 295.139 230.174C295.413 229.283 295.807 228.419 296.321 227.58C296.851 226.724 297.476 225.919 298.195 225.166C298.932 224.412 299.753 223.753 300.661 223.188C302.664 221.955 304.625 221.339 306.542 221.339C308.477 221.339 310.001 221.596 311.114 222.109C312.244 222.623 313.16 223.291 313.862 224.113C315.163 225.688 315.814 227.691 315.814 230.122C315.814 234.112 313.879 238.144 310.01 242.219C307.972 244.359 305.909 246.268 303.82 247.946L298.94 251.876C296.286 254.068 294.454 255.865 293.444 257.269C294.762 256.687 295.85 256.37 296.706 256.319C297.562 256.251 298.255 256.233 298.786 256.268C299.334 256.285 299.908 256.319 300.507 256.37C302.082 256.507 303.341 256.576 304.282 256.576C305.224 256.576 306.037 256.49 306.722 256.319C307.424 256.131 307.989 255.925 308.417 255.703C308.862 255.48 309.231 255.283 309.522 255.112C309.813 254.924 310.155 254.829 310.549 254.829Z" fill="#674232"/>
<path d="M327.32 246.02C326.652 246.02 326.318 245.763 326.318 245.25C326.318 244.051 326.738 243.032 327.577 242.193C327.851 241.919 328.382 241.671 329.169 241.449C329.974 241.209 331.001 240.721 332.251 239.985C333.518 239.231 334.665 238.324 335.693 237.262C338.004 234.848 339.16 232.1 339.16 229.018C339.16 227.683 338.826 226.638 338.158 225.885C337.49 225.114 336.643 224.729 335.616 224.729C334.588 224.729 333.647 224.952 332.79 225.397C331.951 225.825 331.215 226.373 330.582 227.04C329.229 228.444 328.553 229.908 328.553 231.432C328.553 232.87 328.964 233.761 329.786 234.103C330.128 234.257 330.299 234.48 330.299 234.771C330.299 235.387 330 235.952 329.4 236.466C328.287 237.425 327.346 237.904 326.575 237.904C325.805 237.904 325.18 237.785 324.7 237.545C324.221 237.305 323.81 236.971 323.467 236.543C322.8 235.653 322.466 234.634 322.466 233.487C322.466 232.34 322.62 231.312 322.928 230.405C323.236 229.497 323.664 228.616 324.212 227.76C324.777 226.886 325.454 226.064 326.241 225.294C327.046 224.523 327.936 223.839 328.912 223.239C331.001 221.972 333.039 221.339 335.025 221.339C337.028 221.339 338.586 221.596 339.699 222.109C340.829 222.623 341.737 223.291 342.422 224.113C343.689 225.636 344.322 227.64 344.322 230.122C344.322 234.163 342.473 237.939 338.775 241.449C337.405 242.75 336.086 243.717 334.819 244.351C336.292 244.796 337.302 246.012 337.85 247.998C338.021 248.614 338.107 249.325 338.107 250.129C338.107 250.917 337.961 251.773 337.67 252.698C337.379 253.622 336.968 254.521 336.437 255.395C335.907 256.251 335.256 257.055 334.485 257.809C333.715 258.545 332.85 259.196 331.892 259.761C329.82 260.959 327.577 261.558 325.163 261.558C322.68 261.558 320.745 260.908 319.358 259.607C318.16 258.494 317.56 257.141 317.56 255.549C317.56 254.299 317.954 253.152 318.742 252.107C319.684 250.909 320.908 250.309 322.414 250.309C323.253 250.309 323.853 250.489 324.212 250.849C324.846 251.482 325 251.987 324.675 252.364C324.366 252.723 324.092 253.057 323.853 253.366C323.63 253.657 323.442 253.956 323.288 254.264C322.98 254.847 322.825 255.377 322.825 255.857C322.825 256.336 322.868 256.721 322.954 257.013C323.039 257.286 323.176 257.535 323.365 257.757C323.81 258.254 324.495 258.502 325.419 258.502C326.344 258.502 327.243 258.211 328.116 257.629C329.006 257.047 329.786 256.302 330.453 255.395C331.874 253.46 332.585 251.379 332.585 249.154C332.585 246.911 331.652 245.789 329.786 245.789L327.32 246.02Z" fill="#674232"/>
<path d="M135.159 260.685C134.817 260.428 134.543 260.146 134.338 259.838C134.132 259.512 134.021 259.238 134.004 259.016C133.987 258.776 134.029 258.494 134.132 258.168C134.252 257.826 134.406 257.415 134.594 256.935C138.087 248.34 139.834 242.57 139.834 239.625C139.782 238.803 139.5 238.221 138.986 237.879L138.473 237.519C138.318 237.399 138.233 237.194 138.216 236.903C138.216 236.595 138.327 236.303 138.55 236.029C138.772 235.756 139.063 235.516 139.423 235.31C140.159 234.917 140.912 234.72 141.683 234.72C142.471 234.72 143.078 234.805 143.506 234.976C143.952 235.148 144.328 235.379 144.636 235.67C145.287 236.286 145.612 236.937 145.612 237.622C145.63 238.307 145.552 239 145.381 239.702C145.227 240.404 145.039 241.098 144.816 241.782C144.594 242.45 144.371 243.092 144.148 243.709C143.926 244.308 143.78 244.753 143.712 245.044C143.575 245.644 143.524 246.02 143.558 246.174C143.969 245.815 144.217 245.464 144.303 245.121L145.304 243.221C147.53 239.214 149.705 236.56 151.828 235.259C152.444 234.899 153.18 234.72 154.036 234.72C154.91 234.72 155.612 235.028 156.142 235.644C156.673 236.244 156.947 236.911 156.964 237.648C156.999 238.384 156.947 239 156.81 239.497C156.69 239.976 156.502 240.43 156.245 240.858C155.68 241.817 154.995 242.296 154.191 242.296C153.968 242.296 153.762 242.219 153.574 242.065L153.009 241.577C152.444 241.08 151.896 240.832 151.365 240.832C150.852 240.832 150.218 241.175 149.465 241.86C148.729 242.544 147.958 243.426 147.153 244.505C144.448 248.083 142.239 252.09 140.527 256.525L139.397 259.504C139.106 260.24 138.849 260.771 138.627 261.096C138.404 261.404 138.07 261.558 137.625 261.558C137.197 261.558 136.76 261.473 136.315 261.302C135.887 261.148 135.502 260.942 135.159 260.685Z" stroke="#674232" stroke-width="1.11476" mask="url(#path-1-outside-1)"/>
<path d="M173.838 255.472C173.838 253.16 174.497 249.616 175.816 244.839C171.689 244.942 168.53 245.061 166.339 245.198C165.671 246.414 165.063 247.57 164.515 248.666L162.923 251.825C160.817 255.968 158.925 258.699 157.247 260.017C155.963 261.045 154.601 261.558 153.163 261.558C152.067 261.558 151.237 261.199 150.672 260.48C150.466 260.189 150.347 259.915 150.312 259.658C150.278 259.384 150.338 259.204 150.492 259.119C152.461 258.382 154.062 257.261 155.295 255.754C156.374 254.401 157.452 252.749 158.531 250.797L161.433 245.609L159.815 245.84C158.788 246.029 158.274 245.866 158.274 245.352C158.274 244.839 158.582 244.351 159.199 243.889C160.277 243.084 161.33 242.553 162.358 242.296L163.462 242.039C166.27 237.399 168.41 234.155 169.883 232.305C171.372 230.456 172.725 228.915 173.941 227.683C175.174 226.45 176.466 225.362 177.819 224.421C180.781 222.383 183.7 221.364 186.577 221.364C187.45 221.364 188.041 221.544 188.349 221.904C188.863 222.469 189.025 223.077 188.837 223.727C188.649 224.361 188.34 225.277 187.912 226.475C185.173 233.941 183.503 238.564 182.904 240.344C183.178 240.327 183.426 240.319 183.649 240.319H184.214C186.132 240.319 187.159 240.507 187.296 240.884C187.33 241.003 187.347 241.226 187.347 241.551C187.347 241.86 187.245 242.219 187.039 242.63C186.851 243.041 186.534 243.392 186.089 243.683C185.181 244.299 183.658 244.659 181.517 244.762C180.353 248.785 179.685 251.568 179.514 253.109C179.36 254.65 179.411 255.694 179.668 256.242C179.942 256.773 180.319 257.038 180.798 257.038C181.295 257.038 181.697 256.995 182.005 256.91C182.313 256.807 182.587 256.696 182.827 256.576L183.495 256.268C183.666 256.165 183.837 256.114 184.009 256.114C184.197 256.114 184.351 256.233 184.471 256.473C184.591 256.696 184.651 256.995 184.651 257.372C184.651 257.749 184.488 258.203 184.163 258.733C183.854 259.247 183.444 259.709 182.93 260.12C181.731 261.079 180.379 261.558 178.872 261.558C176.56 261.558 175.019 260.531 174.249 258.476C173.975 257.757 173.838 257.115 173.838 256.55V255.472ZM168.701 241.14C171.749 240.747 174.574 240.515 177.177 240.447C177.656 238.974 178.17 237.519 178.718 236.081L180.31 231.972C180.858 230.67 181.397 229.438 181.928 228.273L183.418 225.114C179.856 226.039 176.338 229.112 172.862 234.334C172.126 235.43 171.407 236.56 170.705 237.725L168.701 241.14Z" stroke="#674232" stroke-width="1.11476" mask="url(#path-1-outside-1)"/>
<path d="M214.597 256.114C214.957 256.114 215.136 256.302 215.136 256.679C215.136 258.151 214.374 259.418 212.851 260.48C211.84 261.199 210.882 261.558 209.974 261.558C209.084 261.558 208.373 261.456 207.842 261.25C207.312 261.045 206.832 260.719 206.404 260.274C205.445 259.247 204.966 257.834 204.966 256.037C204.966 255.677 205.034 255.103 205.171 254.316C203.784 256.456 202.595 257.963 201.601 258.836C199.598 260.651 197.638 261.558 195.72 261.558C192.689 261.558 190.703 260.189 189.762 257.449C189.419 256.439 189.248 255.172 189.248 253.648C189.248 252.124 189.479 250.583 189.941 249.025C190.404 247.467 191.029 245.986 191.816 244.582C192.621 243.178 193.546 241.877 194.59 240.678C195.652 239.462 196.764 238.409 197.929 237.519C200.429 235.653 202.689 234.72 204.709 234.72C206.729 234.72 208.348 235.542 209.563 237.185C212.542 226.981 214.785 220.962 216.292 219.13C216.926 218.377 217.593 218 218.295 218C219.46 218 220.341 218.334 220.941 219.002C221.129 219.224 221.223 219.447 221.223 219.669C221.223 219.892 221.086 220.303 220.812 220.902C220.538 221.501 220.136 222.469 219.605 223.804C218.081 227.828 217.011 230.773 216.395 232.639C214.82 237.416 213.758 240.704 213.21 242.502L211.798 247.253C210.582 251.482 209.974 254.17 209.974 255.317C209.974 256.465 210.394 257.038 211.233 257.038C212.003 257.038 212.619 256.935 213.082 256.73L214.058 256.268C214.246 256.165 214.426 256.114 214.597 256.114ZM196.953 257.706C198.716 257.706 200.737 255.985 203.014 252.544C205.394 248.982 207.055 245.104 207.997 240.909C207.928 239.745 207.44 238.889 206.533 238.341C206.224 238.153 205.754 238.058 205.12 238.058C204.504 238.058 203.776 238.29 202.937 238.752C202.115 239.197 201.31 239.805 200.523 240.575C199.752 241.346 199.025 242.253 198.34 243.298C197.672 244.325 197.09 245.421 196.593 246.585C195.515 249.119 194.975 251.611 194.975 254.059C194.975 256.49 195.634 257.706 196.953 257.706Z" stroke="#674232" stroke-width="1.11476" mask="url(#path-1-outside-1)"/>
<path d="M238.097 254.47C238.097 256.045 238.654 256.833 239.766 256.833C240.537 256.833 241.17 256.713 241.667 256.473C242.181 256.233 242.523 256.114 242.694 256.114C243.054 256.114 243.234 256.302 243.234 256.679C243.234 258.151 242.463 259.418 240.922 260.48C239.296 261.593 237.635 261.867 235.94 261.302C234.827 260.908 234.005 260.06 233.474 258.759C233.217 258.091 233.089 257.483 233.089 256.935C233.089 256.045 233.174 255.103 233.346 254.11C231.753 257.364 229.776 259.607 227.413 260.839C226.471 261.319 225.47 261.558 224.408 261.558C223.346 261.558 222.422 261.344 221.634 260.916C220.864 260.471 220.205 259.863 219.657 259.093C218.544 257.483 218.039 255.463 218.141 253.032C218.244 249.984 219.143 246.996 220.838 244.068C222.396 241.329 224.365 239.094 226.745 237.365C229.125 235.601 231.351 234.72 233.423 234.72C235.494 234.72 237.164 235.67 238.431 237.57C239.612 235.67 240.657 234.72 241.564 234.72C242.54 234.72 243.276 234.899 243.773 235.259C244.715 235.944 245.049 236.543 244.775 237.057C240.477 245.858 238.268 251.337 238.148 253.494C238.114 253.802 238.097 254.127 238.097 254.47ZM223.843 254.573C223.843 256.627 224.502 257.655 225.821 257.655C226.831 257.655 228.072 256.799 229.545 255.086C231.702 252.569 233.611 249.179 235.272 244.916C235.803 243.58 236.248 242.245 236.607 240.909C236.539 239.745 236.051 238.889 235.143 238.341C234.835 238.153 234.373 238.058 233.757 238.058C233.157 238.058 232.447 238.281 231.625 238.726C230.82 239.171 230.033 239.779 229.262 240.55C228.509 241.32 227.798 242.236 227.13 243.298C226.48 244.342 225.906 245.481 225.41 246.714C224.365 249.35 223.843 251.97 223.843 254.573Z" stroke="#674232" stroke-width="1.11476" mask="url(#path-1-outside-1)"/>
<path d="M266.143 239.574C265.15 239.574 263.335 241.012 260.698 243.889C258.729 246.131 257.299 247.818 256.409 248.948L254.098 251.876C253.105 253.759 252.325 255.326 251.76 256.576L250.374 259.555C250.014 260.291 249.697 260.814 249.423 261.122C249.166 261.413 248.807 261.558 248.345 261.558C247.899 261.558 247.463 261.473 247.035 261.302C246.624 261.148 246.264 260.942 245.956 260.685C245.305 260.137 244.98 259.538 244.98 258.887C244.98 258.631 245.168 258.125 245.545 257.372L246.521 255.292C246.829 254.675 247.189 253.888 247.6 252.929L249.038 249.41C251.058 244.359 252.069 241.098 252.069 239.625C252.069 238.838 251.812 238.255 251.298 237.879L250.784 237.519C250.613 237.399 250.528 237.194 250.528 236.903C250.528 236.595 250.639 236.303 250.862 236.029C251.101 235.756 251.409 235.516 251.786 235.31C252.557 234.917 253.327 234.72 254.098 234.72C254.885 234.72 255.502 234.805 255.947 234.976C256.392 235.148 256.777 235.379 257.102 235.67C257.753 236.269 258.078 236.894 258.078 237.545C258.078 238.195 257.993 238.855 257.822 239.522C257.65 240.173 257.436 240.841 257.18 241.526C256.923 242.193 256.649 242.844 256.358 243.478C255.673 244.95 255.245 245.858 255.074 246.2C254.919 246.525 254.877 246.645 254.945 246.56C258.078 242.502 259.962 240.105 260.595 239.368C261.914 237.844 262.941 236.8 263.677 236.235C265.03 235.225 266.306 234.72 267.504 234.72C268.72 234.72 269.687 235.096 270.406 235.85C271.125 236.603 271.485 237.596 271.485 238.829C271.485 239.908 271.211 241.175 270.663 242.63C270.115 244.085 269.747 245.104 269.559 245.686L273.334 240.704L275.44 238.187C276.707 236.766 277.82 235.833 278.779 235.387C279.738 234.942 280.517 234.72 281.116 234.72C281.733 234.72 282.332 234.831 282.914 235.054C283.513 235.276 284.018 235.593 284.429 236.004C285.302 236.843 285.739 237.956 285.739 239.343C285.739 240.678 285.431 242.048 284.814 243.452C284.198 244.856 283.659 246.012 283.196 246.919C282.734 247.809 282.289 248.708 281.861 249.616C280.611 252.338 279.986 254.359 279.986 255.677C279.986 256.602 280.363 257.064 281.116 257.064C281.835 257.064 282.486 256.91 283.068 256.602C283.667 256.293 284.053 256.139 284.224 256.139C284.583 256.139 284.763 256.319 284.763 256.679C284.763 258.203 283.984 259.478 282.426 260.505C281.382 261.207 280.423 261.558 279.549 261.558C278.693 261.558 278 261.456 277.469 261.25C276.938 261.045 276.459 260.719 276.031 260.274C275.072 259.281 274.593 258.04 274.593 256.55C274.593 255.061 274.781 253.691 275.158 252.441C275.534 251.191 275.98 249.984 276.493 248.82C277.007 247.638 277.521 246.56 278.034 245.584C278.565 244.591 278.967 243.803 279.241 243.221C279.789 242.022 280.063 241.14 280.063 240.575C280.063 239.908 279.712 239.574 279.01 239.574C278.086 239.574 276.425 241.106 274.028 244.171C272.213 246.551 270.954 248.263 270.252 249.308L268.48 251.876C267.487 253.759 266.725 255.326 266.194 256.576L264.884 259.555C264.559 260.291 264.277 260.814 264.037 261.122C263.797 261.413 263.463 261.558 263.035 261.558C262.607 261.558 262.188 261.49 261.777 261.353C261.383 261.216 261.041 261.036 260.749 260.814C260.082 260.317 259.748 259.795 259.748 259.247C259.748 258.682 259.928 257.92 260.287 256.961C260.664 255.985 261.126 254.898 261.674 253.699L265.27 246.097C266.554 243.272 267.196 241.483 267.196 240.729C267.196 239.959 266.845 239.574 266.143 239.574ZM268.686 246.816C268.703 246.816 268.711 246.808 268.711 246.791L268.737 246.739C268.703 246.774 268.686 246.799 268.686 246.816Z" stroke="#674232" stroke-width="1.11476" mask="url(#path-1-outside-1)"/>
<path d="M310.549 254.829C311.063 254.829 311.319 255.317 311.319 256.293C311.319 257.269 311.174 258.066 310.883 258.682C310.592 259.298 310.189 259.821 309.676 260.249C308.631 261.122 307.244 261.558 305.515 261.558C304.316 261.558 302.955 261.319 301.431 260.839C299.908 260.343 298.735 259.983 297.913 259.761C297.108 259.538 296.363 259.427 295.678 259.427C295.011 259.427 294.463 259.495 294.035 259.632C293.624 259.769 293.239 259.94 292.879 260.146C292.537 260.351 292.203 260.565 291.877 260.788C291.192 261.267 290.722 261.507 290.465 261.507C290.225 261.507 289.985 261.439 289.746 261.302C289.506 261.165 289.283 260.985 289.078 260.762C288.598 260.249 288.359 259.846 288.359 259.555C288.359 259.264 288.513 258.742 288.821 257.988C289.146 257.235 289.788 256.199 290.747 254.881C291.706 253.545 292.768 252.235 293.932 250.951C295.096 249.65 296.329 248.366 297.63 247.099C301.431 243.366 303.897 240.901 305.027 239.702C306.174 238.504 307.184 237.314 308.058 236.132C309.958 233.581 310.908 231.278 310.908 229.223C310.908 227.049 310.129 225.645 308.571 225.011C308.092 224.823 307.467 224.729 306.696 224.729C305.943 224.729 305.181 224.952 304.411 225.397C303.64 225.825 302.99 226.373 302.459 227.04C301.363 228.393 300.815 229.857 300.815 231.432C300.815 232.87 301.226 233.761 302.048 234.103C302.39 234.257 302.561 234.48 302.561 234.771C302.561 235.387 302.262 235.952 301.663 236.466C300.55 237.425 299.599 237.904 298.812 237.904C298.024 237.904 297.391 237.759 296.911 237.468C296.432 237.177 296.029 236.791 295.704 236.312C295.053 235.353 294.728 234.317 294.728 233.204C294.728 232.074 294.865 231.064 295.139 230.174C295.413 229.283 295.807 228.419 296.321 227.58C296.851 226.724 297.476 225.919 298.195 225.166C298.932 224.412 299.753 223.753 300.661 223.188C302.664 221.955 304.625 221.339 306.542 221.339C308.477 221.339 310.001 221.596 311.114 222.109C312.244 222.623 313.16 223.291 313.862 224.113C315.163 225.688 315.814 227.691 315.814 230.122C315.814 234.112 313.879 238.144 310.01 242.219C307.972 244.359 305.909 246.268 303.82 247.946L298.94 251.876C296.286 254.068 294.454 255.865 293.444 257.269C294.762 256.687 295.85 256.37 296.706 256.319C297.562 256.251 298.255 256.233 298.786 256.268C299.334 256.285 299.908 256.319 300.507 256.37C302.082 256.507 303.341 256.576 304.282 256.576C305.224 256.576 306.037 256.49 306.722 256.319C307.424 256.131 307.989 255.925 308.417 255.703C308.862 255.48 309.231 255.283 309.522 255.112C309.813 254.924 310.155 254.829 310.549 254.829Z" stroke="#674232" stroke-width="1.11476" mask="url(#path-1-outside-1)"/>
<path d="M327.32 246.02C326.652 246.02 326.318 245.763 326.318 245.25C326.318 244.051 326.738 243.032 327.577 242.193C327.851 241.919 328.382 241.671 329.169 241.449C329.974 241.209 331.001 240.721 332.251 239.985C333.518 239.231 334.665 238.324 335.693 237.262C338.004 234.848 339.16 232.1 339.16 229.018C339.16 227.683 338.826 226.638 338.158 225.885C337.49 225.114 336.643 224.729 335.616 224.729C334.588 224.729 333.647 224.952 332.79 225.397C331.951 225.825 331.215 226.373 330.582 227.04C329.229 228.444 328.553 229.908 328.553 231.432C328.553 232.87 328.964 233.761 329.786 234.103C330.128 234.257 330.299 234.48 330.299 234.771C330.299 235.387 330 235.952 329.4 236.466C328.287 237.425 327.346 237.904 326.575 237.904C325.805 237.904 325.18 237.785 324.7 237.545C324.221 237.305 323.81 236.971 323.467 236.543C322.8 235.653 322.466 234.634 322.466 233.487C322.466 232.34 322.62 231.312 322.928 230.405C323.236 229.497 323.664 228.616 324.212 227.76C324.777 226.886 325.454 226.064 326.241 225.294C327.046 224.523 327.936 223.839 328.912 223.239C331.001 221.972 333.039 221.339 335.025 221.339C337.028 221.339 338.586 221.596 339.699 222.109C340.829 222.623 341.737 223.291 342.422 224.113C343.689 225.636 344.322 227.64 344.322 230.122C344.322 234.163 342.473 237.939 338.775 241.449C337.405 242.75 336.086 243.717 334.819 244.351C336.292 244.796 337.302 246.012 337.85 247.998C338.021 248.614 338.107 249.325 338.107 250.129C338.107 250.917 337.961 251.773 337.67 252.698C337.379 253.622 336.968 254.521 336.437 255.395C335.907 256.251 335.256 257.055 334.485 257.809C333.715 258.545 332.85 259.196 331.892 259.761C329.82 260.959 327.577 261.558 325.163 261.558C322.68 261.558 320.745 260.908 319.358 259.607C318.16 258.494 317.56 257.141 317.56 255.549C317.56 254.299 317.954 253.152 318.742 252.107C319.684 250.909 320.908 250.309 322.414 250.309C323.253 250.309 323.853 250.489 324.212 250.849C324.846 251.482 325 251.987 324.675 252.364C324.366 252.723 324.092 253.057 323.853 253.366C323.63 253.657 323.442 253.956 323.288 254.264C322.98 254.847 322.825 255.377 322.825 255.857C322.825 256.336 322.868 256.721 322.954 257.013C323.039 257.286 323.176 257.535 323.365 257.757C323.81 258.254 324.495 258.502 325.419 258.502C326.344 258.502 327.243 258.211 328.116 257.629C329.006 257.047 329.786 256.302 330.453 255.395C331.874 253.46 332.585 251.379 332.585 249.154C332.585 246.911 331.652 245.789 329.786 245.789L327.32 246.02Z" stroke="#674232" stroke-width="1.11476" mask="url(#path-1-outside-1)"/>
</svg>
