<svg width="200" height="200" viewBox="0 0 200 200" fill="none" xmlns="http://www.w3.org/2000/svg">
<path d="M36.5996 108.818C36.381 108.654 36.2062 108.473 36.075 108.277C35.9439 108.069 35.8729 107.894 35.8619 107.752C35.851 107.599 35.8783 107.419 35.9439 107.211C36.0204 106.992 36.1187 106.73 36.239 106.424C38.4684 100.938 39.5831 97.2553 39.5831 95.3756C39.5503 94.851 39.37 94.4794 39.0421 94.2609L38.7142 94.0314C38.6159 93.9549 38.5612 93.8237 38.5503 93.6379C38.5503 93.4412 38.6214 93.2555 38.7634 93.0806C38.9055 92.9057 39.0913 92.7527 39.3208 92.6216C39.7907 92.3703 40.2715 92.2446 40.7633 92.2446C41.266 92.2446 41.654 92.2992 41.9272 92.4085C42.2113 92.5178 42.4518 92.6653 42.6485 92.8511C43.0638 93.2445 43.2714 93.6598 43.2714 94.0969C43.2823 94.5341 43.2331 94.9767 43.1239 95.4247C43.0255 95.8728 42.9053 96.3154 42.7632 96.7525C42.6212 97.1788 42.4791 97.5886 42.337 97.982C42.1949 98.3645 42.1021 98.6486 42.0583 98.8344C41.9709 99.2169 41.9381 99.4573 41.96 99.5557C42.2223 99.3262 42.3807 99.1022 42.4354 98.8836L43.0747 97.6705C44.4954 95.1133 45.8833 93.4194 47.2384 92.5888C47.6318 92.3593 48.1018 92.2446 48.6482 92.2446C49.2055 92.2446 49.6536 92.4413 49.9924 92.8347C50.3312 93.2172 50.506 93.6434 50.5169 94.1133C50.5388 94.5833 50.506 94.9767 50.4186 95.2936C50.3421 95.5996 50.2219 95.8892 50.0579 96.1624C49.6973 96.7744 49.2602 97.0804 48.7465 97.0804C48.6045 97.0804 48.4733 97.0312 48.3531 96.9329L47.9925 96.6214C47.6318 96.3045 47.2821 96.146 46.9433 96.146C46.6155 96.146 46.2111 96.3646 45.7303 96.8017C45.2604 97.2389 44.7686 97.8017 44.255 98.4902C42.5283 100.774 41.1185 103.331 40.0257 106.162L39.3044 108.063C39.1186 108.533 38.9547 108.872 38.8126 109.08C38.6705 109.277 38.4574 109.375 38.1733 109.375C37.9001 109.375 37.6214 109.32 37.3373 109.211C37.0641 109.113 36.8182 108.981 36.5996 108.818ZM60.6154 105.49C60.6154 104.014 61.0362 101.752 61.8777 98.7033C59.2439 98.7688 57.2276 98.8453 55.8288 98.9328C55.4026 99.7087 55.0146 100.446 54.6649 101.146L53.6486 103.162C52.3044 105.807 51.0968 107.55 50.0258 108.391C49.2062 109.047 48.3374 109.375 47.4194 109.375C46.72 109.375 46.1899 109.145 45.8293 108.686C45.6982 108.501 45.6217 108.326 45.5998 108.162C45.5779 107.987 45.6162 107.872 45.7146 107.818C46.9713 107.348 47.9931 106.632 48.78 105.67C49.4685 104.807 50.157 103.752 50.8454 102.506L52.6978 99.195L51.6651 99.3426C51.0094 99.4628 50.6815 99.359 50.6815 99.0311C50.6815 98.7033 50.8782 98.3918 51.2716 98.0967C51.9601 97.5831 52.6322 97.2443 53.2879 97.0804L53.9928 96.9165C55.7851 93.9549 57.1511 91.8839 58.091 90.7037C59.0418 89.5234 59.9051 88.5398 60.681 87.753C61.4679 86.9662 62.293 86.2722 63.1563 85.6711C65.0469 84.3707 66.9102 83.7204 68.7462 83.7204C69.3035 83.7204 69.6806 83.8352 69.8773 84.0647C70.2051 84.4253 70.3089 84.8133 70.1887 85.2285C70.0685 85.6329 69.8718 86.2176 69.5986 86.9825C67.8501 91.7473 66.7845 94.698 66.402 95.8346C66.5769 95.8236 66.7354 95.8182 66.8774 95.8182H67.2381C68.462 95.8182 69.1177 95.9384 69.2052 96.1788C69.227 96.2553 69.238 96.3974 69.238 96.605C69.238 96.8017 69.1724 97.0312 69.0412 97.2935C68.921 97.5558 68.7189 97.7798 68.4347 97.9656C67.8555 98.359 66.8829 98.5885 65.5168 98.6541C64.7737 101.222 64.3475 102.998 64.2382 103.982C64.1399 104.965 64.1726 105.632 64.3366 105.982C64.5114 106.32 64.7518 106.49 65.0578 106.49C65.3748 106.49 65.6316 106.462 65.8283 106.408C66.025 106.342 66.1999 106.271 66.3529 106.195L66.7791 105.998C66.8884 105.932 66.9976 105.9 67.1069 105.9C67.2271 105.9 67.3255 105.976 67.402 106.129C67.4785 106.271 67.5167 106.462 67.5167 106.703C67.5167 106.943 67.4129 107.233 67.2053 107.572C67.0086 107.9 66.7463 108.195 66.4184 108.457C65.6534 109.069 64.7901 109.375 63.8284 109.375C62.3531 109.375 61.3695 108.719 60.8777 107.408C60.7029 106.949 60.6154 106.539 60.6154 106.178V105.49ZM57.3369 96.3427C59.2822 96.0914 61.0854 95.9438 62.7465 95.9001C63.0525 94.9603 63.3803 94.0314 63.73 93.1134L64.7464 90.4906C65.0961 89.66 65.4403 88.8732 65.7791 88.13L66.7299 86.1137C64.4568 86.7039 62.211 88.6655 59.9925 91.9987C59.5226 92.6981 59.0636 93.4194 58.6155 94.1625L57.3369 96.3427ZM85.9591 105.9C86.1886 105.9 86.3033 106.02 86.3033 106.26C86.3033 107.2 85.817 108.009 84.8444 108.686C84.1996 109.145 83.5876 109.375 83.0084 109.375C82.4401 109.375 81.9866 109.309 81.6478 109.178C81.309 109.047 81.0031 108.839 80.7298 108.555C80.1179 107.9 79.8119 106.998 79.8119 105.85C79.8119 105.621 79.8556 105.255 79.943 104.752C79.0578 106.118 78.2983 107.08 77.6644 107.637C76.3858 108.796 75.1345 109.375 73.9105 109.375C71.9762 109.375 70.7085 108.501 70.1074 106.752C69.8889 106.107 69.7796 105.299 69.7796 104.326C69.7796 103.353 69.9271 102.37 70.2222 101.375C70.5172 100.381 70.9161 99.4355 71.4188 98.5393C71.9325 97.6432 72.5226 96.8127 73.1892 96.0477C73.8668 95.2717 74.5771 94.5996 75.3203 94.0314C76.9158 92.8402 78.3584 92.2446 79.6479 92.2446C80.9375 92.2446 81.9702 92.7691 82.7461 93.8183C84.6477 87.3049 86.0793 83.4636 87.041 82.2943C87.4454 81.8134 87.8716 81.573 88.3196 81.573C89.0628 81.573 89.6256 81.7861 90.0081 82.2123C90.1283 82.3544 90.1884 82.4964 90.1884 82.6385C90.1884 82.7806 90.101 83.0429 89.9261 83.4253C89.7512 83.8078 89.4944 84.4253 89.1556 85.2777C88.183 87.8459 87.5 89.7256 87.1066 90.9168C86.1012 93.9658 85.4236 96.0641 85.0739 97.2115L84.1723 100.244C83.3964 102.943 83.0084 104.659 83.0084 105.391C83.0084 106.124 83.2762 106.49 83.8117 106.49C84.3034 106.49 84.6969 106.424 84.9919 106.293L85.6148 105.998C85.7351 105.932 85.8498 105.9 85.9591 105.9ZM74.6974 106.916C75.823 106.916 77.1125 105.818 78.566 103.621C80.0851 101.348 81.1451 98.8727 81.7462 96.1952C81.7025 95.4521 81.391 94.9056 80.8118 94.5559C80.6151 94.4357 80.3146 94.3756 79.9102 94.3756C79.5168 94.3756 79.0523 94.5231 78.5168 94.8182C77.9923 95.1024 77.4786 95.4903 76.9759 95.9821C76.4842 96.4739 76.0197 97.0531 75.5826 97.7197C75.1564 98.3754 74.7848 99.0748 74.4679 99.818C73.7794 101.435 73.4351 103.025 73.4351 104.588C73.4351 106.14 73.8559 106.916 74.6974 106.916ZM100.287 104.851C100.287 105.856 100.642 106.359 101.352 106.359C101.844 106.359 102.249 106.282 102.565 106.129C102.893 105.976 103.112 105.9 103.221 105.9C103.451 105.9 103.565 106.02 103.565 106.26C103.565 107.2 103.074 108.009 102.09 108.686C101.052 109.397 99.9918 109.572 98.9099 109.211C98.1996 108.96 97.675 108.419 97.3362 107.588C97.1723 107.162 97.0903 106.774 97.0903 106.424C97.0903 105.856 97.145 105.255 97.2543 104.621C96.2379 106.697 94.9757 108.129 93.4676 108.916C92.8665 109.222 92.2272 109.375 91.5496 109.375C90.8721 109.375 90.2819 109.238 89.7792 108.965C89.2874 108.681 88.8667 108.293 88.517 107.801C87.8066 106.774 87.4843 105.484 87.5498 103.933C87.6154 101.987 88.1891 100.08 89.2711 98.2115C90.2655 96.4629 91.5223 95.0368 93.0414 93.933C94.5604 92.8074 95.9811 92.2446 97.3034 92.2446C98.6258 92.2446 99.6913 92.8511 100.5 94.0642C101.254 92.8511 101.921 92.2446 102.5 92.2446C103.123 92.2446 103.593 92.3593 103.91 92.5888C104.511 93.026 104.724 93.4085 104.549 93.7363C101.806 99.3535 100.396 102.851 100.32 104.228C100.298 104.424 100.287 104.632 100.287 104.851ZM91.189 104.916C91.189 106.227 91.6097 106.883 92.4512 106.883C93.096 106.883 93.8883 106.337 94.8282 105.244C96.2051 103.637 97.4237 101.474 98.4837 98.7524C98.8225 97.9 99.1066 97.0476 99.3361 96.1952C99.2924 95.4521 98.9809 94.9056 98.4017 94.5559C98.205 94.4357 97.91 94.3756 97.5165 94.3756C97.134 94.3756 96.6805 94.5177 96.156 94.8018C95.6423 95.086 95.1396 95.4739 94.6478 95.9657C94.167 96.4575 93.7135 97.0421 93.2872 97.7197C92.872 98.3863 92.5059 99.1131 92.1889 99.8999C91.5223 101.583 91.189 103.255 91.189 104.916ZM117.516 95.3428C116.882 95.3428 115.724 96.2608 114.041 98.0967C112.784 99.5284 111.872 100.605 111.303 101.326L109.828 103.195C109.194 104.397 108.697 105.397 108.336 106.195L107.451 108.096C107.222 108.566 107.019 108.899 106.845 109.096C106.681 109.282 106.451 109.375 106.156 109.375C105.872 109.375 105.593 109.32 105.32 109.211C105.058 109.113 104.828 108.981 104.632 108.818C104.216 108.468 104.009 108.085 104.009 107.67C104.009 107.506 104.129 107.184 104.369 106.703L104.992 105.375C105.189 104.982 105.418 104.479 105.681 103.867L106.599 101.621C107.888 98.3973 108.533 96.3154 108.533 95.3756C108.533 94.8729 108.369 94.5013 108.041 94.2609L107.713 94.0314C107.604 93.9549 107.549 93.8237 107.549 93.6379C107.549 93.4412 107.621 93.2555 107.763 93.0806C107.916 92.9057 108.112 92.7527 108.353 92.6216C108.844 92.3703 109.336 92.2446 109.828 92.2446C110.331 92.2446 110.724 92.2992 111.008 92.4085C111.292 92.5178 111.538 92.6653 111.746 92.8511C112.161 93.2336 112.369 93.6325 112.369 94.0478C112.369 94.463 112.314 94.8838 112.205 95.31C112.096 95.7253 111.959 96.1515 111.795 96.5886C111.631 97.0148 111.456 97.4301 111.271 97.8345C110.833 98.7743 110.56 99.3535 110.451 99.5721C110.353 99.7797 110.325 99.8562 110.369 99.8016C112.369 97.2115 113.571 95.6816 113.975 95.2116C114.817 94.239 115.473 93.5724 115.943 93.2117C116.806 92.567 117.62 92.2446 118.385 92.2446C119.161 92.2446 119.778 92.485 120.237 92.9659C120.696 93.4467 120.926 94.0805 120.926 94.8674C120.926 95.5559 120.751 96.3646 120.401 97.2935C120.052 98.2224 119.817 98.8727 119.696 99.2442L122.106 96.0641L123.45 94.4576C124.259 93.5505 124.969 92.9549 125.581 92.6708C126.193 92.3866 126.691 92.2446 127.073 92.2446C127.467 92.2446 127.849 92.3156 128.221 92.4577C128.603 92.5997 128.925 92.8019 129.188 93.0642C129.745 93.5997 130.024 94.31 130.024 95.1952C130.024 96.0477 129.827 96.9219 129.434 97.8181C129.04 98.7142 128.696 99.4519 128.401 100.031C128.106 100.599 127.822 101.173 127.548 101.752C126.751 103.49 126.352 104.779 126.352 105.621C126.352 106.211 126.592 106.506 127.073 106.506C127.532 106.506 127.947 106.408 128.319 106.211C128.701 106.014 128.947 105.916 129.057 105.916C129.286 105.916 129.401 106.031 129.401 106.26C129.401 107.233 128.904 108.047 127.909 108.703C127.242 109.151 126.63 109.375 126.073 109.375C125.527 109.375 125.084 109.309 124.745 109.178C124.407 109.047 124.101 108.839 123.827 108.555C123.215 107.921 122.909 107.129 122.909 106.178C122.909 105.228 123.03 104.353 123.27 103.555C123.51 102.758 123.795 101.987 124.122 101.244C124.45 100.49 124.778 99.8016 125.106 99.1787C125.445 98.5448 125.702 98.0421 125.876 97.6705C126.226 96.9055 126.401 96.3427 126.401 95.9821C126.401 95.5559 126.177 95.3428 125.729 95.3428C125.139 95.3428 124.079 96.3209 122.549 98.2771C121.39 99.7961 120.587 100.889 120.139 101.556L119.008 103.195C118.374 104.397 117.888 105.397 117.549 106.195L116.713 108.096C116.505 108.566 116.325 108.899 116.172 109.096C116.019 109.282 115.806 109.375 115.533 109.375C115.259 109.375 114.992 109.331 114.729 109.244C114.478 109.156 114.26 109.042 114.074 108.899C113.648 108.583 113.434 108.249 113.434 107.9C113.434 107.539 113.549 107.053 113.779 106.441C114.019 105.818 114.314 105.124 114.664 104.359L116.959 99.5065C117.778 97.7033 118.188 96.5613 118.188 96.0804C118.188 95.5887 117.964 95.3428 117.516 95.3428ZM119.139 99.9655C119.15 99.9655 119.155 99.96 119.155 99.9491L119.172 99.9163C119.15 99.9382 119.139 99.9546 119.139 99.9655ZM145.188 105.08C145.515 105.08 145.679 105.391 145.679 106.014C145.679 106.637 145.586 107.145 145.401 107.539C145.215 107.932 144.958 108.266 144.63 108.539C143.964 109.096 143.078 109.375 141.975 109.375C141.21 109.375 140.341 109.222 139.368 108.916C138.396 108.599 137.647 108.369 137.122 108.227C136.609 108.085 136.133 108.014 135.696 108.014C135.27 108.014 134.92 108.058 134.647 108.145C134.385 108.233 134.139 108.342 133.909 108.473C133.691 108.604 133.478 108.741 133.27 108.883C132.833 109.189 132.532 109.342 132.369 109.342C132.216 109.342 132.063 109.298 131.91 109.211C131.757 109.124 131.615 109.009 131.483 108.867C131.177 108.539 131.024 108.282 131.024 108.096C131.024 107.91 131.123 107.577 131.319 107.096C131.527 106.615 131.937 105.954 132.549 105.113C133.161 104.26 133.838 103.424 134.582 102.605C135.325 101.774 136.112 100.955 136.942 100.146C139.368 97.7634 140.942 96.1897 141.663 95.4247C142.395 94.6598 143.04 93.9002 143.598 93.1462C144.811 91.5178 145.417 90.048 145.417 88.7366C145.417 87.3486 144.92 86.4525 143.925 86.0482C143.619 85.928 143.22 85.8678 142.729 85.8678C142.248 85.8678 141.762 86.0099 141.27 86.2941C140.778 86.5673 140.363 86.917 140.024 87.3432C139.324 88.2065 138.975 89.1409 138.975 90.1463C138.975 91.0643 139.237 91.6326 139.762 91.8512C139.98 91.9495 140.089 92.0916 140.089 92.2774C140.089 92.6708 139.898 93.0314 139.516 93.3593C138.805 93.9713 138.199 94.2773 137.696 94.2773C137.193 94.2773 136.789 94.1844 136.483 93.9986C136.177 93.8128 135.92 93.5669 135.713 93.2609C135.297 92.6489 135.09 91.9878 135.09 91.2774C135.09 90.5561 135.177 89.9114 135.352 89.3431C135.527 88.7748 135.778 88.2229 136.106 87.6874C136.445 87.141 136.844 86.6274 137.303 86.1465C137.773 85.6657 138.297 85.2449 138.876 84.8843C140.155 84.0974 141.406 83.704 142.63 83.704C143.865 83.704 144.838 83.8679 145.548 84.1958C146.27 84.5237 146.854 84.9499 147.302 85.4744C148.133 86.4798 148.548 87.7585 148.548 89.3103C148.548 91.8566 147.313 94.4303 144.843 97.0312C143.543 98.3973 142.226 99.6158 140.893 100.687L137.778 103.195C136.084 104.594 134.915 105.741 134.27 106.637C135.112 106.266 135.806 106.064 136.352 106.031C136.898 105.987 137.341 105.976 137.68 105.998C138.029 106.009 138.396 106.031 138.778 106.064C139.783 106.151 140.587 106.195 141.188 106.195C141.789 106.195 142.308 106.14 142.745 106.031C143.193 105.911 143.554 105.779 143.827 105.637C144.111 105.495 144.346 105.37 144.532 105.26C144.718 105.14 144.936 105.08 145.188 105.08ZM155.221 99.4573C154.794 99.4573 154.581 99.2934 154.581 98.9655C154.581 98.2006 154.849 97.5503 155.384 97.0148C155.559 96.84 155.898 96.6815 156.401 96.5394C156.914 96.3864 157.57 96.075 158.368 95.6051C159.177 95.1242 159.909 94.545 160.565 93.8674C162.04 92.3265 162.778 90.5725 162.778 88.6054C162.778 87.753 162.564 87.0864 162.138 86.6055C161.712 86.1137 161.171 85.8678 160.515 85.8678C159.86 85.8678 159.259 86.0099 158.712 86.2941C158.177 86.5673 157.707 86.917 157.302 87.3432C156.439 88.2393 156.007 89.1737 156.007 90.1463C156.007 91.0643 156.27 91.6326 156.794 91.8512C157.013 91.9495 157.122 92.0916 157.122 92.2774C157.122 92.6708 156.931 93.0314 156.548 93.3593C155.838 93.9713 155.237 94.2773 154.745 94.2773C154.253 94.2773 153.854 94.2008 153.548 94.0478C153.242 93.8948 152.98 93.6817 152.762 93.4085C152.335 92.8402 152.122 92.1899 152.122 91.4577C152.122 90.7255 152.221 90.0698 152.417 89.4906C152.614 88.9114 152.887 88.3486 153.237 87.8022C153.598 87.2448 154.029 86.7203 154.532 86.2285C155.046 85.7367 155.614 85.2996 156.237 84.9171C157.57 84.1084 158.871 83.704 160.138 83.704C161.417 83.704 162.411 83.8679 163.122 84.1958C163.843 84.5237 164.422 84.9499 164.859 85.4744C165.668 86.4471 166.072 87.7257 166.072 89.3103C166.072 91.8894 164.892 94.2991 162.532 96.5394C161.657 97.37 160.816 97.9875 160.007 98.3918C160.947 98.6759 161.592 99.4519 161.942 100.72C162.051 101.113 162.105 101.567 162.105 102.08C162.105 102.583 162.013 103.129 161.827 103.719C161.641 104.31 161.379 104.883 161.04 105.441C160.701 105.987 160.286 106.501 159.794 106.982C159.302 107.451 158.75 107.867 158.138 108.227C156.816 108.992 155.384 109.375 153.844 109.375C152.259 109.375 151.024 108.96 150.139 108.129C149.374 107.419 148.991 106.555 148.991 105.539C148.991 104.741 149.243 104.009 149.745 103.342C150.346 102.577 151.128 102.195 152.09 102.195C152.625 102.195 153.008 102.31 153.237 102.539C153.641 102.943 153.74 103.266 153.532 103.506C153.335 103.736 153.161 103.949 153.008 104.146C152.865 104.331 152.745 104.523 152.647 104.719C152.45 105.091 152.352 105.43 152.352 105.736C152.352 106.042 152.379 106.288 152.434 106.473C152.488 106.648 152.576 106.807 152.696 106.949C152.98 107.266 153.417 107.424 154.007 107.424C154.598 107.424 155.171 107.238 155.729 106.867C156.297 106.495 156.794 106.02 157.22 105.441C158.127 104.206 158.581 102.878 158.581 101.457C158.581 100.026 157.985 99.3098 156.794 99.3098L155.221 99.4573Z" fill="white"/>
<path d="M36.075 108.277L35.8636 108.41L35.867 108.415L36.075 108.277ZM35.8619 107.752L35.6126 107.77L35.6127 107.771L35.8619 107.752ZM35.9439 107.211L35.7078 107.128L35.7055 107.136L35.9439 107.211ZM36.239 106.424L36.0073 106.33L36.0063 106.333L36.239 106.424ZM39.5831 95.3756H39.8331V95.3678L39.8326 95.36L39.5831 95.3756ZM39.0421 94.2609L38.8987 94.4657L38.9034 94.4689L39.0421 94.2609ZM38.7142 94.0314L38.5606 94.229L38.5709 94.2362L38.7142 94.0314ZM38.5503 93.6379H38.3003V93.6453L38.3008 93.6526L38.5503 93.6379ZM38.7634 93.0806L38.5694 92.923L38.7634 93.0806ZM39.3208 92.6216L39.2028 92.4011L39.1967 92.4045L39.3208 92.6216ZM41.9272 92.4085L41.8343 92.6406L41.8375 92.6418L41.9272 92.4085ZM42.6485 92.8511L42.8204 92.6696L42.8201 92.6693L42.6485 92.8511ZM43.2714 94.0969H43.0213L43.0215 94.1032L43.2714 94.0969ZM43.1239 95.4247L42.8809 95.3655L42.8797 95.3711L43.1239 95.4247ZM42.7632 96.7525L43.0004 96.8316L43.001 96.8298L42.7632 96.7525ZM42.337 97.982L42.5714 98.069L42.5722 98.0669L42.337 97.982ZM42.0583 98.8344L41.815 98.7771L41.8146 98.7787L42.0583 98.8344ZM41.96 99.5557L41.7159 99.6099L41.8074 100.021L42.1246 99.7438L41.96 99.5557ZM42.4354 98.8836L42.2142 98.767L42.2001 98.7937L42.1928 98.823L42.4354 98.8836ZM43.0747 97.6705L42.8561 97.5491L42.8535 97.554L43.0747 97.6705ZM47.2384 92.5888L47.1124 92.3728L47.1078 92.3757L47.2384 92.5888ZM49.9924 92.8347L49.8029 92.9979L49.8052 93.0005L49.9924 92.8347ZM50.5169 94.1133L50.2669 94.1191L50.2672 94.1249L50.5169 94.1133ZM50.4186 95.2936L50.1775 95.2271L50.176 95.233L50.4186 95.2936ZM50.0579 96.1624L49.8436 96.0338L49.8426 96.0355L50.0579 96.1624ZM48.3531 96.9329L48.1896 97.1221L48.1948 97.1264L48.3531 96.9329ZM47.9925 96.6214L47.8274 96.8092L47.8291 96.8106L47.9925 96.6214ZM45.7303 96.8017L45.5621 96.6167L45.56 96.6187L45.7303 96.8017ZM44.255 98.4902L44.4544 98.6409L44.4553 98.6397L44.255 98.4902ZM40.0257 106.162L39.7924 106.072L39.7919 106.073L40.0257 106.162ZM39.3044 108.063L39.5369 108.155L39.5381 108.152L39.3044 108.063ZM38.8126 109.08L39.0153 109.226L39.0189 109.221L38.8126 109.08ZM37.3373 109.211L37.427 108.978L37.4219 108.976L37.3373 109.211ZM36.7496 108.618C36.5502 108.468 36.3962 108.308 36.283 108.138L35.867 108.415C36.0161 108.639 36.2118 108.839 36.4496 109.018L36.7496 108.618ZM36.2864 108.143C36.1634 107.948 36.1175 107.815 36.1112 107.733L35.6127 107.771C35.6282 107.973 35.7244 108.19 35.8637 108.41L36.2864 108.143ZM36.1113 107.734C36.1033 107.623 36.1225 107.476 36.1823 107.286L35.7055 107.136C35.6341 107.362 35.5987 107.575 35.6126 107.77L36.1113 107.734ZM36.1799 107.294C36.255 107.079 36.3522 106.82 36.4716 106.516L36.0063 106.333C35.8853 106.641 35.7858 106.906 35.7079 107.128L36.1799 107.294ZM36.4706 106.518C37.5868 103.772 38.4259 101.471 38.9863 99.6199C39.545 97.7742 39.8331 96.3541 39.8331 95.3756H39.3331C39.3331 96.2767 39.0638 97.6379 38.5078 99.4751C37.9535 101.306 37.1205 103.591 36.0074 106.33L36.4706 106.518ZM39.8326 95.36C39.7967 94.7856 39.5939 94.3283 39.1808 94.0529L38.9034 94.4689C39.146 94.6306 39.3039 94.9164 39.3335 95.3912L39.8326 95.36ZM39.1855 94.0561L38.8576 93.8266L38.5709 94.2362L38.8987 94.4657L39.1855 94.0561ZM38.8677 93.834C38.8495 93.8198 38.8087 93.773 38.7999 93.6233L38.3008 93.6526C38.3138 93.8744 38.3823 94.0899 38.5608 94.2287L38.8677 93.834ZM38.8003 93.6379C38.8003 93.5069 38.846 93.3754 38.9575 93.2382L38.5694 92.923C38.3967 93.1355 38.3003 93.3756 38.3003 93.6379H38.8003ZM38.9575 93.2382C39.077 93.0911 39.2376 92.9571 39.4448 92.8387L39.1967 92.4045C38.945 92.5484 38.734 92.7204 38.5694 92.923L38.9575 93.2382ZM39.4387 92.8421C39.8754 92.6084 40.3161 92.4946 40.7633 92.4946V91.9946C40.227 91.9946 39.7059 92.1321 39.2029 92.4012L39.4387 92.8421ZM40.7633 92.4946C41.2535 92.4946 41.6045 92.5487 41.8344 92.6406L42.02 92.1764C41.7035 92.0498 41.2785 91.9946 40.7633 91.9946V92.4946ZM41.8375 92.6418C42.095 92.7409 42.3066 92.8721 42.4768 93.0329L42.8201 92.6693C42.597 92.4586 42.3277 92.2947 42.0169 92.1752L41.8375 92.6418ZM42.4765 93.0326C42.8581 93.3941 43.0214 93.7479 43.0214 94.0969H43.5214C43.5214 93.5717 43.2694 93.095 42.8204 92.6696L42.4765 93.0326ZM43.0215 94.1032C43.0318 94.5171 42.9853 94.9377 42.881 95.3655L43.3667 95.484C43.481 95.0157 43.5328 94.551 43.5213 94.0907L43.0215 94.1032ZM42.8797 95.3711C42.7831 95.8112 42.665 96.2459 42.5255 96.6753L43.001 96.8298C43.1456 96.3849 43.2679 95.9344 43.368 95.4783L42.8797 95.3711ZM42.5261 96.6735C42.3846 97.0979 42.2432 97.5057 42.1019 97.8971L42.5722 98.0669C42.715 97.6714 42.8577 97.2596 43.0004 96.8316L42.5261 96.6735ZM42.1027 97.8949C41.9601 98.2788 41.8625 98.5752 41.815 98.7771L42.3017 98.8917C42.3416 98.722 42.4298 98.4502 42.5714 98.069L42.1027 97.8949ZM41.8146 98.7787C41.7701 98.9734 41.7383 99.1372 41.7205 99.2678C41.7042 99.3875 41.6943 99.5125 41.7159 99.6099L42.204 99.5015C42.2051 99.5065 42.2026 99.4969 42.2037 99.4633C42.2047 99.4324 42.2084 99.3903 42.2159 99.3354C42.2309 99.2256 42.2591 99.0779 42.3021 98.8901L41.8146 98.7787ZM42.1246 99.7438C42.4057 99.4979 42.6058 99.2325 42.6779 98.9442L42.1928 98.823C42.1556 98.9718 42.0388 99.1545 41.7954 99.3675L42.1246 99.7438ZM42.6565 99.0001L43.2958 97.7871L42.8535 97.554L42.2142 98.767L42.6565 99.0001ZM43.2932 97.7919C44.7079 95.2455 46.07 93.5981 47.369 92.802L47.1078 92.3757C45.6965 93.2406 44.2829 94.981 42.8561 97.5491L43.2932 97.7919ZM47.3644 92.8048C47.7126 92.6016 48.1372 92.4946 48.6482 92.4946V91.9946C48.0663 91.9946 47.5511 92.117 47.1124 92.3729L47.3644 92.8048ZM48.6482 92.4946C49.1388 92.4946 49.5155 92.664 49.8029 92.9978L50.1818 92.6716C49.7917 92.2186 49.2722 91.9946 48.6482 91.9946V92.4946ZM49.8052 93.0005C50.1085 93.3429 50.2576 93.7136 50.267 94.1191L50.7669 94.1075C50.7544 93.5732 50.5538 93.0915 50.1795 92.669L49.8052 93.0005ZM50.2672 94.1249C50.2883 94.5789 50.2557 94.944 50.1776 95.2271L50.6596 95.3601C50.7563 95.0094 50.7893 94.5876 50.7667 94.1017L50.2672 94.1249ZM50.176 95.233C50.1056 95.5148 49.9949 95.7815 49.8436 96.0338L50.2723 96.291C50.4488 95.9969 50.5786 95.6844 50.6611 95.3542L50.176 95.233ZM49.8426 96.0355C49.5076 96.6039 49.1393 96.8304 48.7465 96.8304V97.3304C49.381 97.3304 49.887 96.9449 50.2733 96.2893L49.8426 96.0355ZM48.7465 96.8304C48.6677 96.8304 48.5914 96.8048 48.5114 96.7394L48.1948 97.1264C48.3552 97.2576 48.5412 97.3304 48.7465 97.3304V96.8304ZM48.5165 96.7437L48.1559 96.4322L47.8291 96.8106L48.1897 97.1221L48.5165 96.7437ZM48.1575 96.4336C47.7701 96.0932 47.364 95.896 46.9433 95.896V96.396C47.2003 96.396 47.4936 96.5158 47.8274 96.8092L48.1575 96.4336ZM46.9433 95.896C46.5156 95.896 46.0501 96.1731 45.5621 96.6167L45.8985 96.9867C46.3722 96.5561 46.7154 96.396 46.9433 96.396V95.896ZM45.56 96.6187C45.0761 97.0688 44.5744 97.6439 44.0546 98.3407L44.4553 98.6397C44.9628 97.9595 45.4446 97.4089 45.9006 96.9848L45.56 96.6187ZM44.0555 98.3394C42.314 100.643 40.8932 103.221 39.7924 106.072L40.2589 106.252C41.3438 103.442 42.7425 100.905 44.4544 98.6409L44.0555 98.3394ZM39.7919 106.073L39.0706 107.975L39.5381 108.152L40.2594 106.251L39.7919 106.073ZM39.0719 107.972C38.8876 108.438 38.7319 108.755 38.6063 108.939L39.0189 109.221C39.1775 108.989 39.3496 108.629 39.5369 108.155L39.0719 107.972ZM38.6099 108.933C38.5233 109.053 38.3928 109.125 38.1733 109.125V109.625C38.522 109.625 38.8177 109.5 39.0153 109.226L38.6099 108.933ZM38.1733 109.125C37.9341 109.125 37.6858 109.077 37.427 108.978L37.2475 109.444C37.557 109.563 37.8661 109.625 38.1733 109.625V109.125ZM37.4219 108.976C37.1707 108.885 36.9471 108.766 36.7496 108.618L36.4496 109.018C36.6893 109.197 36.9574 109.34 37.2526 109.446L37.4219 108.976ZM61.8777 98.7033L62.1187 98.7698L62.2083 98.445L61.8715 98.4533L61.8777 98.7033ZM55.8288 98.9328L55.8132 98.6833L55.6759 98.6918L55.6097 98.8124L55.8288 98.9328ZM54.6649 101.146L54.8882 101.258L54.8885 101.258L54.6649 101.146ZM53.6486 103.162L53.8714 103.275L53.8718 103.275L53.6486 103.162ZM50.0258 108.391L49.8713 108.195L49.8696 108.196L50.0258 108.391ZM45.8293 108.686L45.6248 108.831L45.6327 108.841L45.8293 108.686ZM45.5998 108.162L45.3517 108.193L45.352 108.195L45.5998 108.162ZM45.7146 107.818L45.627 107.583L45.6095 107.59L45.5931 107.599L45.7146 107.818ZM48.78 105.67L48.9735 105.828L48.9754 105.826L48.78 105.67ZM50.8454 102.506L50.6273 102.384L50.6266 102.385L50.8454 102.506ZM52.6978 99.195L52.916 99.3171L53.1627 98.8761L52.6625 98.9476L52.6978 99.195ZM51.6651 99.3426L51.6297 99.0949L51.62 99.0967L51.6651 99.3426ZM51.2716 98.0967L51.1222 97.8964L51.1216 97.8967L51.2716 98.0967ZM53.2879 97.0804L53.2313 96.8369L53.2273 96.8379L53.2879 97.0804ZM53.9928 96.9165L54.0495 97.16L54.1521 97.1361L54.2067 97.0459L53.9928 96.9165ZM58.091 90.7037L57.8963 90.5468L57.8954 90.5479L58.091 90.7037ZM60.681 87.753L60.5042 87.5762L60.503 87.5775L60.681 87.753ZM63.1563 85.6711L63.0146 85.4652L63.0135 85.466L63.1563 85.6711ZM69.8773 84.0647L69.6874 84.2274L69.6923 84.2328L69.8773 84.0647ZM70.1887 85.2285L70.4284 85.2998L70.4289 85.298L70.1887 85.2285ZM69.5986 86.9825L69.8333 87.0687L69.834 87.0666L69.5986 86.9825ZM66.402 95.8346L66.1651 95.7548L66.0465 96.1073L66.4176 96.0841L66.402 95.8346ZM69.2052 96.1788L69.4456 96.1101L69.4431 96.1017L69.4401 96.0934L69.2052 96.1788ZM69.0412 97.2935L68.8175 97.1816L68.814 97.1893L69.0412 97.2935ZM68.4347 97.9656L68.2979 97.7563L68.2943 97.7588L68.4347 97.9656ZM65.5168 98.6541L65.5049 98.4044L65.3264 98.4129L65.2767 98.5846L65.5168 98.6541ZM64.2382 103.982L63.9897 103.954L63.9895 103.957L64.2382 103.982ZM64.3366 105.982L64.11 106.088L64.1144 106.096L64.3366 105.982ZM65.8283 106.408L65.8953 106.649L65.9074 106.645L65.8283 106.408ZM66.3529 106.195L66.248 105.968L66.2411 105.971L66.3529 106.195ZM66.7791 105.998L66.8838 106.225L66.8961 106.219L66.9077 106.212L66.7791 105.998ZM67.402 106.129L67.1783 106.241L67.1819 106.248L67.402 106.129ZM67.2053 107.572L66.9921 107.441L66.9909 107.443L67.2053 107.572ZM60.8777 107.408L61.1118 107.32L61.1113 107.319L60.8777 107.408ZM57.3369 96.3427L57.1213 96.2163L56.8634 96.656L57.369 96.5907L57.3369 96.3427ZM62.7465 95.9001L62.7531 96.15L62.9295 96.1454L62.9842 95.9775L62.7465 95.9001ZM63.73 93.1134L63.4969 93.0231L63.4964 93.0244L63.73 93.1134ZM64.7464 90.4906L64.5159 90.3935L64.5133 90.4002L64.7464 90.4906ZM65.7791 88.13L65.553 88.0234L65.5516 88.0263L65.7791 88.13ZM66.7299 86.1137L66.956 86.2204L67.1836 85.7376L66.6671 85.8718L66.7299 86.1137ZM59.9925 91.9987L60.2 92.1381L60.2006 92.1372L59.9925 91.9987ZM58.6155 94.1625L58.4014 94.0334L58.3999 94.036L58.6155 94.1625ZM60.8654 105.49C60.8654 104.05 61.2779 101.816 62.1187 98.7698L61.6367 98.6368C60.7944 101.689 60.3654 103.978 60.3654 105.49H60.8654ZM61.8715 98.4533C59.2368 98.5189 57.2168 98.5955 55.8132 98.6833L55.8444 99.1823C57.2385 99.0951 59.2511 99.0187 61.8839 98.9532L61.8715 98.4533ZM55.6097 98.8124C55.1821 99.5908 54.7926 100.331 54.4413 101.034L54.8885 101.258C55.2366 100.561 55.6231 99.8266 56.0479 99.0531L55.6097 98.8124ZM54.4417 101.033L53.4253 103.05L53.8718 103.275L54.8882 101.258L54.4417 101.033ZM53.4257 103.049C52.083 105.69 50.8959 107.39 49.8714 108.195L50.1803 108.588C51.2977 107.71 52.5257 105.923 53.8714 103.275L53.4257 103.049ZM49.8696 108.196C49.0876 108.822 48.2726 109.125 47.4194 109.125V109.625C48.4021 109.625 49.3247 109.272 50.182 108.587L49.8696 108.196ZM47.4194 109.125C46.7797 109.125 46.3295 108.918 46.0259 108.532L45.6327 108.841C46.0503 109.372 46.6602 109.625 47.4194 109.625V109.125ZM46.0335 108.542C45.9174 108.378 45.8625 108.241 45.8476 108.129L45.352 108.195C45.3808 108.411 45.4789 108.624 45.6251 108.831L46.0335 108.542ZM45.8479 108.131C45.8396 108.065 45.8461 108.033 45.8493 108.024C45.8504 108.02 45.8503 108.022 45.8467 108.027C45.8428 108.031 45.8385 108.035 45.836 108.036L45.5931 107.599C45.3595 107.729 45.3254 107.982 45.3517 108.193L45.8479 108.131ZM45.8021 108.052C47.0969 107.568 48.1564 106.827 48.9735 105.828L48.5865 105.512C47.8298 106.437 46.8458 107.128 45.627 107.583L45.8021 108.052ZM48.9754 105.826C49.6748 104.949 50.3708 103.882 51.0643 102.627L50.6266 102.385C49.9431 103.622 49.2622 104.664 48.5845 105.514L48.9754 105.826ZM51.0636 102.628L52.916 99.3171L52.4796 99.073L50.6273 102.384L51.0636 102.628ZM52.6625 98.9476L51.6297 99.0951L51.7004 99.5901L52.7332 99.4425L52.6625 98.9476ZM51.62 99.0967C51.3013 99.1551 51.106 99.1492 51.0029 99.1165C50.9569 99.102 50.9444 99.0868 50.9421 99.0838C50.9406 99.0818 50.9315 99.0702 50.9315 99.0311H50.4315C50.4315 99.1559 50.4634 99.2802 50.5439 99.3862C50.6236 99.4911 50.734 99.5559 50.8519 99.5932C51.0766 99.6644 51.3732 99.6503 51.7102 99.5885L51.62 99.0967ZM50.9315 99.0311C50.9315 98.8153 51.0586 98.5691 51.4216 98.2967L51.1216 97.8967C50.6979 98.2146 50.4315 98.5912 50.4315 99.0311H50.9315ZM51.4211 98.2971C52.09 97.7981 52.7324 97.477 53.3486 97.3229L53.2273 96.8379C52.5321 97.0117 51.8303 97.3681 51.1222 97.8964L51.4211 98.2971ZM53.3446 97.3239L54.0495 97.16L53.9362 96.673L53.2313 96.8369L53.3446 97.3239ZM54.2067 97.0459C55.9987 94.0848 57.3576 92.026 58.2865 90.8594L57.8954 90.5479C56.9447 91.7419 55.5715 93.8249 53.7789 96.787L54.2067 97.0459ZM58.2857 90.8605C59.233 89.6845 60.0907 88.7077 60.859 87.9285L60.503 87.5775C59.7195 88.372 58.8505 89.3623 57.8963 90.5468L58.2857 90.8605ZM60.8578 87.9298C61.6348 87.1528 62.4486 86.4685 63.2991 85.8763L63.0135 85.466C62.1373 86.0759 61.3009 86.7795 60.5042 87.5762L60.8578 87.9298ZM63.298 85.8771C65.1574 84.5981 66.9722 83.9704 68.7462 83.9704V83.4704C66.8482 83.4704 64.9364 84.1432 63.0146 85.4652L63.298 85.8771ZM68.7462 83.9704C69.2875 83.9704 69.5658 84.0854 69.6875 84.2274L70.0671 83.902C69.7954 83.5849 69.3196 83.4704 68.7462 83.4704V83.9704ZM69.6923 84.2328C69.9706 84.5389 70.0412 84.8391 69.9486 85.159L70.4289 85.298C70.5767 84.7874 70.4397 84.3117 70.0623 83.8965L69.6923 84.2328ZM69.9491 85.1573C69.8309 85.555 69.636 86.1346 69.3632 86.8985L69.834 87.0666C70.1076 86.3005 70.3062 85.7107 70.4284 85.2998L69.9491 85.1573ZM69.3639 86.8964C67.6158 91.6599 66.5489 94.6143 66.1651 95.7548L66.639 95.9143C67.0201 94.7817 68.0843 91.8348 69.8333 87.0687L69.3639 86.8964ZM66.4176 96.0841C66.5884 96.0734 66.7416 96.0682 66.8774 96.0682V95.5682C66.7291 95.5682 66.5653 95.5739 66.3864 95.585L66.4176 96.0841ZM66.8774 96.0682H67.2381V95.5682H66.8774V96.0682ZM67.2381 96.0682C67.8452 96.0682 68.2973 96.0982 68.6027 96.1542C68.7563 96.1824 68.8599 96.2149 68.9239 96.2459C68.9926 96.2793 68.9809 96.2935 68.9702 96.2642L69.4401 96.0934C69.3858 95.9439 69.2593 95.8529 69.1422 95.7961C69.0205 95.737 68.8672 95.6944 68.6929 95.6624C68.3427 95.5982 67.8549 95.5682 67.2381 95.5682V96.0682ZM68.9648 96.2475C68.9758 96.286 68.988 96.3949 68.988 96.605H69.488C69.488 96.3998 69.4783 96.2246 69.4456 96.1101L68.9648 96.2475ZM68.988 96.605C68.988 96.7486 68.9392 96.9385 68.8176 97.1817L69.2649 97.4053C69.4055 97.1239 69.488 96.8549 69.488 96.605H68.988ZM68.814 97.1893C68.7167 97.4017 68.5497 97.5917 68.2979 97.7564L68.5715 98.1748C68.8881 97.9679 69.1254 97.7099 69.2685 97.3977L68.814 97.1893ZM68.2943 97.7588C67.7749 98.1116 66.8613 98.3393 65.5049 98.4044L65.5288 98.9038C66.9045 98.8378 67.9362 98.6064 68.5752 98.1724L68.2943 97.7588ZM65.2767 98.5846C64.5341 101.151 64.1017 102.946 63.9897 103.954L64.4867 104.009C64.5933 103.05 65.0133 101.294 65.757 98.7236L65.2767 98.5846ZM63.9895 103.957C63.9396 104.456 63.9221 104.882 63.9393 105.232C63.9563 105.577 64.0079 105.869 64.1102 106.088L64.5629 105.875C64.5013 105.744 64.4545 105.528 64.4387 105.207C64.4232 104.89 64.4385 104.491 64.487 104.007L63.9895 103.957ZM64.1144 106.096C64.3196 106.494 64.6338 106.74 65.0578 106.74V106.24C64.8699 106.24 64.7032 106.147 64.5587 105.867L64.1144 106.096ZM65.0578 106.74C65.3864 106.74 65.6682 106.712 65.8952 106.649L65.7614 106.167C65.595 106.213 65.3631 106.24 65.0578 106.24V106.74ZM65.9074 106.645C66.113 106.576 66.2991 106.501 66.4647 106.418L66.2411 105.971C66.1006 106.041 65.937 106.108 65.7492 106.171L65.9074 106.645ZM66.4576 106.422L66.8838 106.225L66.6743 105.771L66.2481 105.968L66.4576 106.422ZM66.9077 106.212C66.9847 106.166 67.05 106.15 67.1069 106.15V105.65C66.9453 105.65 66.792 105.699 66.6504 105.784L66.9077 106.212ZM67.1069 106.15C67.1086 106.15 67.1096 106.15 67.1099 106.15C67.1102 106.15 67.1103 106.15 67.1104 106.15C67.1105 106.15 67.111 106.15 67.112 106.151C67.113 106.151 67.1148 106.152 67.1174 106.154C67.1282 106.163 67.151 106.186 67.1784 106.241L67.6256 106.017C67.5272 105.82 67.3602 105.65 67.1069 105.65V106.15ZM67.1819 106.248C67.2315 106.34 67.2667 106.485 67.2667 106.703H67.7667C67.7667 106.44 67.7255 106.203 67.6221 106.011L67.1819 106.248ZM67.2667 106.703C67.2667 106.876 67.1897 107.119 66.9921 107.441L67.4184 107.702C67.6361 107.347 67.7667 107.01 67.7667 106.703H67.2667ZM66.9909 107.443C66.8109 107.743 66.5692 108.016 66.2623 108.262L66.5746 108.652C66.9234 108.373 67.2062 108.056 67.4196 107.7L66.9909 107.443ZM66.2623 108.262C65.5407 108.839 64.7322 109.125 63.8284 109.125V109.625C64.848 109.625 65.7662 109.299 66.5746 108.652L66.2623 108.262ZM63.8284 109.125C63.1278 109.125 62.5645 108.969 62.1229 108.675C61.6824 108.381 61.3428 107.936 61.1118 107.32L60.6436 107.496C60.9044 108.191 61.3025 108.729 61.8456 109.091C62.3875 109.452 63.0536 109.625 63.8284 109.625V109.125ZM61.1113 107.319C60.9437 106.879 60.8654 106.5 60.8654 106.178H60.3654C60.3654 106.578 60.4621 107.019 60.6441 107.497L61.1113 107.319ZM60.8654 106.178V105.49H60.3654V106.178H60.8654ZM57.369 96.5907C59.3072 96.3402 61.1018 96.1935 62.7531 96.15L62.7399 95.6502C61.0689 95.6942 59.2571 95.8425 57.3049 96.0948L57.369 96.5907ZM62.9842 95.9775C63.2889 95.0416 63.6154 94.1165 63.9637 93.2024L63.4964 93.0244C63.1452 93.9462 62.816 94.879 62.5088 95.8227L62.9842 95.9775ZM63.9632 93.2037L64.9795 90.5809L64.5133 90.4002L63.4969 93.0231L63.9632 93.2037ZM64.9768 90.5876C65.3257 89.759 65.6689 88.9744 66.0066 88.2337L65.5516 88.0263C65.2118 88.7719 64.8665 89.561 64.516 90.3936L64.9768 90.5876ZM66.0052 88.2367L66.956 86.2204L66.5038 86.0071L65.553 88.0234L66.0052 88.2367ZM66.6671 85.8718C64.3047 86.4851 62.0148 88.5091 59.7844 91.8602L60.2006 92.1372C62.4072 88.822 64.6089 86.9227 66.7927 86.3557L66.6671 85.8718ZM59.785 91.8593C59.3127 92.5622 58.8516 93.2869 58.4014 94.0334L58.8296 94.2916C59.2757 93.5519 59.7325 92.834 60.2 92.1381L59.785 91.8593ZM58.3999 94.036L57.1213 96.2163L57.5526 96.4692L58.8312 94.289L58.3999 94.036ZM84.8444 108.686L84.7015 108.481L84.6994 108.483L84.8444 108.686ZM80.7298 108.555L80.5471 108.726L80.5496 108.729L80.7298 108.555ZM79.943 104.752L80.1893 104.795L79.7332 104.616L79.943 104.752ZM77.6644 107.637L77.4993 107.449L77.4966 107.452L77.6644 107.637ZM70.1074 106.752L69.8707 106.832L69.871 106.833L70.1074 106.752ZM70.2222 101.375L69.9825 101.304L70.2222 101.375ZM71.4188 98.5393L71.2019 98.415L71.2008 98.417L71.4188 98.5393ZM73.1892 96.0477L73.0009 95.8832L73.0008 95.8834L73.1892 96.0477ZM75.3203 94.0314L75.1707 93.831L75.1684 93.8328L75.3203 94.0314ZM82.7461 93.8183L82.5451 93.9669L82.8449 94.3722L82.9861 93.8883L82.7461 93.8183ZM87.041 82.2943L86.8496 82.1333L86.8479 82.1355L87.041 82.2943ZM90.0081 82.2123L90.199 82.0507L90.1941 82.0453L90.0081 82.2123ZM89.1556 85.2777L88.9233 85.1854L88.9219 85.1892L89.1556 85.2777ZM87.1066 90.9168L86.8692 90.8384L86.8691 90.8385L87.1066 90.9168ZM85.0739 97.2115L84.8347 97.1387L84.8343 97.1403L85.0739 97.2115ZM84.1723 100.244L83.9326 100.173L83.932 100.175L84.1723 100.244ZM84.9919 106.293L85.0935 106.522L85.0989 106.519L84.9919 106.293ZM85.6148 105.998L85.7219 106.224L85.7283 106.221L85.7346 106.217L85.6148 105.998ZM78.566 103.621L78.3582 103.482L78.3575 103.483L78.566 103.621ZM81.7462 96.1952L81.9901 96.25L81.9978 96.2156L81.9958 96.1805L81.7462 96.1952ZM80.8118 94.5559L80.6814 94.7693L80.6826 94.77L80.8118 94.5559ZM78.5168 94.8182L78.6359 95.038L78.6375 95.0372L78.5168 94.8182ZM76.9759 95.9821L76.8011 95.8034L76.7992 95.8053L76.9759 95.9821ZM75.5826 97.7197L75.3735 97.5826L75.3729 97.5835L75.5826 97.7197ZM74.4679 99.818L74.2379 99.7199L74.2378 99.72L74.4679 99.818ZM85.9591 106.15C86.0323 106.15 86.042 106.168 86.0364 106.162C86.033 106.159 86.0533 106.176 86.0533 106.26H86.5533C86.5533 106.104 86.5163 105.941 86.3981 105.817C86.2778 105.691 86.1154 105.65 85.9591 105.65V106.15ZM86.0533 106.26C86.0533 107.097 85.6267 107.837 84.7015 108.481L84.9873 108.892C86.0074 108.181 86.5533 107.303 86.5533 106.26H86.0533ZM84.6994 108.483C84.0818 108.922 83.5197 109.125 83.0084 109.125V109.625C83.6555 109.625 84.3174 109.368 84.9894 108.89L84.6994 108.483ZM83.0084 109.125C82.4555 109.125 82.0365 109.061 81.7381 108.945L81.5576 109.411C81.9367 109.558 82.4247 109.625 83.0084 109.625V109.125ZM81.7381 108.945C81.4361 108.828 81.1602 108.642 80.9101 108.382L80.5496 108.729C80.8459 109.037 81.182 109.266 81.5576 109.411L81.7381 108.945ZM80.9126 108.385C80.3549 107.787 80.0619 106.953 80.0619 105.85H79.5619C79.5619 107.043 79.8808 108.012 80.5471 108.726L80.9126 108.385ZM80.0619 105.85C80.0619 105.644 80.1021 105.296 80.1893 104.795L79.6967 104.709C79.609 105.213 79.5619 105.598 79.5619 105.85H80.0619ZM79.7332 104.616C78.8512 105.977 78.1067 106.915 77.4993 107.45L77.8295 107.825C78.4899 107.244 79.2644 106.259 80.1528 104.888L79.7332 104.616ZM77.4966 107.452C76.2451 108.586 75.0511 109.125 73.9105 109.125V109.625C75.2179 109.625 76.5265 109.006 77.8323 107.823L77.4966 107.452ZM73.9105 109.125C72.981 109.125 72.2335 108.915 71.6509 108.513C71.0693 108.112 70.6306 107.505 70.3438 106.671L69.871 106.833C70.1853 107.748 70.6809 108.452 71.3671 108.925C72.0522 109.397 72.9057 109.625 73.9105 109.625V109.125ZM70.3442 106.672C70.1373 106.061 70.0296 105.282 70.0296 104.326H69.5296C69.5296 105.315 69.6404 106.153 69.8707 106.832L70.3442 106.672ZM70.0296 104.326C70.0296 103.379 70.1732 102.419 70.4618 101.446L69.9825 101.304C69.681 102.32 69.5296 103.328 69.5296 104.326H70.0296ZM70.4618 101.446C70.7517 100.47 71.1433 99.5414 71.6369 98.6617L71.2008 98.417C70.6889 99.3295 70.2828 100.292 69.9825 101.304L70.4618 101.446ZM71.6357 98.6637C72.1414 97.7815 72.722 96.9643 73.3777 96.2119L73.0008 95.8834C72.3232 96.661 71.7236 97.5049 71.2019 98.415L71.6357 98.6637ZM73.3775 96.2121C74.0452 95.4475 74.7435 94.7871 75.4721 94.23L75.1684 93.8328C74.4108 94.4122 73.6884 95.096 73.0009 95.8832L73.3775 96.2121ZM75.4698 94.2317C77.0443 93.0563 78.4345 92.4946 79.6479 92.4946V91.9946C78.2822 91.9946 76.7874 92.6241 75.1707 93.831L75.4698 94.2317ZM79.6479 92.4946C80.8571 92.4946 81.8157 92.9806 82.5451 93.9669L82.9471 93.6696C82.1247 92.5576 81.0179 91.9946 79.6479 91.9946V92.4946ZM82.9861 93.8883C83.9361 90.6343 84.7675 88.0521 85.4803 86.1396C86.1976 84.2149 86.7835 83.0009 87.2341 82.4531L86.8479 82.1355C86.3368 82.757 85.7261 84.0483 85.0117 85.965C84.2929 87.8938 83.4577 90.4889 82.5062 93.7482L82.9861 93.8883ZM87.2323 82.4552C87.6091 82.0071 87.9716 81.823 88.3196 81.823V81.323C87.7716 81.323 87.2816 81.6197 86.8497 82.1334L87.2323 82.4552ZM88.3196 81.823C89.0142 81.823 89.5001 82.0206 89.822 82.3793L90.1941 82.0453C89.7511 81.5516 89.1113 81.323 88.3196 81.323V81.823ZM89.8172 82.3738C89.9112 82.4849 89.9384 82.5718 89.9384 82.6385H90.4384C90.4384 82.421 90.3453 82.2238 90.1989 82.0508L89.8172 82.3738ZM89.9384 82.6385C89.9384 82.6679 89.9273 82.7377 89.8856 82.8627C89.8458 82.9822 89.7841 83.1346 89.6987 83.3214L90.1535 83.5293C90.2429 83.3336 90.3124 83.1636 90.36 83.0208C90.4057 82.8835 90.4384 82.7512 90.4384 82.6385H89.9384ZM89.6987 83.3214C89.5211 83.71 89.2623 84.3325 88.9233 85.1854L89.388 85.37C89.7266 84.5181 89.9814 83.9056 90.1535 83.5293L89.6987 83.3214ZM88.9219 85.1892C87.9491 87.7577 87.2644 89.6417 86.8692 90.8384L87.344 90.9952C87.7356 89.8095 88.417 87.934 89.3894 85.3663L88.9219 85.1892ZM86.8691 90.8385C85.8638 93.8873 85.1854 95.9881 84.8347 97.1387L85.313 97.2844C85.6618 96.14 86.3385 94.0443 87.344 90.9951L86.8691 90.8385ZM84.8343 97.1403L83.9327 100.173L84.4119 100.315L85.3135 97.2828L84.8343 97.1403ZM83.932 100.175C83.5434 101.527 83.251 102.636 83.0555 103.5C82.8616 104.358 82.7584 104.995 82.7584 105.391H83.2584C83.2584 105.056 83.3492 104.469 83.5432 103.611C83.7357 102.759 84.0252 101.661 84.4126 100.313L83.932 100.175ZM82.7584 105.391C82.7584 105.781 82.8283 106.118 83.0074 106.363C83.1973 106.622 83.4805 106.74 83.8117 106.74V106.24C83.6073 106.24 83.4889 106.174 83.411 106.068C83.3225 105.947 83.2584 105.734 83.2584 105.391H82.7584ZM83.8117 106.74C84.3219 106.74 84.7542 106.672 85.0935 106.522L84.8904 106.065C84.6396 106.176 84.285 106.24 83.8117 106.24V106.74ZM85.0989 106.519L85.7219 106.224L85.5078 105.772L84.8849 106.067L85.0989 106.519ZM85.7346 106.217C85.8272 106.167 85.9009 106.15 85.9591 106.15V105.65C85.7987 105.65 85.6429 105.698 85.4951 105.779L85.7346 106.217ZM74.6974 107.166C75.3432 107.166 76.0029 106.851 76.6708 106.283C77.3405 105.712 78.0412 104.867 78.7745 103.759L78.3575 103.483C77.6374 104.571 76.9666 105.374 76.3466 105.902C75.7251 106.431 75.1771 106.666 74.6974 106.666V107.166ZM78.7739 103.76C80.3101 101.461 81.3823 98.9573 81.9901 96.25L81.5023 96.1404C80.9079 98.788 79.86 101.235 78.3582 103.482L78.7739 103.76ZM81.9958 96.1805C81.9478 95.3648 81.5986 94.739 80.941 94.3419L80.6826 94.77C81.1834 95.0723 81.4572 95.5393 81.4966 96.2099L81.9958 96.1805ZM80.9422 94.3426C80.6866 94.1864 80.3303 94.1256 79.9102 94.1256V94.6256C80.2988 94.6256 80.5436 94.685 80.6814 94.7693L80.9422 94.3426ZM79.9102 94.1256C79.4575 94.1256 78.95 94.2941 78.3962 94.5993L78.6375 95.0372C79.1546 94.7522 79.5761 94.6256 79.9102 94.6256V94.1256ZM78.3978 94.5984C77.8495 94.8953 77.3175 95.2982 76.8011 95.8034L77.1508 96.1608C77.6398 95.6824 78.135 95.3094 78.6359 95.038L78.3978 94.5984ZM76.7992 95.8053C76.2937 96.3108 75.8187 96.9037 75.3735 97.5826L75.7916 97.8568C76.2207 97.2024 76.6746 96.637 77.1527 96.1589L76.7992 95.8053ZM75.3729 97.5835C74.9386 98.2517 74.5603 98.9639 74.2379 99.7199L74.6978 99.916C75.0093 99.1858 75.3741 98.4992 75.7922 97.856L75.3729 97.5835ZM74.2378 99.72C73.5378 101.365 73.1851 102.988 73.1851 104.588H73.6851C73.6851 103.063 74.0209 101.506 74.6979 99.9159L74.2378 99.72ZM73.1851 104.588C73.1851 105.379 73.2909 106.011 73.5309 106.453C73.653 106.678 73.8125 106.859 74.0142 106.983C74.2165 107.108 74.4472 107.166 74.6974 107.166V106.666C74.5268 106.666 74.3893 106.627 74.2761 106.558C74.1622 106.487 74.0588 106.378 73.9705 106.215C73.7898 105.882 73.6851 105.35 73.6851 104.588H73.1851ZM102.565 106.129L102.46 105.903L102.457 105.904L102.565 106.129ZM102.09 108.686L102.231 108.893L102.232 108.892L102.09 108.686ZM98.9099 109.211L98.8265 109.447L98.8309 109.448L98.9099 109.211ZM97.3362 107.588L97.1028 107.678L97.1047 107.682L97.3362 107.588ZM97.2543 104.621L97.5006 104.663L97.0297 104.511L97.2543 104.621ZM93.4676 108.916L93.581 109.139L93.5832 109.138L93.4676 108.916ZM89.7792 108.965L89.6541 109.182L89.6598 109.185L89.7792 108.965ZM88.517 107.801L88.3113 107.943L88.3133 107.946L88.517 107.801ZM87.5498 103.933L87.7996 103.943L87.7997 103.941L87.5498 103.933ZM89.2711 98.2115L89.4874 98.3368L89.4884 98.3351L89.2711 98.2115ZM93.0414 93.933L93.1883 94.1353L93.1902 94.1339L93.0414 93.933ZM100.5 94.0642L100.292 94.2028L100.507 94.5259L100.712 94.1961L100.5 94.0642ZM103.91 92.5888L104.057 92.3866L104.056 92.3863L103.91 92.5888ZM104.549 93.7363L104.328 93.6186L104.324 93.6266L104.549 93.7363ZM100.32 104.228L100.569 104.255L100.569 104.241L100.32 104.228ZM94.8282 105.244L95.0177 105.407L95.018 105.407L94.8282 105.244ZM98.4837 98.7524L98.2514 98.6601L98.2508 98.6617L98.4837 98.7524ZM99.3361 96.1952L99.5775 96.2602L99.5881 96.221L99.5857 96.1805L99.3361 96.1952ZM98.4017 94.5559L98.2714 94.7693L98.2725 94.77L98.4017 94.5559ZM96.156 94.8018L96.0369 94.582L96.0349 94.5831L96.156 94.8018ZM94.6478 95.9657L94.471 95.7889L94.4691 95.7909L94.6478 95.9657ZM93.2872 97.7197L93.0756 97.5866L93.0751 97.5875L93.2872 97.7197ZM92.1889 99.8999L91.957 99.8065L91.9565 99.8079L92.1889 99.8999ZM100.037 104.851C100.037 105.375 100.128 105.813 100.349 106.126C100.581 106.454 100.93 106.609 101.352 106.609V106.109C101.064 106.109 100.88 106.011 100.757 105.837C100.623 105.647 100.537 105.331 100.537 104.851H100.037ZM101.352 106.609C101.868 106.609 102.313 106.529 102.674 106.354L102.457 105.904C102.184 106.035 101.821 106.109 101.352 106.109V106.609ZM102.671 106.356C102.831 106.281 102.96 106.227 103.058 106.193C103.107 106.176 103.146 106.164 103.176 106.157C103.19 106.154 103.202 106.152 103.21 106.151C103.218 106.15 103.222 106.15 103.221 106.15V105.65C103.122 105.65 103.006 105.682 102.893 105.721C102.772 105.763 102.628 105.824 102.46 105.903L102.671 106.356ZM103.221 106.15C103.294 106.15 103.304 106.168 103.299 106.162C103.295 106.159 103.315 106.176 103.315 106.26H103.815C103.815 106.104 103.778 105.941 103.66 105.817C103.54 105.691 103.377 105.65 103.221 105.65V106.15ZM103.315 106.26C103.315 107.096 102.885 107.835 101.948 108.48L102.232 108.892C103.263 108.182 103.815 107.304 103.815 106.26H103.315ZM101.949 108.48C100.968 109.151 99.9883 109.307 98.989 108.974L98.8309 109.448C99.9953 109.836 101.136 109.642 102.231 108.893L101.949 108.48ZM98.9933 108.975C98.3631 108.752 97.8852 108.272 97.5677 107.494L97.1047 107.682C97.4649 108.565 98.0361 109.167 98.8265 109.447L98.9933 108.975ZM97.5696 107.498C97.4135 107.092 97.3403 106.735 97.3403 106.424H96.8403C96.8403 106.812 96.9311 107.231 97.1029 107.678L97.5696 107.498ZM97.3403 106.424C97.3403 105.872 97.3934 105.285 97.5006 104.663L97.0079 104.579C96.8965 105.225 96.8403 105.84 96.8403 106.424H97.3403ZM97.0297 104.511C96.0285 106.557 94.7984 107.94 93.3519 108.694L93.5832 109.138C95.153 108.319 96.4473 106.838 97.4788 104.731L97.0297 104.511ZM93.3541 108.693C92.7884 108.981 92.188 109.125 91.5496 109.125V109.625C92.2664 109.625 92.9446 109.463 93.581 109.139L93.3541 108.693ZM91.5496 109.125C90.9061 109.125 90.3585 108.995 89.8986 108.745L89.6598 109.185C90.2054 109.481 90.838 109.625 91.5496 109.625V109.125ZM89.9043 108.749C89.4455 108.483 89.051 108.121 88.7207 107.656L88.3133 107.946C88.6824 108.465 89.1294 108.878 89.6542 109.182L89.9043 108.749ZM88.7226 107.659C88.0501 106.686 87.7358 105.454 87.7996 103.943L87.3001 103.922C87.2328 105.515 87.5632 106.861 88.3114 107.943L88.7226 107.659ZM87.7997 103.941C87.8637 102.041 88.4238 100.174 89.4874 98.3367L89.0547 98.0862C87.9545 99.9866 87.3671 101.933 87.3 103.924L87.7997 103.941ZM89.4884 98.3351C90.4665 96.6152 91.7001 95.2167 93.1883 94.1353L92.8944 93.7308C91.3446 94.8569 90.0645 96.3107 89.0537 98.0879L89.4884 98.3351ZM93.1902 94.1339C94.6841 93.0269 96.0534 92.4946 97.3034 92.4946V91.9946C95.9088 91.9946 94.4367 92.5879 92.8925 93.7322L93.1902 94.1339ZM97.3034 92.4946C98.5326 92.4946 99.524 93.0509 100.292 94.2028L100.708 93.9255C99.8585 92.6513 98.719 91.9946 97.3034 91.9946V92.4946ZM100.712 94.1961C101.083 93.5992 101.424 93.1658 101.734 92.8844C102.046 92.6006 102.299 92.4946 102.5 92.4946V91.9946C102.121 91.9946 101.752 92.1918 101.397 92.5146C101.04 92.8397 100.671 93.3161 100.288 93.9322L100.712 94.1961ZM102.5 92.4946C103.099 92.4946 103.507 92.6061 103.763 92.7913L104.056 92.3863C103.678 92.1125 103.147 91.9946 102.5 91.9946V92.4946ZM103.763 92.791C104.052 93.0011 104.221 93.1804 104.302 93.3252C104.376 93.4576 104.368 93.544 104.328 93.6187L104.77 93.854C104.905 93.6007 104.878 93.3319 104.739 93.0819C104.606 92.8442 104.369 92.6137 104.057 92.3866L103.763 92.791ZM104.324 93.6266C102.952 96.4376 101.911 98.7221 101.203 100.479C100.499 102.223 100.111 103.478 100.07 104.214L100.569 104.241C100.605 103.6 100.96 102.418 101.666 100.665C102.368 98.9248 103.403 96.6522 104.774 93.846L104.324 93.6266ZM100.071 104.2C100.048 104.407 100.037 104.624 100.037 104.851H100.537C100.537 104.64 100.547 104.442 100.568 104.255L100.071 104.2ZM90.939 104.916C90.939 105.59 91.0457 106.139 91.2941 106.526C91.5547 106.933 91.9535 107.133 92.4512 107.133V106.633C92.1075 106.633 91.8751 106.506 91.715 106.256C91.5426 105.988 91.439 105.553 91.439 104.916H90.939ZM92.4512 107.133C92.8436 107.133 93.2525 106.968 93.671 106.679C94.0912 106.389 94.54 105.962 95.0177 105.407L94.6386 105.081C94.1765 105.618 93.7592 106.011 93.3871 106.268C93.0133 106.525 92.7036 106.633 92.4512 106.633V107.133ZM95.018 105.407C96.4188 103.772 97.65 101.581 98.7167 98.8432L98.2508 98.6617C97.1973 101.366 95.9915 103.503 94.6383 105.081L95.018 105.407ZM98.716 98.8448C99.0582 97.9838 99.3454 97.1222 99.5775 96.2602L99.0947 96.1302C98.8678 96.973 98.5868 97.8163 98.2514 98.6601L98.716 98.8448ZM99.5857 96.1805C99.5377 95.3648 99.1886 94.739 98.531 94.3419L98.2725 94.77C98.7733 95.0723 99.0471 95.5393 99.0866 96.2099L99.5857 96.1805ZM98.5321 94.3426C98.2773 94.1869 97.9273 94.1256 97.5165 94.1256V94.6256C97.8926 94.6256 98.1327 94.6845 98.2714 94.7693L98.5321 94.3426ZM97.5165 94.1256C97.0755 94.1256 96.5795 94.2881 96.0369 94.582L96.275 95.0216C96.7816 94.7473 97.1926 94.6256 97.5165 94.6256V94.1256ZM96.0349 94.5831C95.4975 94.8804 94.9764 95.2836 94.4711 95.7889L94.8246 96.1425C95.3028 95.6643 95.7872 95.2915 96.277 95.0206L96.0349 94.5831ZM94.4691 95.7909C93.974 96.2972 93.5098 96.8964 93.0756 97.5866L93.4989 97.8528C93.9171 97.1879 94.36 96.6177 94.8266 96.1405L94.4691 95.7909ZM93.0751 97.5875C92.6515 98.2674 92.279 99.0073 91.957 99.8065L92.4208 99.9933C92.7328 99.2189 93.0924 98.5053 93.4994 97.8519L93.0751 97.5875ZM91.9565 99.8079C91.2793 101.518 90.939 103.221 90.939 104.916H91.439C91.439 103.289 91.7653 101.648 92.4214 99.992L91.9565 99.8079ZM114.041 98.0967L113.857 97.9278L113.853 97.9318L114.041 98.0967ZM111.303 101.326L111.5 101.481L111.5 101.481L111.303 101.326ZM109.828 103.195L109.632 103.04L109.618 103.058L109.607 103.078L109.828 103.195ZM108.336 106.195L108.563 106.3L108.564 106.298L108.336 106.195ZM107.451 108.096L107.676 108.206L107.678 108.202L107.451 108.096ZM106.845 109.096L106.658 108.93L106.657 108.931L106.845 109.096ZM105.32 109.211L105.413 108.979L105.408 108.977L105.32 109.211ZM104.632 108.818L104.471 109.009L104.472 109.01L104.632 108.818ZM104.369 106.703L104.593 106.815L104.596 106.809L104.369 106.703ZM104.992 105.375L104.769 105.263L104.766 105.269L104.992 105.375ZM105.681 103.867L105.911 103.965L105.912 103.962L105.681 103.867ZM106.599 101.621L106.83 101.716L106.831 101.714L106.599 101.621ZM108.041 94.2609L108.189 94.0592L108.185 94.0561L108.041 94.2609ZM107.713 94.0314L107.857 93.8266L107.713 94.0314ZM107.763 93.0806L107.574 92.9159L107.569 92.923L107.763 93.0806ZM108.353 92.6216L108.239 92.3989L108.233 92.4021L108.353 92.6216ZM111.008 92.4085L110.919 92.6418L111.008 92.4085ZM111.746 92.8511L111.915 92.6672L111.913 92.6648L111.746 92.8511ZM112.205 95.31L112.447 95.3736L112.447 95.3721L112.205 95.31ZM111.795 96.5886L112.029 96.6784L112.029 96.6764L111.795 96.5886ZM111.271 97.8345L111.497 97.9399L111.498 97.9388L111.271 97.8345ZM110.451 99.5721L110.227 99.4602L110.225 99.4651L110.451 99.5721ZM110.369 99.8016L110.564 99.9578L110.567 99.9544L110.369 99.8016ZM113.975 95.2116L113.786 95.0481L113.786 95.0486L113.975 95.2116ZM115.943 93.2117L115.793 93.0114L115.79 93.0134L115.943 93.2117ZM120.237 92.9659L120.057 93.1385L120.237 92.9659ZM119.696 99.2442L119.459 99.1673L119.896 99.3952L119.696 99.2442ZM122.106 96.0641L121.914 95.9034L121.907 95.9131L122.106 96.0641ZM123.45 94.4576L123.264 94.2911L123.259 94.2971L123.45 94.4576ZM125.581 92.6708L125.476 92.444L125.581 92.6708ZM128.221 92.4577L128.131 92.6912L128.134 92.692L128.221 92.4577ZM129.188 93.0642L129.011 93.241L129.015 93.2445L129.188 93.0642ZM128.401 100.031L128.623 100.146L128.624 100.145L128.401 100.031ZM127.548 101.752L127.322 101.646L127.321 101.648L127.548 101.752ZM128.319 106.211L128.205 105.989L128.202 105.99L128.319 106.211ZM127.909 108.703L127.771 108.494L127.77 108.495L127.909 108.703ZM123.827 108.555L124.008 108.382L124.007 108.382L123.827 108.555ZM124.122 101.244L124.351 101.345L124.352 101.344L124.122 101.244ZM125.106 99.1787L124.885 99.0608L124.885 99.0622L125.106 99.1787ZM125.876 97.6705L126.103 97.777L126.104 97.7745L125.876 97.6705ZM122.549 98.2771L122.352 98.123L122.35 98.1255L122.549 98.2771ZM120.139 101.556L120.345 101.698L120.347 101.695L120.139 101.556ZM119.008 103.195L118.802 103.053L118.794 103.065L118.787 103.078L119.008 103.195ZM117.549 106.195L117.778 106.295L117.779 106.292L117.549 106.195ZM116.713 108.096L116.942 108.197L116.942 108.197L116.713 108.096ZM116.172 109.096L116.365 109.255L116.369 109.25L116.172 109.096ZM114.729 109.244L114.647 109.48L114.65 109.481L114.729 109.244ZM114.074 108.899L114.226 108.701L114.223 108.699L114.074 108.899ZM113.779 106.441L113.545 106.351L113.545 106.353L113.779 106.441ZM114.664 104.359L114.438 104.252L114.437 104.255L114.664 104.359ZM116.959 99.5065L117.185 99.6134L117.186 99.61L116.959 99.5065ZM119.139 99.9655H118.889V100.215H119.139V99.9655ZM119.155 99.9491L118.932 99.8373L118.905 99.8901V99.9491H119.155ZM119.172 99.9163L119.395 100.028L118.995 99.7395L119.172 99.9163ZM117.516 95.0928C117.301 95.0928 117.069 95.1691 116.828 95.2924C116.585 95.4172 116.314 95.5999 116.017 95.8353C115.423 96.3062 114.702 97.0057 113.857 97.9278L114.225 98.2657C115.063 97.3518 115.763 96.6743 116.327 96.2272C116.609 96.0036 116.852 95.8421 117.056 95.7374C117.264 95.6312 117.414 95.5928 117.516 95.5928V95.0928ZM113.853 97.9318C112.596 99.364 111.68 100.445 111.107 101.171L111.5 101.481C112.064 100.765 112.973 99.6927 114.229 98.2617L113.853 97.9318ZM111.107 101.171L109.632 103.04L110.024 103.35L111.5 101.481L111.107 101.171ZM109.607 103.078C108.972 104.283 108.472 105.288 108.109 106.092L108.564 106.298C108.922 105.506 109.417 104.511 110.049 103.311L109.607 103.078ZM108.11 106.089L107.224 107.991L107.678 108.202L108.563 106.3L108.11 106.089ZM107.226 107.987C106.999 108.452 106.809 108.76 106.658 108.93L107.031 109.262C107.23 109.039 107.444 108.68 107.676 108.206L107.226 107.987ZM106.657 108.931C106.55 109.052 106.394 109.125 106.156 109.125V109.625C106.508 109.625 106.812 109.511 107.032 109.262L106.657 108.931ZM106.156 109.125C105.905 109.125 105.658 109.077 105.413 108.979L105.227 109.443C105.529 109.564 105.839 109.625 106.156 109.625V109.125ZM105.408 108.977C105.169 108.887 104.965 108.77 104.792 108.625L104.472 109.01C104.692 109.193 104.946 109.338 105.232 109.445L105.408 108.977ZM104.793 108.626C104.415 108.308 104.259 107.99 104.259 107.67H103.759C103.759 108.18 104.017 108.627 104.471 109.009L104.793 108.626ZM104.259 107.67C104.259 107.636 104.275 107.55 104.333 107.393C104.389 107.243 104.475 107.051 104.593 106.815L104.146 106.591C104.023 106.836 103.929 107.045 103.865 107.218C103.803 107.383 103.759 107.54 103.759 107.67H104.259ZM104.596 106.809L105.219 105.481L104.766 105.269L104.143 106.597L104.596 106.809ZM105.216 105.487C105.416 105.087 105.647 104.58 105.911 103.965L105.451 103.768C105.19 104.378 104.962 104.876 104.769 105.263L105.216 105.487ZM105.912 103.962L106.83 101.716L106.367 101.527L105.449 103.772L105.912 103.962ZM106.831 101.714C107.477 100.099 107.963 98.7657 108.288 97.7158C108.611 96.6741 108.783 95.8868 108.783 95.3756H108.283C108.283 95.8042 108.133 96.5277 107.811 97.5679C107.491 98.5998 107.01 99.9194 106.367 101.528L106.831 101.714ZM108.783 95.3756C108.783 94.8143 108.596 94.358 108.189 94.0593L107.893 94.4625C108.142 94.6446 108.283 94.9314 108.283 95.3756H108.783ZM108.185 94.0561L107.857 93.8266L107.57 94.2362L107.898 94.4657L108.185 94.0561ZM107.857 93.8266C107.838 93.8137 107.799 93.7768 107.799 93.6379H107.299C107.299 93.8707 107.37 94.0961 107.57 94.2362L107.857 93.8266ZM107.799 93.6379C107.799 93.5069 107.845 93.3754 107.957 93.2382L107.569 92.923C107.396 93.1355 107.299 93.3756 107.299 93.6379H107.799ZM107.951 93.2452C108.081 93.0961 108.253 92.9606 108.472 92.8411L108.233 92.4021C107.971 92.5449 107.75 92.7154 107.574 92.916L107.951 93.2452ZM108.466 92.8442C108.927 92.6086 109.38 92.4946 109.828 92.4946V91.9946C109.292 91.9946 108.762 92.1319 108.239 92.399L108.466 92.8442ZM109.828 92.4946C110.317 92.4946 110.676 92.5484 110.919 92.6418L111.098 92.1752C110.773 92.05 110.344 91.9946 109.828 91.9946V92.4946ZM110.919 92.6418C111.177 92.7413 111.396 92.8736 111.579 93.0374L111.913 92.6648C111.68 92.457 111.408 92.2943 111.098 92.1752L110.919 92.6418ZM111.577 93.035C111.96 93.3878 112.119 93.7248 112.119 94.0478H112.619C112.619 93.5402 112.363 93.0794 111.915 92.6672L111.577 93.035ZM112.119 94.0478C112.119 94.4409 112.067 94.8408 111.963 95.2479L112.447 95.3721C112.561 94.9268 112.619 94.4852 112.619 94.0478H112.119ZM111.963 95.2464C111.856 95.6528 111.722 96.0709 111.561 96.5008L112.029 96.6764C112.196 96.232 112.335 95.7977 112.447 95.3736L111.963 95.2464ZM111.562 96.4989C111.4 96.9203 111.227 97.3307 111.043 97.7301L111.498 97.9388C111.686 97.5295 111.863 97.1094 112.029 96.6784L111.562 96.4989ZM111.044 97.729C110.606 98.6702 110.335 99.2456 110.227 99.4603L110.675 99.6839C110.786 99.4614 111.061 98.8784 111.497 97.9399L111.044 97.729ZM110.225 99.4651C110.177 99.5675 110.14 99.6494 110.121 99.7011C110.117 99.714 110.11 99.7333 110.106 99.7543C110.103 99.7641 110.1 99.7838 110.099 99.8081C110.099 99.8187 110.095 99.8952 110.15 99.968C110.184 100.013 110.235 100.049 110.298 100.063C110.354 100.075 110.401 100.065 110.428 100.057C110.477 100.041 110.509 100.014 110.517 100.007C110.54 99.9878 110.557 99.9669 110.564 99.9577L110.174 99.6454C110.17 99.6499 110.178 99.6386 110.195 99.6247C110.2 99.6204 110.229 99.5953 110.276 99.5804C110.302 99.5721 110.348 99.5622 110.403 99.5743C110.465 99.5876 110.516 99.6231 110.55 99.668C110.603 99.7393 110.599 99.8134 110.599 99.8206C110.598 99.8416 110.595 99.8568 110.594 99.8611C110.592 99.8712 110.59 99.8755 110.592 99.8693C110.601 99.8445 110.627 99.7843 110.677 99.6791L110.225 99.4651ZM110.567 99.9544C112.569 97.3614 113.766 95.8383 114.165 95.3747L113.786 95.0486C113.376 95.5249 112.169 97.0616 110.171 99.6488L110.567 99.9544ZM114.164 95.3752C115.005 94.4041 115.646 93.7541 116.095 93.4101L115.79 93.0134C115.299 93.3906 114.629 94.0739 113.786 95.0481L114.164 95.3752ZM116.092 93.412C116.929 92.7867 117.692 92.4946 118.385 92.4946V91.9946C117.548 91.9946 116.682 92.3472 115.793 93.0114L116.092 93.412ZM118.385 92.4946C119.105 92.4946 119.653 92.7154 120.057 93.1385L120.418 92.7932C119.904 92.2546 119.217 91.9946 118.385 91.9946V92.4946ZM120.057 93.1385C120.463 93.5644 120.676 94.1322 120.676 94.8674H121.176C121.176 94.0289 120.93 93.329 120.418 92.7932L120.057 93.1385ZM120.676 94.8674C120.676 95.5157 120.511 96.2933 120.167 97.2054L120.635 97.3816C120.991 96.4359 121.176 95.5961 121.176 94.8674H120.676ZM120.167 97.2054C119.818 98.1341 119.581 98.7894 119.459 99.1673L119.934 99.3212C120.052 98.9559 120.285 98.3107 120.635 97.3816L120.167 97.2054ZM119.896 99.3952L122.305 96.215L121.907 95.9131L119.497 99.0932L119.896 99.3952ZM122.298 96.2245L123.642 94.618L123.259 94.2971L121.914 95.9036L122.298 96.2245ZM123.637 94.6239C124.438 93.7252 125.121 93.1601 125.687 92.8975L125.476 92.444C124.818 92.7498 124.08 93.3758 123.264 94.2912L123.637 94.6239ZM125.687 92.8975C126.287 92.6187 126.745 92.4946 127.073 92.4946V91.9946C126.636 91.9946 126.1 92.1545 125.476 92.444L125.687 92.8975ZM127.073 92.4946C127.436 92.4946 127.788 92.5599 128.131 92.6912L128.31 92.2242C127.91 92.0713 127.497 91.9946 127.073 91.9946V92.4946ZM128.134 92.692C128.486 92.8229 128.777 93.0066 129.011 93.241L129.365 92.8874C129.074 92.5973 128.72 92.3766 128.308 92.2233L128.134 92.692ZM129.015 93.2445C129.516 93.7258 129.774 94.3673 129.774 95.1952H130.274C130.274 94.2528 129.975 93.4736 129.361 92.8839L129.015 93.2445ZM129.774 95.1952C129.774 96.0083 129.586 96.8484 129.205 97.7176L129.663 97.9186C130.068 96.9954 130.274 96.087 130.274 95.1952H129.774ZM129.205 97.7176C128.812 98.6113 128.47 99.3442 128.178 99.9176L128.624 100.145C128.922 99.5595 129.268 98.8171 129.663 97.9186L129.205 97.7176ZM128.179 99.9159C127.882 100.487 127.597 101.064 127.322 101.646L127.775 101.859C128.046 101.283 128.329 100.712 128.623 100.146L128.179 99.9159ZM127.321 101.648C126.523 103.387 126.102 104.72 126.102 105.621H126.602C126.602 104.839 126.979 103.593 127.776 101.857L127.321 101.648ZM126.102 105.621C126.102 105.944 126.167 106.232 126.338 106.443C126.518 106.663 126.779 106.756 127.073 106.756V106.256C126.886 106.256 126.787 106.201 126.726 106.127C126.657 106.043 126.602 105.888 126.602 105.621H126.102ZM127.073 106.756C127.569 106.756 128.025 106.65 128.436 106.432L128.202 105.99C127.87 106.166 127.495 106.256 127.073 106.256V106.756ZM128.433 106.433C128.621 106.337 128.771 106.267 128.883 106.222C128.939 106.199 128.983 106.184 129.016 106.175C129.051 106.166 129.062 106.166 129.057 106.166V105.666C128.949 105.666 128.819 105.709 128.697 105.758C128.564 105.811 128.399 105.889 128.205 105.989L128.433 106.433ZM129.057 106.166C129.133 106.166 129.144 106.185 129.138 106.179C129.132 106.173 129.151 106.184 129.151 106.26H129.651C129.651 106.107 129.612 105.946 129.492 105.825C129.371 105.705 129.21 105.666 129.057 105.666V106.166ZM129.151 106.26C129.151 107.129 128.714 107.873 127.772 108.494L128.047 108.911C129.093 108.221 129.651 107.336 129.651 106.26H129.151ZM127.77 108.495C127.127 108.927 126.563 109.125 126.073 109.125V109.625C126.698 109.625 127.358 109.374 128.049 108.91L127.77 108.495ZM126.073 109.125C125.544 109.125 125.135 109.061 124.836 108.945L124.655 109.411C125.033 109.558 125.51 109.625 126.073 109.625V109.125ZM124.836 108.945C124.534 108.828 124.258 108.642 124.008 108.382L123.647 108.729C123.943 109.037 124.28 109.266 124.655 109.411L124.836 108.945ZM124.007 108.382C123.444 107.798 123.159 107.07 123.159 106.178H122.659C122.659 107.188 122.987 108.045 123.648 108.729L124.007 108.382ZM123.159 106.178C123.159 105.249 123.277 104.399 123.509 103.628L123.031 103.483C122.782 104.308 122.659 105.206 122.659 106.178H123.159ZM123.509 103.628C123.747 102.839 124.028 102.079 124.351 101.345L123.894 101.143C123.562 101.896 123.274 102.676 123.031 103.483L123.509 103.628ZM124.352 101.344C124.677 100.595 125.003 99.9117 125.327 99.2951L124.885 99.0622C124.554 99.6914 124.223 100.386 123.893 101.144L124.352 101.344ZM125.326 99.2965C125.666 98.6612 125.925 98.1542 126.103 97.777L125.65 97.5641C125.478 97.93 125.224 98.4284 124.885 99.0608L125.326 99.2965ZM126.104 97.7745C126.454 97.0091 126.651 96.4023 126.651 95.9821H126.151C126.151 96.2832 125.999 96.8019 125.649 97.5666L126.104 97.7745ZM126.651 95.9821C126.651 95.7272 126.583 95.4909 126.405 95.3215C126.23 95.1543 125.988 95.0928 125.729 95.0928V95.5928C125.917 95.5928 126.012 95.6378 126.061 95.6837C126.107 95.7274 126.151 95.8108 126.151 95.9821H126.651ZM125.729 95.0928C125.517 95.0928 125.294 95.1788 125.071 95.3111C124.844 95.4456 124.594 95.6415 124.322 95.8926C123.777 96.395 123.12 97.1407 122.352 98.123L122.746 98.4311C123.507 97.4572 124.145 96.7358 124.661 96.2601C124.919 96.0221 125.14 95.8513 125.326 95.7412C125.515 95.629 125.646 95.5928 125.729 95.5928V95.0928ZM122.35 98.1255C121.191 99.6446 120.384 100.743 119.932 101.416L120.347 101.695C120.79 101.035 121.589 99.9476 122.748 98.4287L122.35 98.1255ZM119.933 101.414L118.802 103.053L119.214 103.337L120.345 101.698L119.933 101.414ZM118.787 103.078C118.151 104.284 117.661 105.29 117.319 106.097L117.779 106.292C118.114 105.504 118.597 104.51 119.229 103.311L118.787 103.078ZM117.32 106.094L116.484 107.996L116.942 108.197L117.778 106.295L117.32 106.094ZM116.484 107.995C116.278 108.462 116.108 108.771 115.975 108.943L116.369 109.25C116.542 109.027 116.733 108.671 116.942 108.197L116.484 107.995ZM115.979 108.937C115.88 109.057 115.743 109.125 115.533 109.125V109.625C115.869 109.625 116.158 109.507 116.365 109.255L115.979 108.937ZM115.533 109.125C115.287 109.125 115.046 109.086 114.809 109.007L114.65 109.481C114.938 109.577 115.232 109.625 115.533 109.625V109.125ZM114.812 109.008C114.582 108.928 114.388 108.825 114.226 108.701L113.922 109.098C114.131 109.258 114.374 109.385 114.647 109.48L114.812 109.008ZM114.223 108.699C113.826 108.404 113.684 108.136 113.684 107.9H113.184C113.184 108.363 113.469 108.761 113.925 109.1L114.223 108.699ZM113.684 107.9C113.684 107.584 113.787 107.131 114.013 106.528L113.545 106.353C113.312 106.974 113.184 107.494 113.184 107.9H113.684ZM114.012 106.531C114.25 105.913 114.543 105.224 114.891 104.463L114.437 104.255C114.085 105.023 113.788 105.722 113.545 106.351L114.012 106.531ZM114.89 104.466L117.185 99.6134L116.733 99.3996L114.438 104.252L114.89 104.466ZM117.186 99.61C117.598 98.7055 117.908 97.9622 118.116 97.382C118.32 96.813 118.438 96.3696 118.438 96.0804H117.938C117.938 96.2722 117.851 96.6402 117.646 97.2132C117.444 97.775 117.14 98.5043 116.731 99.4031L117.186 99.61ZM118.438 96.0804C118.438 95.8015 118.375 95.5456 118.205 95.3588C118.031 95.1676 117.785 95.0928 117.516 95.0928V95.5928C117.695 95.5928 117.786 95.6409 117.835 95.6956C117.889 95.7547 117.938 95.8676 117.938 96.0804H118.438ZM119.139 100.215C119.183 100.215 119.262 100.204 119.328 100.138C119.394 100.072 119.405 99.9931 119.405 99.9491H118.905C118.905 99.916 118.914 99.8453 118.975 99.7846C119.035 99.7239 119.106 99.7155 119.139 99.7155V100.215ZM119.379 100.061L119.395 100.028L118.948 99.8045L118.932 99.8373L119.379 100.061ZM118.995 99.7395C118.978 99.7563 118.957 99.779 118.939 99.8063C118.925 99.827 118.889 99.8849 118.889 99.9655H119.389C119.389 100.004 119.38 100.033 119.373 100.049C119.366 100.066 119.359 100.078 119.355 100.084C119.348 100.095 119.344 100.098 119.349 100.093L118.995 99.7395ZM144.63 108.539L144.47 108.347L144.47 108.347L144.63 108.539ZM139.368 108.916L139.291 109.154L139.293 109.154L139.368 108.916ZM137.122 108.227L137.056 108.468L137.057 108.469L137.122 108.227ZM134.647 108.145L134.571 107.907L134.568 107.908L134.647 108.145ZM133.909 108.473L133.785 108.256L133.781 108.259L133.909 108.473ZM133.27 108.883L133.129 108.677L133.127 108.678L133.27 108.883ZM131.483 108.867L131.667 108.697L131.666 108.696L131.483 108.867ZM131.319 107.096L131.09 106.997L131.088 107.002L131.319 107.096ZM132.549 105.113L132.751 105.26L132.752 105.259L132.549 105.113ZM134.582 102.605L134.767 102.773L134.768 102.771L134.582 102.605ZM136.942 100.146L137.117 100.325L137.117 100.324L136.942 100.146ZM141.663 95.4247L141.483 95.2519L141.481 95.2532L141.663 95.4247ZM143.598 93.1462L143.397 92.9968L143.396 92.9976L143.598 93.1462ZM143.925 86.0482L144.02 85.8166L144.017 85.8155L143.925 86.0482ZM141.27 86.2941L141.391 86.5126L141.395 86.5105L141.27 86.2941ZM140.024 87.3432L140.218 87.5006L140.22 87.4987L140.024 87.3432ZM139.762 91.8512L139.864 91.6231L139.858 91.6204L139.762 91.8512ZM139.516 93.3593L139.353 93.1695L139.353 93.1699L139.516 93.3593ZM135.713 93.2609L135.506 93.4013L135.713 93.2609ZM136.106 87.6874L135.894 87.5557L135.893 87.5569L136.106 87.6874ZM137.303 86.1465L137.124 85.9718L137.122 85.9739L137.303 86.1465ZM138.876 84.8843L138.745 84.6714L138.744 84.6721L138.876 84.8843ZM145.548 84.1958L145.443 84.4228L145.445 84.4234L145.548 84.1958ZM147.302 85.4744L147.495 85.3152L147.492 85.3121L147.302 85.4744ZM144.843 97.0312L145.024 97.2036L145.025 97.2034L144.843 97.0312ZM140.893 100.687L140.736 100.492L140.736 100.492L140.893 100.687ZM137.778 103.195L137.621 103L137.619 103.002L137.778 103.195ZM134.27 106.637L134.067 106.491L133.531 107.237L134.371 106.866L134.27 106.637ZM136.352 106.031L136.367 106.28L136.372 106.28L136.352 106.031ZM137.68 105.998L137.664 106.248L137.672 106.248L137.68 105.998ZM138.778 106.064L138.8 105.814L138.799 105.814L138.778 106.064ZM142.745 106.031L142.806 106.273L142.81 106.272L142.745 106.031ZM143.827 105.637L143.715 105.414L143.712 105.416L143.827 105.637ZM144.532 105.26L144.659 105.476L144.668 105.47L144.532 105.26ZM145.188 105.33C145.228 105.33 145.252 105.339 145.269 105.35C145.286 105.361 145.31 105.383 145.335 105.43C145.389 105.532 145.429 105.717 145.429 106.014H145.929C145.929 105.689 145.888 105.407 145.778 105.197C145.721 105.089 145.642 104.994 145.537 104.927C145.43 104.86 145.311 104.83 145.188 104.83V105.33ZM145.429 106.014C145.429 106.615 145.339 107.083 145.175 107.432L145.627 107.646C145.834 107.208 145.929 106.659 145.929 106.014H145.429ZM145.175 107.432C145.004 107.793 144.77 108.097 144.47 108.347L144.79 108.731C145.147 108.434 145.426 108.071 145.627 107.646L145.175 107.432ZM144.47 108.347C143.859 108.858 143.036 109.125 141.975 109.125V109.625C143.121 109.625 144.068 109.335 144.791 108.731L144.47 108.347ZM141.975 109.125C141.242 109.125 140.399 108.978 139.443 108.677L139.293 109.154C140.283 109.466 141.177 109.625 141.975 109.625V109.125ZM139.446 108.678C138.472 108.361 137.719 108.13 137.188 107.986L137.057 108.469C137.575 108.609 138.319 108.837 139.291 109.154L139.446 108.678ZM137.189 107.986C136.658 107.84 136.16 107.764 135.696 107.764V108.264C136.107 108.264 136.559 108.331 137.056 108.468L137.189 107.986ZM135.696 107.764C135.255 107.764 134.878 107.809 134.571 107.907L134.723 108.384C134.963 108.307 135.285 108.264 135.696 108.264V107.764ZM134.568 107.908C134.291 108.001 134.03 108.117 133.785 108.256L134.034 108.69C134.248 108.568 134.479 108.465 134.726 108.383L134.568 107.908ZM133.781 108.259C133.558 108.393 133.341 108.532 133.129 108.677L133.411 109.089C133.615 108.95 133.824 108.816 134.038 108.688L133.781 108.259ZM133.127 108.678C132.913 108.828 132.739 108.935 132.603 109.005C132.459 109.078 132.388 109.092 132.369 109.092V109.592C132.513 109.592 132.675 109.529 132.83 109.45C132.995 109.366 133.19 109.244 133.414 109.088L133.127 108.678ZM132.369 109.092C132.265 109.092 132.155 109.063 132.034 108.994L131.786 109.428C131.971 109.534 132.166 109.592 132.369 109.592V109.092ZM132.034 108.994C131.905 108.92 131.783 108.822 131.667 108.697L131.3 109.036C131.446 109.195 131.608 109.327 131.786 109.428L132.034 108.994ZM131.666 108.696C131.52 108.539 131.418 108.408 131.354 108.3C131.288 108.189 131.274 108.124 131.274 108.096H130.774C130.774 108.254 130.837 108.41 130.924 108.556C131.013 108.705 131.141 108.866 131.301 109.037L131.666 108.696ZM131.274 108.096C131.274 108.04 131.291 107.938 131.338 107.778C131.384 107.622 131.454 107.427 131.551 107.191L131.088 107.002C130.988 107.246 130.911 107.458 130.858 107.636C130.807 107.81 130.774 107.967 130.774 108.096H131.274ZM131.549 107.195C131.745 106.741 132.142 106.098 132.751 105.26L132.347 104.966C131.732 105.811 131.309 106.49 131.09 106.997L131.549 107.195ZM132.752 105.259C133.358 104.414 134.03 103.586 134.767 102.773L134.396 102.437C133.647 103.263 132.964 104.106 132.346 104.967L132.752 105.259ZM134.768 102.771C135.507 101.945 136.29 101.13 137.117 100.325L136.768 99.9667C135.933 100.779 135.142 101.603 134.395 102.438L134.768 102.771ZM137.117 100.324C139.543 97.9426 141.12 96.3654 141.845 95.5962L141.481 95.2532C140.764 96.0141 139.194 97.5843 136.767 99.9674L137.117 100.324ZM141.844 95.5976C142.582 94.8259 143.234 94.0583 143.799 93.2948L143.396 92.9976C142.846 93.7421 142.208 94.4936 141.483 95.2519L141.844 95.5976ZM143.798 93.2955C145.027 91.6462 145.667 90.1241 145.667 88.7366H145.167C145.167 89.9718 144.594 91.3894 143.397 92.9968L143.798 93.2955ZM145.667 88.7366C145.667 88.0146 145.538 87.3982 145.263 86.9022C144.985 86.4018 144.567 86.0391 144.02 85.8166L143.831 86.2798C144.278 86.4615 144.606 86.7491 144.826 87.1448C145.048 87.5449 145.167 88.0706 145.167 88.7366H145.667ZM144.017 85.8155C143.671 85.6796 143.238 85.6178 142.729 85.6178V86.1178C143.203 86.1178 143.568 86.1763 143.834 86.2809L144.017 85.8155ZM142.729 85.6178C142.197 85.6178 141.668 85.7755 141.145 86.0776L141.395 86.5105C141.856 86.2443 142.299 86.1178 142.729 86.1178V85.6178ZM141.148 86.0755C140.629 86.3641 140.188 86.7349 139.828 87.1876L140.22 87.4987C140.537 87.0991 140.927 86.7704 141.391 86.5126L141.148 86.0755ZM139.83 87.1858C139.098 88.0887 138.725 89.0775 138.725 90.1463H139.225C139.225 89.2043 139.551 88.3244 140.218 87.5006L139.83 87.1858ZM138.725 90.1463C138.725 91.0959 138.997 91.8035 139.665 92.0819L139.858 91.6204C139.477 91.4617 139.225 91.0327 139.225 90.1463H138.725ZM139.659 92.0791C139.743 92.1169 139.787 92.1547 139.809 92.1839C139.829 92.2095 139.839 92.2374 139.839 92.2774H140.339C140.339 92.1315 140.295 91.9955 140.206 91.879C140.119 91.7662 139.999 91.6838 139.864 91.6232L139.659 92.0791ZM139.839 92.2774C139.839 92.5784 139.697 92.8748 139.353 93.1695L139.678 93.5491C140.1 93.1881 140.339 92.7632 140.339 92.2774H139.839ZM139.353 93.1699C138.653 93.7725 138.105 94.0273 137.696 94.0273V94.5273C138.292 94.5273 138.958 94.17 139.679 93.5487L139.353 93.1699ZM137.696 94.0273C137.222 94.0273 136.867 93.9392 136.613 93.7849L136.353 94.2123C136.711 94.4295 137.165 94.5273 137.696 94.5273V94.0273ZM136.613 93.7849C136.339 93.6183 136.108 93.3979 135.92 93.1205L135.506 93.4013C135.733 93.736 136.016 94.0073 136.353 94.2123L136.613 93.7849ZM135.92 93.1205C135.531 92.5482 135.34 91.9356 135.34 91.2774H134.84C134.84 92.04 135.064 92.7497 135.506 93.4013L135.92 93.1205ZM135.34 91.2774C135.34 90.5759 135.425 89.9566 135.591 89.4166L135.113 89.2696C134.93 89.8661 134.84 90.5363 134.84 91.2774H135.34ZM135.591 89.4166C135.759 88.8694 136.002 88.3366 136.319 87.818L135.893 87.5569C135.555 88.1092 135.294 88.6802 135.113 89.2696L135.591 89.4166ZM136.319 87.8192C136.648 87.2879 137.036 86.7879 137.484 86.3191L137.122 85.9739C136.651 86.4668 136.242 86.9941 135.894 87.5557L136.319 87.8192ZM137.482 86.3213C137.937 85.8549 138.446 85.4467 139.009 85.0965L138.744 84.6721C138.148 85.0431 137.608 85.4764 137.124 85.9718L137.482 86.3213ZM139.007 85.0972C140.256 84.3291 141.462 83.954 142.63 83.954V83.454C141.351 83.454 140.055 83.8658 138.745 84.6714L139.007 85.0972ZM142.63 83.954C143.848 83.954 144.78 84.1163 145.443 84.4228L145.653 83.9688C144.896 83.6195 143.883 83.454 142.63 83.454V83.954ZM145.445 84.4234C146.138 84.7383 146.691 85.1439 147.112 85.6368L147.492 85.3121C147.017 84.7558 146.401 84.309 145.652 83.9682L145.445 84.4234ZM147.109 85.6336C147.896 86.5861 148.298 87.8051 148.298 89.3103H148.798C148.798 87.7119 148.369 86.3736 147.495 85.3152L147.109 85.6336ZM148.298 89.3103C148.298 91.7704 147.106 94.2855 144.662 96.8591L145.025 97.2034C147.52 94.575 148.798 91.9429 148.798 89.3103H148.298ZM144.662 96.8588C143.369 98.2177 142.06 99.4285 140.736 100.492L141.049 100.882C142.392 99.8031 143.717 98.5769 145.024 97.2036L144.662 96.8588ZM140.736 100.492L137.621 103L137.935 103.39L141.05 100.881L140.736 100.492ZM137.619 103.002C135.921 104.404 134.731 105.568 134.067 106.491L134.473 106.783C135.098 105.914 136.247 104.783 137.937 103.388L137.619 103.002ZM134.371 106.866C135.201 106.499 135.864 106.311 136.367 106.28L136.337 105.781C135.747 105.817 135.022 106.032 134.169 106.409L134.371 106.866ZM136.372 106.28C136.913 106.237 137.342 106.227 137.664 106.247L137.696 105.749C137.34 105.726 136.884 105.737 136.332 105.782L136.372 106.28ZM137.672 106.248C138.017 106.259 138.378 106.28 138.757 106.313L138.799 105.814C138.413 105.781 138.042 105.759 137.688 105.748L137.672 106.248ZM138.756 106.313C139.765 106.4 140.576 106.445 141.188 106.445V105.945C140.597 105.945 139.802 105.902 138.8 105.814L138.756 106.313ZM141.188 106.445C141.803 106.445 142.343 106.389 142.806 106.273L142.684 105.788C142.272 105.891 141.775 105.945 141.188 105.945V106.445ZM142.81 106.272C143.268 106.149 143.647 106.013 143.942 105.859L143.712 105.416C143.46 105.546 143.119 105.672 142.68 105.789L142.81 106.272ZM143.939 105.861C144.226 105.717 144.466 105.589 144.659 105.476L144.405 105.045C144.226 105.15 143.996 105.273 143.715 105.414L143.939 105.861ZM144.668 105.47C144.808 105.38 144.978 105.33 145.188 105.33V104.83C144.895 104.83 144.628 104.901 144.396 105.05L144.668 105.47ZM155.221 99.4573V99.7073H155.232L155.244 99.7062L155.221 99.4573ZM155.384 97.0148L155.208 96.8381L155.384 97.0148ZM156.401 96.5394L156.469 96.78L156.472 96.779L156.401 96.5394ZM158.368 95.6051L158.495 95.8205L158.496 95.8199L158.368 95.6051ZM160.565 93.8674L160.744 94.0413L160.745 94.0403L160.565 93.8674ZM162.138 86.6055L161.949 86.7693L161.951 86.7713L162.138 86.6055ZM158.712 86.2941L158.826 86.5168L158.827 86.5159L158.712 86.2941ZM157.302 87.3432L157.482 87.5166L157.484 87.5152L157.302 87.3432ZM156.794 91.8512L156.897 91.6231L156.89 91.6204L156.794 91.8512ZM156.548 93.3593L156.386 93.1695L156.385 93.1699L156.548 93.3593ZM152.762 93.4085L152.562 93.5585L152.566 93.5646L152.762 93.4085ZM153.237 87.8022L153.027 87.6664L153.026 87.6674L153.237 87.8022ZM154.532 86.2285L154.359 86.0479L154.357 86.0498L154.532 86.2285ZM156.237 84.9171L156.107 84.7033L156.106 84.704L156.237 84.9171ZM163.122 84.1958L163.017 84.4228L163.018 84.4234L163.122 84.1958ZM164.859 85.4744L165.052 85.3146L165.051 85.3144L164.859 85.4744ZM162.532 96.5394L162.36 96.3581L162.359 96.3582L162.532 96.5394ZM160.007 98.3918L159.895 98.1682L159.333 98.4492L159.935 98.6311L160.007 98.3918ZM161.942 100.72L161.701 100.786L161.701 100.786L161.942 100.72ZM161.04 105.441L161.252 105.572L161.254 105.57L161.04 105.441ZM159.794 106.982L159.967 107.162L159.969 107.16L159.794 106.982ZM158.138 108.227L158.264 108.444L158.265 108.443L158.138 108.227ZM150.139 108.129L150.31 107.947L150.309 107.946L150.139 108.129ZM149.745 103.342L149.549 103.188L149.546 103.192L149.745 103.342ZM153.532 103.506L153.343 103.343L153.342 103.344L153.532 103.506ZM153.008 104.146L152.81 103.992L152.809 103.994L153.008 104.146ZM152.647 104.719L152.868 104.836L152.87 104.831L152.647 104.719ZM152.434 106.473L152.194 106.544L152.195 106.548L152.434 106.473ZM152.696 106.949L152.505 107.11L152.51 107.116L152.696 106.949ZM155.729 106.867L155.592 106.658L155.59 106.659L155.729 106.867ZM157.22 105.441L157.422 105.589L157.422 105.589L157.22 105.441ZM156.794 99.3098V99.0598H156.783L156.771 99.0609L156.794 99.3098ZM155.221 99.2073C155.032 99.2073 154.937 99.17 154.893 99.1362C154.862 99.1121 154.831 99.0708 154.831 98.9655H154.331C154.331 99.1881 154.407 99.3928 154.589 99.5325C154.758 99.6627 154.982 99.7073 155.221 99.7073V99.2073ZM154.831 98.9655C154.831 98.2661 155.073 97.6797 155.561 97.1916L155.208 96.8381C154.625 97.421 154.331 98.135 154.331 98.9655H154.831ZM155.561 97.1916C155.687 97.0655 155.971 96.9207 156.469 96.78L156.333 96.2989C155.825 96.4423 155.431 96.6144 155.208 96.8381L155.561 97.1916ZM156.472 96.779C157.014 96.6176 157.69 96.2944 158.495 95.8205L158.241 95.3897C157.45 95.8556 156.815 96.1553 156.329 96.2998L156.472 96.779ZM158.496 95.8199C159.323 95.3278 160.073 94.7347 160.744 94.0413L160.385 93.6936C159.745 94.3553 159.03 94.9207 158.24 95.3902L158.496 95.8199ZM160.745 94.0403C162.261 92.4572 163.028 90.6427 163.028 88.6054H162.528C162.528 90.5024 161.819 92.1959 160.384 93.6946L160.745 94.0403ZM163.028 88.6054C163.028 87.7122 162.804 86.9795 162.325 86.4397L161.951 86.7713C162.325 87.1933 162.528 87.7938 162.528 88.6054H163.028ZM162.327 86.4418C161.853 85.8947 161.243 85.6178 160.515 85.6178V86.1178C161.099 86.1178 161.571 86.3327 161.949 86.7692L162.327 86.4418ZM160.515 85.6178C159.822 85.6178 159.181 85.7684 158.597 86.0723L158.827 86.5159C159.336 86.2514 159.897 86.1178 160.515 86.1178V85.6178ZM158.599 86.0714C158.038 86.3572 157.545 86.7238 157.121 87.1711L157.484 87.5152C157.868 87.1101 158.315 86.7774 158.826 86.5167L158.599 86.0714ZM157.122 87.1697C156.227 88.0989 155.757 89.0923 155.757 90.1463H156.257C156.257 89.255 156.651 88.3797 157.482 87.5166L157.122 87.1697ZM155.757 90.1463C155.757 91.0959 156.03 91.8035 156.698 92.0819L156.89 91.6204C156.51 91.4617 156.257 91.0327 156.257 90.1463H155.757ZM156.692 92.0791C156.775 92.1169 156.819 92.1547 156.842 92.1839C156.862 92.2095 156.872 92.2374 156.872 92.2774H157.372C157.372 92.1315 157.328 91.9955 157.238 91.879C157.151 91.7662 157.032 91.6838 156.897 91.6232L156.692 92.0791ZM156.872 92.2774C156.872 92.5784 156.729 92.8748 156.386 93.1695L156.711 93.5491C157.132 93.1881 157.372 92.7632 157.372 92.2774H156.872ZM156.385 93.1699C155.684 93.7736 155.142 94.0273 154.745 94.0273V94.5273C155.331 94.5273 155.992 94.1689 156.712 93.5487L156.385 93.1699ZM154.745 94.0273C154.276 94.0273 153.92 93.9539 153.66 93.8242L153.437 94.2714C153.789 94.4476 154.23 94.5273 154.745 94.5273V94.0273ZM153.66 93.8242C153.387 93.6877 153.153 93.4979 152.957 93.2523L152.566 93.5646C152.807 93.8654 153.098 94.1018 153.437 94.2714L153.66 93.8242ZM152.962 93.2585C152.569 92.7349 152.372 92.1376 152.372 91.4577H151.872C151.872 92.2422 152.102 92.9455 152.562 93.5585L152.962 93.2585ZM152.372 91.4577C152.372 90.7476 152.468 90.1198 152.654 89.571L152.181 89.4102C151.974 90.0198 151.872 90.7034 151.872 91.4577H152.372ZM152.654 89.571C152.844 89.012 153.108 88.4674 153.448 87.9369L153.026 87.6674C152.667 88.2298 152.384 88.8108 152.181 89.4102L152.654 89.571ZM153.447 87.938C153.797 87.3971 154.217 86.8868 154.707 86.4072L154.357 86.0498C153.842 86.5537 153.398 87.0926 153.027 87.6664L153.447 87.938ZM154.705 86.4091C155.205 85.9299 155.759 85.5036 156.368 85.1301L156.106 84.704C155.468 85.0956 154.886 85.5435 154.359 86.0479L154.705 86.4091ZM156.367 85.1308C157.67 84.3404 158.926 83.954 160.138 83.954V83.454C158.815 83.454 157.471 83.8764 156.107 84.7033L156.367 85.1308ZM160.138 83.954C161.401 83.954 162.354 84.1167 163.017 84.4228L163.227 83.9688C162.469 83.6192 161.433 83.454 160.138 83.454V83.954ZM163.018 84.4234C163.711 84.7382 164.258 85.1431 164.667 85.6345L165.051 85.3144C164.587 84.7566 163.975 84.3091 163.225 83.9682L163.018 84.4234ZM164.667 85.6343C165.43 86.5516 165.822 87.7689 165.822 89.3103H166.322C166.322 87.6825 165.906 86.3425 165.052 85.3146L164.667 85.6343ZM165.822 89.3103C165.822 91.8039 164.684 94.1519 162.36 96.3581L162.704 96.7208C165.1 94.4464 166.322 91.9749 166.322 89.3103H165.822ZM162.359 96.3582C161.498 97.177 160.676 97.7779 159.895 98.1682L160.119 98.6154C160.956 98.197 161.817 97.563 162.704 96.7207L162.359 96.3582ZM159.935 98.6311C160.766 98.8823 161.365 99.5697 161.701 100.786L162.183 100.653C161.819 99.334 161.128 98.4696 160.08 98.1525L159.935 98.6311ZM161.701 100.786C161.803 101.153 161.855 101.584 161.855 102.08H162.355C162.355 101.549 162.299 101.073 162.182 100.653L161.701 100.786ZM161.855 102.08C161.855 102.552 161.768 103.073 161.588 103.644L162.065 103.794C162.257 103.185 162.355 102.613 162.355 102.08H161.855ZM161.588 103.644C161.409 104.214 161.155 104.77 160.826 105.311L161.254 105.57C161.602 104.997 161.873 104.405 162.065 103.794L161.588 103.644ZM160.827 105.309C160.5 105.837 160.098 106.335 159.619 106.803L159.969 107.16C160.474 106.666 160.902 106.137 161.252 105.572L160.827 105.309ZM159.621 106.801C159.144 107.257 158.608 107.661 158.011 108.012L158.265 108.443C158.893 108.073 159.461 107.646 159.967 107.162L159.621 106.801ZM158.013 108.011C156.729 108.754 155.341 109.125 153.844 109.125V109.625C155.428 109.625 156.903 109.231 158.264 108.444L158.013 108.011ZM153.844 109.125C152.302 109.125 151.136 108.722 150.31 107.947L149.968 108.311C150.912 109.197 152.215 109.625 153.844 109.625V109.125ZM150.309 107.946C149.593 107.281 149.241 106.484 149.241 105.539H148.741C148.741 106.627 149.154 107.556 149.969 108.312L150.309 107.946ZM149.241 105.539C149.241 104.798 149.473 104.118 149.945 103.493L149.546 103.192C149.012 103.9 148.741 104.684 148.741 105.539H149.241ZM149.942 103.497C150.496 102.791 151.206 102.445 152.09 102.445V101.945C151.05 101.945 150.197 102.363 149.549 103.188L149.942 103.497ZM152.09 102.445C152.6 102.445 152.9 102.556 153.06 102.716L153.414 102.362C153.115 102.063 152.65 101.945 152.09 101.945V102.445ZM153.06 102.716C153.251 102.907 153.343 103.054 153.375 103.157C153.401 103.242 153.387 103.292 153.343 103.343L153.721 103.67C153.885 103.48 153.926 103.249 153.853 103.011C153.786 102.792 153.627 102.576 153.414 102.362L153.06 102.716ZM153.342 103.344C153.144 103.576 152.966 103.792 152.81 103.992L153.205 104.299C153.355 104.106 153.527 103.896 153.722 103.669L153.342 103.344ZM152.809 103.994C152.658 104.191 152.529 104.396 152.423 104.608L152.87 104.831C152.961 104.649 153.073 104.472 153.206 104.297L152.809 103.994ZM152.426 104.602C152.217 104.997 152.102 105.377 152.102 105.736H152.602C152.602 105.483 152.683 105.185 152.868 104.836L152.426 104.602ZM152.102 105.736C152.102 106.053 152.13 106.326 152.194 106.544L152.674 106.403C152.628 106.249 152.602 106.03 152.602 105.736H152.102ZM152.195 106.548C152.26 106.755 152.364 106.943 152.505 107.11L152.887 106.787C152.788 106.67 152.717 106.541 152.672 106.399L152.195 106.548ZM152.51 107.116C152.858 107.503 153.375 107.674 154.007 107.674V107.174C153.46 107.174 153.103 107.028 152.882 106.782L152.51 107.116ZM154.007 107.674C154.653 107.674 155.275 107.47 155.867 107.075L155.59 106.659C155.068 107.007 154.542 107.174 154.007 107.174V107.674ZM155.866 107.076C156.46 106.687 156.979 106.191 157.422 105.589L157.019 105.292C156.61 105.849 156.134 106.303 155.592 106.658L155.866 107.076ZM157.422 105.589C158.358 104.314 158.831 102.935 158.831 101.457H158.331C158.331 102.82 157.897 104.097 157.019 105.293L157.422 105.589ZM158.831 101.457C158.831 100.713 158.677 100.108 158.326 99.6868C157.969 99.2565 157.442 99.0598 156.794 99.0598V99.5598C157.338 99.5598 157.705 99.721 157.942 100.007C158.187 100.301 158.331 100.77 158.331 101.457H158.831ZM156.771 99.0609L155.197 99.2084L155.244 99.7062L156.818 99.5587L156.771 99.0609Z" fill="white"/>
</svg>
