<svg width="229" height="53" viewBox="0 0 229 53" fill="none" xmlns="http://www.w3.org/2000/svg">
<mask id="path-1-outside-1" maskUnits="userSpaceOnUse" x="3.0769" y="3.07693" width="224" height="48" fill="black">
<rect fill="white" x="3.0769" y="3.07693" width="224" height="48"/>
<path d="M5.29869 49.0586C4.93782 48.788 4.64913 48.4903 4.43261 48.1655C4.21609 47.8227 4.09881 47.534 4.08077 47.2994C4.06273 47.0468 4.10784 46.7491 4.21609 46.4063C4.3424 46.0454 4.50479 45.6124 4.70326 45.1072C8.38407 36.0495 10.2245 29.9689 10.2245 26.8655C10.1704 25.9994 9.87264 25.386 9.33134 25.0251L8.79005 24.6462C8.62766 24.5199 8.53744 24.3034 8.5194 23.9966C8.5194 23.6719 8.63668 23.3651 8.87124 23.0764C9.1058 22.7877 9.41254 22.5351 9.79144 22.3186C10.5673 21.9036 11.3612 21.6961 12.1731 21.6961C13.0031 21.6961 13.6437 21.7863 14.0947 21.9668C14.5639 22.1472 14.9608 22.3908 15.2856 22.6975C15.9712 23.3471 16.3141 24.0327 16.3141 24.7544C16.3321 25.4762 16.2509 26.2069 16.0705 26.9467C15.9081 27.6865 15.7096 28.4172 15.4751 29.1389C15.2405 29.8426 15.0059 30.5192 14.7714 31.1688C14.5368 31.8003 14.3834 32.2694 14.3113 32.5762C14.1669 33.2077 14.1128 33.6046 14.1489 33.767C14.5819 33.3881 14.8435 33.0182 14.9338 32.6574L15.9893 30.6546C18.3349 26.4325 20.6264 23.6358 22.8637 22.2645C23.5133 21.8856 24.2892 21.6961 25.1913 21.6961C26.1115 21.6961 26.8513 22.0209 27.4106 22.6705C27.97 23.302 28.2587 24.0057 28.2767 24.7815C28.3128 25.5574 28.2587 26.2069 28.1143 26.7302C27.988 27.2354 27.7895 27.7135 27.5189 28.1646C26.9235 29.175 26.2017 29.6802 25.3537 29.6802C25.1191 29.6802 24.9026 29.599 24.7042 29.4367L24.1087 28.9224C23.5133 28.3992 22.9359 28.1375 22.3766 28.1375C21.8353 28.1375 21.1677 28.4984 20.3738 29.2201C19.5979 29.9419 18.786 30.8711 17.938 32.0078C15.0871 35.7788 12.7596 40.001 10.9552 44.6741L9.76438 47.8137C9.45764 48.5895 9.187 49.1489 8.95244 49.4917C8.71787 49.8165 8.36603 49.9788 7.89691 49.9788C7.44583 49.9788 6.98573 49.8886 6.5166 49.7082C6.06552 49.5458 5.65955 49.3293 5.29869 49.0586Z"/>
<path d="M46.0583 43.5645C46.0583 41.1286 46.7529 37.3937 48.1423 32.3597C43.7939 32.4679 40.4649 32.5942 38.1554 32.7386C37.4517 34.0196 36.8111 35.2375 36.2338 36.3923L34.5557 39.7213C32.3364 44.0877 30.3427 46.9656 28.5744 48.355C27.2212 49.4375 25.7867 49.9788 24.2711 49.9788C23.1164 49.9788 22.2413 49.5999 21.6458 48.8421C21.4293 48.5354 21.303 48.2467 21.2669 47.976C21.2308 47.6874 21.294 47.4979 21.4564 47.4077C23.5313 46.6318 25.2184 45.45 26.5175 43.8622C27.6542 42.4368 28.7909 40.6956 29.9277 38.6387L32.986 33.1716L31.2809 33.4152C30.1983 33.6137 29.657 33.4422 29.657 32.901C29.657 32.3597 29.9818 31.8454 30.6313 31.3583C31.7681 30.5102 32.8777 29.9509 33.9603 29.6802L35.1241 29.4096C38.0832 24.5199 40.3386 21.1007 41.8903 19.152C43.4601 17.2034 44.8855 15.5795 46.1665 14.2804C47.4656 12.9813 48.8279 11.8355 50.2533 10.8431C53.3748 8.69599 56.4512 7.62242 59.4824 7.62242C60.4026 7.62242 61.0251 7.81188 61.3499 8.19079C61.8912 8.78621 62.0626 9.42674 61.8641 10.1124C61.6656 10.78 61.3409 11.7453 60.8898 13.0083C58.0029 20.8752 56.2437 25.7468 55.6122 27.6233C55.9008 27.6053 56.1625 27.5962 56.397 27.5962H56.9925C59.0133 27.5962 60.0959 27.7947 60.2402 28.1917C60.2763 28.318 60.2944 28.5525 60.2944 28.8954C60.2944 29.2201 60.1861 29.599 59.9696 30.0321C59.7711 30.4651 59.4373 30.835 58.9682 31.1417C58.0119 31.7913 56.4061 32.1702 54.1507 32.2785C52.9237 36.5186 52.22 39.4506 52.0396 41.0745C51.8772 42.6984 51.9313 43.799 52.202 44.3764C52.4907 44.9358 52.8876 45.2154 53.3928 45.2154C53.9161 45.2154 54.3401 45.1703 54.6649 45.0801C54.9897 44.9719 55.2784 44.8546 55.531 44.7283L56.2346 44.4035C56.4151 44.2952 56.5955 44.2411 56.7759 44.2411C56.9744 44.2411 57.1368 44.3674 57.2631 44.62C57.3894 44.8546 57.4526 45.1703 57.4526 45.5673C57.4526 45.9642 57.2812 46.4424 56.9383 47.0017C56.6136 47.543 56.1805 48.0302 55.6392 48.4632C54.3762 49.4736 52.9508 49.9788 51.363 49.9788C48.9271 49.9788 47.3033 48.8963 46.4913 46.7311C46.2026 45.9733 46.0583 45.2966 46.0583 44.7012V43.5645ZM40.6453 28.4623C43.857 28.0473 46.8341 27.8037 49.5767 27.7316C50.0819 26.1799 50.6232 24.6462 51.2006 23.1306L52.8786 18.8002C53.456 17.4289 54.0244 16.1298 54.5837 14.9029L56.1535 11.5739C52.4005 12.5482 48.6926 15.787 45.0298 21.2901C44.254 22.4449 43.4961 23.6358 42.7564 24.8627L40.6453 28.4623Z"/>
<path d="M89.0101 44.2411C89.389 44.2411 89.5785 44.4396 89.5785 44.8365C89.5785 46.3882 88.7756 47.7234 87.1697 48.8421C86.1052 49.5999 85.0948 49.9788 84.1385 49.9788C83.2002 49.9788 82.4514 49.8706 81.8921 49.6541C81.3327 49.4375 80.8275 49.0947 80.3765 48.6256C79.366 47.543 78.8608 46.0544 78.8608 44.1599C78.8608 43.781 78.933 43.1766 79.0773 42.3466C77.6158 44.602 76.3618 46.1898 75.3153 47.11C73.2043 49.0226 71.1383 49.9788 69.1175 49.9788C65.9238 49.9788 63.8308 48.5354 62.8385 45.6485C62.4776 44.5839 62.2972 43.2487 62.2972 41.6429C62.2972 40.037 62.5407 38.4131 63.0279 36.7712C63.5151 35.1293 64.1737 33.5685 65.0036 32.089C65.8517 30.6095 66.826 29.2382 67.9266 27.9752C69.0453 26.6941 70.2181 25.5844 71.4451 24.6462C74.0794 22.6795 76.4611 21.6961 78.5902 21.6961C80.7193 21.6961 82.4244 22.5622 83.7054 24.2943C86.8449 13.5406 89.2086 7.19841 90.7964 5.26779C91.464 4.47389 92.1677 4.07693 92.9075 4.07693C94.1344 4.07693 95.0636 4.42878 95.6951 5.13246C95.8936 5.36702 95.9928 5.60159 95.9928 5.83615C95.9928 6.07071 95.8485 6.50375 95.5598 7.13526C95.2711 7.76677 94.8471 8.78621 94.2878 10.1936C92.6819 14.4337 91.5542 17.5372 90.9047 19.5039C89.2447 24.5379 88.126 28.0022 87.5486 29.8968L86.0601 34.9037C84.779 39.3604 84.1385 42.1932 84.1385 43.4021C84.1385 44.611 84.5805 45.2154 85.4646 45.2154C86.2766 45.2154 86.9261 45.1072 87.4133 44.8907L88.4418 44.4035C88.6402 44.2952 88.8297 44.2411 89.0101 44.2411ZM70.4166 45.9191C72.2751 45.9191 74.4042 44.1058 76.8039 40.4791C79.3119 36.7261 81.0621 32.6393 82.0545 28.2187C81.9823 26.9918 81.4681 26.0896 80.5118 25.5123C80.187 25.3138 79.6908 25.2145 79.0232 25.2145C78.3737 25.2145 77.6068 25.4581 76.7227 25.9453C75.8566 26.4144 75.0086 27.055 74.1786 27.8669C73.3667 28.6788 72.5998 29.6351 71.8781 30.7358C71.1744 31.8184 70.561 32.9731 70.0377 34.2001C68.901 36.8705 68.3326 39.4957 68.3326 42.0759C68.3326 44.6381 69.0273 45.9191 70.4166 45.9191Z"/>
<path d="M113.774 42.509C113.774 44.1689 114.361 44.9989 115.534 44.9989C116.346 44.9989 117.013 44.8726 117.536 44.62C118.078 44.3674 118.439 44.2411 118.619 44.2411C118.998 44.2411 119.187 44.4396 119.187 44.8365C119.187 46.3882 118.375 47.7234 116.752 48.8421C115.037 50.0149 113.287 50.3036 111.501 49.7082C110.328 49.2932 109.462 48.4001 108.903 47.0288C108.632 46.3251 108.497 45.6846 108.497 45.1072C108.497 44.1689 108.587 43.1766 108.767 42.1301C107.089 45.5583 105.005 47.9219 102.515 49.221C101.523 49.7262 100.468 49.9788 99.3489 49.9788C98.2302 49.9788 97.2559 49.7533 96.4259 49.3022C95.6139 48.8331 94.9193 48.1926 94.3419 47.3806C93.1691 45.6846 92.6368 43.5555 92.7451 40.9933C92.8533 37.7816 93.8006 34.6331 95.5869 31.5477C97.2288 28.6608 99.3038 26.3062 101.812 24.4838C104.32 22.6253 106.665 21.6961 108.849 21.6961C111.032 21.6961 112.791 22.6975 114.126 24.7003C115.371 22.6975 116.472 21.6961 117.428 21.6961C118.457 21.6961 119.232 21.8856 119.756 22.2645C120.748 22.9862 121.1 23.6177 120.811 24.159C116.282 33.4332 113.955 39.2071 113.829 41.4805C113.792 41.8053 113.774 42.1481 113.774 42.509ZM98.7535 42.6172C98.7535 44.7824 99.4481 45.865 100.837 45.865C101.902 45.865 103.21 44.9628 104.762 43.1585C107.035 40.5062 109.047 36.9336 110.797 32.4408C111.357 31.0335 111.826 29.6261 112.205 28.2187C112.132 26.9918 111.618 26.0896 110.662 25.5123C110.337 25.3138 109.85 25.2145 109.2 25.2145C108.569 25.2145 107.82 25.4491 106.954 25.9182C106.106 26.3874 105.276 27.0279 104.464 27.8398C103.67 28.6518 102.921 29.6171 102.218 30.7358C101.532 31.8364 100.928 33.0363 100.404 34.3354C99.3038 37.114 98.7535 39.8746 98.7535 42.6172Z"/>
<path d="M143.329 26.8114C142.283 26.8114 140.37 28.327 137.591 31.3583C135.516 33.7219 134.01 35.4992 133.072 36.69L130.636 39.7754C129.589 41.7602 128.768 43.4111 128.173 44.7283L126.711 47.8678C126.332 48.6436 125.999 49.194 125.71 49.5187C125.439 49.8255 125.06 49.9788 124.573 49.9788C124.104 49.9788 123.644 49.8886 123.193 49.7082C122.76 49.5458 122.381 49.3293 122.056 49.0586C121.371 48.4813 121.028 47.8497 121.028 47.1641C121.028 46.8935 121.226 46.3612 121.623 45.5673L122.652 43.375C122.976 42.7255 123.355 41.8955 123.788 40.8851L125.304 37.1772C127.433 31.8544 128.498 28.4172 128.498 26.8655C128.498 26.0355 128.227 25.422 127.686 25.0251L127.144 24.6462C126.964 24.5199 126.874 24.3034 126.874 23.9966C126.874 23.6719 126.991 23.3651 127.226 23.0764C127.478 22.7877 127.803 22.5351 128.2 22.3186C129.012 21.9036 129.824 21.6961 130.636 21.6961C131.466 21.6961 132.115 21.7863 132.584 21.9668C133.054 22.1472 133.46 22.3908 133.802 22.6975C134.488 23.329 134.831 23.9876 134.831 24.6733C134.831 25.3589 134.741 26.0536 134.56 26.7572C134.38 27.4429 134.154 28.1466 133.884 28.8683C133.613 29.572 133.324 30.2576 133.017 30.9252C132.296 32.4769 131.845 33.4332 131.664 33.7941C131.502 34.1369 131.457 34.2632 131.529 34.173C134.831 29.8968 136.816 27.3707 137.483 26.5949C138.873 24.989 139.955 23.8884 140.731 23.2929C142.156 22.2284 143.501 21.6961 144.764 21.6961C146.045 21.6961 147.064 22.0931 147.822 22.887C148.58 23.6809 148.959 24.7274 148.959 26.0265C148.959 27.1632 148.67 28.4984 148.093 30.0321C147.515 31.5658 147.127 32.6393 146.929 33.2528L150.907 28.0022L153.127 25.3499C154.462 23.8523 155.635 22.8689 156.645 22.3998C157.655 21.9307 158.476 21.6961 159.108 21.6961C159.758 21.6961 160.389 21.8134 161.003 22.048C161.634 22.2825 162.166 22.6163 162.599 23.0494C163.52 23.9335 163.98 25.1063 163.98 26.5678C163.98 27.9752 163.655 29.4186 163.005 30.8982C162.356 32.3777 161.787 33.5956 161.3 34.5519C160.813 35.4901 160.344 36.4374 159.893 37.3937C158.576 40.2626 157.917 42.3917 157.917 43.781C157.917 44.7553 158.314 45.2425 159.108 45.2425C159.866 45.2425 160.551 45.0801 161.165 44.7553C161.796 44.4306 162.202 44.2682 162.383 44.2682C162.762 44.2682 162.951 44.4576 162.951 44.8365C162.951 46.4424 162.13 47.7866 160.488 48.8692C159.388 49.609 158.377 49.9788 157.457 49.9788C156.555 49.9788 155.824 49.8706 155.265 49.6541C154.705 49.4375 154.2 49.0947 153.749 48.6256C152.739 47.5791 152.234 46.271 152.234 44.7012C152.234 43.1314 152.432 41.688 152.829 40.3708C153.226 39.0537 153.695 37.7816 154.236 36.5547C154.778 35.3097 155.319 34.173 155.86 33.1445C156.42 32.098 156.844 31.268 157.132 30.6546C157.71 29.3915 157.998 28.4623 157.998 27.8669C157.998 27.1632 157.628 26.8114 156.889 26.8114C155.914 26.8114 154.164 28.4262 151.638 31.656C149.726 34.164 148.399 35.9683 147.66 37.0689L145.792 39.7754C144.746 41.7602 143.943 43.4111 143.383 44.7283L142.003 47.8678C141.66 48.6436 141.362 49.194 141.11 49.5187C140.857 49.8255 140.505 49.9788 140.054 49.9788C139.603 49.9788 139.161 49.9067 138.728 49.7623C138.313 49.618 137.952 49.4285 137.646 49.194C136.942 48.6707 136.59 48.1204 136.59 47.543C136.59 46.9476 136.78 46.1447 137.158 45.1342C137.555 44.1058 138.043 42.96 138.62 41.697L142.409 33.6858C143.762 30.7087 144.439 28.8232 144.439 28.0293C144.439 27.2173 144.069 26.8114 143.329 26.8114ZM146.009 34.4436C146.027 34.4436 146.036 34.4346 146.036 34.4166L146.063 34.3625C146.027 34.3985 146.009 34.4256 146.009 34.4436Z"/>
<path d="M190.124 42.8879C190.666 42.8879 190.936 43.4021 190.936 44.4306C190.936 45.459 190.783 46.298 190.476 46.9476C190.169 47.5971 189.745 48.1475 189.204 48.5985C188.103 49.5187 186.642 49.9788 184.82 49.9788C183.557 49.9788 182.122 49.7262 180.516 49.221C178.91 48.6978 177.674 48.3189 176.808 48.0843C175.96 47.8497 175.175 47.7325 174.454 47.7325C173.75 47.7325 173.173 47.8046 172.722 47.949C172.289 48.0933 171.883 48.2738 171.504 48.4903C171.143 48.7068 170.791 48.9323 170.448 49.1669C169.726 49.6721 169.23 49.9247 168.96 49.9247C168.707 49.9247 168.454 49.8525 168.202 49.7082C167.949 49.5638 167.715 49.3744 167.498 49.1398C166.993 48.5985 166.74 48.1745 166.74 47.8678C166.74 47.5611 166.903 47.0107 167.227 46.2168C167.57 45.4229 168.247 44.3313 169.257 42.942C170.268 41.5346 171.386 40.1543 172.613 38.8011C173.84 37.4298 175.139 36.0766 176.511 34.7414C180.516 30.8079 183.114 28.2097 184.305 26.9467C185.514 25.6837 186.579 24.4297 187.499 23.1847C189.502 20.4962 190.503 18.0694 190.503 15.9043C190.503 13.6128 189.682 12.1332 188.04 11.4656C187.535 11.2672 186.876 11.1679 186.065 11.1679C185.271 11.1679 184.468 11.4025 183.656 11.8716C182.844 12.3227 182.158 12.9001 181.599 13.6037C180.444 15.0292 179.867 16.5719 179.867 18.2318C179.867 19.7475 180.3 20.6857 181.166 21.0466C181.527 21.209 181.707 21.4435 181.707 21.7503C181.707 22.3998 181.391 22.9952 180.76 23.5365C179.587 24.5469 178.586 25.0522 177.756 25.0522C176.926 25.0522 176.258 24.8988 175.753 24.5921C175.248 24.2853 174.824 23.8793 174.481 23.3741C173.795 22.3637 173.452 21.2721 173.452 20.0993C173.452 18.9084 173.597 17.8439 173.885 16.9057C174.174 15.9674 174.589 15.0562 175.13 14.1721C175.69 13.2699 176.348 12.4219 177.106 11.628C177.882 10.8341 178.748 10.1395 179.704 9.54402C181.815 8.24491 183.881 7.59536 185.902 7.59536C187.941 7.59536 189.547 7.86601 190.72 8.4073C191.911 8.9486 192.876 9.65228 193.616 10.5184C194.987 12.1783 195.673 14.2894 195.673 16.8515C195.673 21.0556 193.634 25.3048 189.556 29.599C187.409 31.8544 185.235 33.8663 183.033 35.6345L177.891 39.7754C175.094 42.0849 173.164 43.9795 172.099 45.459C173.488 44.8456 174.634 44.5118 175.536 44.4576C176.438 44.3854 177.169 44.3674 177.729 44.4035C178.306 44.4215 178.91 44.4576 179.542 44.5118C181.202 44.6561 182.528 44.7283 183.52 44.7283C184.513 44.7283 185.37 44.6381 186.092 44.4576C186.831 44.2591 187.427 44.0426 187.878 43.8081C188.347 43.5735 188.735 43.366 189.042 43.1856C189.348 42.9871 189.709 42.8879 190.124 42.8879Z"/>
<path d="M207.798 33.6046C207.094 33.6046 206.742 33.334 206.742 32.7927C206.742 31.5297 207.184 30.4561 208.068 29.572C208.357 29.2833 208.916 29.0217 209.746 28.7871C210.594 28.5345 211.677 28.0203 212.994 27.2444C214.329 26.4505 215.538 25.4942 216.621 24.3755C219.057 21.8314 220.274 18.9355 220.274 15.6877C220.274 14.2804 219.923 13.1797 219.219 12.3858C218.515 11.5739 217.622 11.1679 216.539 11.1679C215.457 11.1679 214.465 11.4025 213.562 11.8716C212.678 12.3227 211.902 12.9001 211.235 13.6037C209.809 15.0833 209.097 16.626 209.097 18.2318C209.097 19.7475 209.53 20.6857 210.396 21.0466C210.757 21.209 210.937 21.4435 210.937 21.7503C210.937 22.3998 210.621 22.9952 209.99 23.5365C208.817 24.5469 207.825 25.0522 207.013 25.0522C206.201 25.0522 205.542 24.9259 205.037 24.6733C204.532 24.4206 204.099 24.0688 203.738 23.6177C203.034 22.6795 202.682 21.6059 202.682 20.397C202.682 19.1881 202.845 18.1055 203.169 17.1492C203.494 16.1929 203.945 15.2637 204.523 14.3616C205.118 13.4414 205.831 12.5753 206.661 11.7633C207.509 10.9514 208.447 10.2297 209.476 9.59815C211.677 8.26296 213.824 7.59536 215.917 7.59536C218.028 7.59536 219.67 7.86601 220.843 8.4073C222.034 8.9486 222.99 9.65228 223.712 10.5184C225.047 12.1242 225.714 14.2353 225.714 16.8515C225.714 21.1097 223.766 25.0882 219.868 28.7871C218.425 30.1584 217.036 31.1778 215.7 31.8454C217.252 32.3145 218.317 33.5956 218.894 35.6886C219.075 36.3382 219.165 37.087 219.165 37.935C219.165 38.765 219.011 39.6672 218.705 40.6415C218.398 41.6158 217.965 42.5631 217.406 43.4833C216.846 44.3855 216.161 45.2335 215.349 46.0274C214.537 46.8032 213.626 47.4889 212.615 48.0843C210.432 49.3473 208.068 49.9788 205.524 49.9788C202.908 49.9788 200.869 49.2932 199.407 47.9219C198.144 46.7491 197.513 45.3237 197.513 43.6457C197.513 42.3285 197.928 41.1196 198.758 40.019C199.75 38.756 201.04 38.1245 202.628 38.1245C203.512 38.1245 204.144 38.3139 204.523 38.6928C205.19 39.3604 205.353 39.8927 205.01 40.2896C204.685 40.6685 204.396 41.0204 204.144 41.3452C203.909 41.6519 203.711 41.9677 203.548 42.2924C203.224 42.9059 203.061 43.4652 203.061 43.9705C203.061 44.4757 203.106 44.8816 203.197 45.1884C203.287 45.4771 203.431 45.7387 203.63 45.9733C204.099 46.4965 204.82 46.7581 205.795 46.7581C206.769 46.7581 207.716 46.4514 208.637 45.8379C209.575 45.2245 210.396 44.4396 211.099 43.4833C212.597 41.4444 213.346 39.2522 213.346 36.9065C213.346 34.5429 212.362 33.3611 210.396 33.3611L207.798 33.6046Z"/>
</mask>
<path d="M5.29869 49.0586C4.93782 48.788 4.64913 48.4903 4.43261 48.1655C4.21609 47.8227 4.09881 47.534 4.08077 47.2994C4.06273 47.0468 4.10784 46.7491 4.21609 46.4063C4.3424 46.0454 4.50479 45.6124 4.70326 45.1072C8.38407 36.0495 10.2245 29.9689 10.2245 26.8655C10.1704 25.9994 9.87264 25.386 9.33134 25.0251L8.79005 24.6462C8.62766 24.5199 8.53744 24.3034 8.5194 23.9966C8.5194 23.6719 8.63668 23.3651 8.87124 23.0764C9.1058 22.7877 9.41254 22.5351 9.79144 22.3186C10.5673 21.9036 11.3612 21.6961 12.1731 21.6961C13.0031 21.6961 13.6437 21.7863 14.0947 21.9668C14.5639 22.1472 14.9608 22.3908 15.2856 22.6975C15.9712 23.3471 16.3141 24.0327 16.3141 24.7544C16.3321 25.4762 16.2509 26.2069 16.0705 26.9467C15.9081 27.6865 15.7096 28.4172 15.4751 29.1389C15.2405 29.8426 15.0059 30.5192 14.7714 31.1688C14.5368 31.8003 14.3834 32.2694 14.3113 32.5762C14.1669 33.2077 14.1128 33.6046 14.1489 33.767C14.5819 33.3881 14.8435 33.0182 14.9338 32.6574L15.9893 30.6546C18.3349 26.4325 20.6264 23.6358 22.8637 22.2645C23.5133 21.8856 24.2892 21.6961 25.1913 21.6961C26.1115 21.6961 26.8513 22.0209 27.4106 22.6705C27.97 23.302 28.2587 24.0057 28.2767 24.7815C28.3128 25.5574 28.2587 26.2069 28.1143 26.7302C27.988 27.2354 27.7895 27.7135 27.5189 28.1646C26.9235 29.175 26.2017 29.6802 25.3537 29.6802C25.1191 29.6802 24.9026 29.599 24.7042 29.4367L24.1087 28.9224C23.5133 28.3992 22.9359 28.1375 22.3766 28.1375C21.8353 28.1375 21.1677 28.4984 20.3738 29.2201C19.5979 29.9419 18.786 30.8711 17.938 32.0078C15.0871 35.7788 12.7596 40.001 10.9552 44.6741L9.76438 47.8137C9.45764 48.5895 9.187 49.1489 8.95244 49.4917C8.71787 49.8165 8.36603 49.9788 7.89691 49.9788C7.44583 49.9788 6.98573 49.8886 6.5166 49.7082C6.06552 49.5458 5.65955 49.3293 5.29869 49.0586Z" fill="#B43131"/>
<path d="M46.0583 43.5645C46.0583 41.1286 46.7529 37.3937 48.1423 32.3597C43.7939 32.4679 40.4649 32.5942 38.1554 32.7386C37.4517 34.0196 36.8111 35.2375 36.2338 36.3923L34.5557 39.7213C32.3364 44.0877 30.3427 46.9656 28.5744 48.355C27.2212 49.4375 25.7867 49.9788 24.2711 49.9788C23.1164 49.9788 22.2413 49.5999 21.6458 48.8421C21.4293 48.5354 21.303 48.2467 21.2669 47.976C21.2308 47.6874 21.294 47.4979 21.4564 47.4077C23.5313 46.6318 25.2184 45.45 26.5175 43.8622C27.6542 42.4368 28.7909 40.6956 29.9277 38.6387L32.986 33.1716L31.2809 33.4152C30.1983 33.6137 29.657 33.4422 29.657 32.901C29.657 32.3597 29.9818 31.8454 30.6313 31.3583C31.7681 30.5102 32.8777 29.9509 33.9603 29.6802L35.1241 29.4096C38.0832 24.5199 40.3386 21.1007 41.8903 19.152C43.4601 17.2034 44.8855 15.5795 46.1665 14.2804C47.4656 12.9813 48.8279 11.8355 50.2533 10.8431C53.3748 8.69599 56.4512 7.62242 59.4824 7.62242C60.4026 7.62242 61.0251 7.81188 61.3499 8.19079C61.8912 8.78621 62.0626 9.42674 61.8641 10.1124C61.6656 10.78 61.3409 11.7453 60.8898 13.0083C58.0029 20.8752 56.2437 25.7468 55.6122 27.6233C55.9008 27.6053 56.1625 27.5962 56.397 27.5962H56.9925C59.0133 27.5962 60.0959 27.7947 60.2402 28.1917C60.2763 28.318 60.2944 28.5525 60.2944 28.8954C60.2944 29.2201 60.1861 29.599 59.9696 30.0321C59.7711 30.4651 59.4373 30.835 58.9682 31.1417C58.0119 31.7913 56.4061 32.1702 54.1507 32.2785C52.9237 36.5186 52.22 39.4506 52.0396 41.0745C51.8772 42.6984 51.9313 43.799 52.202 44.3764C52.4907 44.9358 52.8876 45.2154 53.3928 45.2154C53.9161 45.2154 54.3401 45.1703 54.6649 45.0801C54.9897 44.9719 55.2784 44.8546 55.531 44.7283L56.2346 44.4035C56.4151 44.2952 56.5955 44.2411 56.7759 44.2411C56.9744 44.2411 57.1368 44.3674 57.2631 44.62C57.3894 44.8546 57.4526 45.1703 57.4526 45.5673C57.4526 45.9642 57.2812 46.4424 56.9383 47.0017C56.6136 47.543 56.1805 48.0302 55.6392 48.4632C54.3762 49.4736 52.9508 49.9788 51.363 49.9788C48.9271 49.9788 47.3033 48.8963 46.4913 46.7311C46.2026 45.9733 46.0583 45.2966 46.0583 44.7012V43.5645ZM40.6453 28.4623C43.857 28.0473 46.8341 27.8037 49.5767 27.7316C50.0819 26.1799 50.6232 24.6462 51.2006 23.1306L52.8786 18.8002C53.456 17.4289 54.0244 16.1298 54.5837 14.9029L56.1535 11.5739C52.4005 12.5482 48.6926 15.787 45.0298 21.2901C44.254 22.4449 43.4961 23.6358 42.7564 24.8627L40.6453 28.4623Z" fill="#B43131"/>
<path d="M89.0101 44.2411C89.389 44.2411 89.5785 44.4396 89.5785 44.8365C89.5785 46.3882 88.7756 47.7234 87.1697 48.8421C86.1052 49.5999 85.0948 49.9788 84.1385 49.9788C83.2002 49.9788 82.4514 49.8706 81.8921 49.6541C81.3327 49.4375 80.8275 49.0947 80.3765 48.6256C79.366 47.543 78.8608 46.0544 78.8608 44.1599C78.8608 43.781 78.933 43.1766 79.0773 42.3466C77.6158 44.602 76.3618 46.1898 75.3153 47.11C73.2043 49.0226 71.1383 49.9788 69.1175 49.9788C65.9238 49.9788 63.8308 48.5354 62.8385 45.6485C62.4776 44.5839 62.2972 43.2487 62.2972 41.6429C62.2972 40.037 62.5407 38.4131 63.0279 36.7712C63.5151 35.1293 64.1737 33.5685 65.0036 32.089C65.8517 30.6095 66.826 29.2382 67.9266 27.9752C69.0453 26.6941 70.2181 25.5844 71.4451 24.6462C74.0794 22.6795 76.4611 21.6961 78.5902 21.6961C80.7193 21.6961 82.4244 22.5622 83.7054 24.2943C86.8449 13.5406 89.2086 7.19841 90.7964 5.26779C91.464 4.47389 92.1677 4.07693 92.9075 4.07693C94.1344 4.07693 95.0636 4.42878 95.6951 5.13246C95.8936 5.36702 95.9928 5.60159 95.9928 5.83615C95.9928 6.07071 95.8485 6.50375 95.5598 7.13526C95.2711 7.76677 94.8471 8.78621 94.2878 10.1936C92.6819 14.4337 91.5542 17.5372 90.9047 19.5039C89.2447 24.5379 88.126 28.0022 87.5486 29.8968L86.0601 34.9037C84.779 39.3604 84.1385 42.1932 84.1385 43.4021C84.1385 44.611 84.5805 45.2154 85.4646 45.2154C86.2766 45.2154 86.9261 45.1072 87.4133 44.8907L88.4418 44.4035C88.6402 44.2952 88.8297 44.2411 89.0101 44.2411ZM70.4166 45.9191C72.2751 45.9191 74.4042 44.1058 76.8039 40.4791C79.3119 36.7261 81.0621 32.6393 82.0545 28.2187C81.9823 26.9918 81.4681 26.0896 80.5118 25.5123C80.187 25.3138 79.6908 25.2145 79.0232 25.2145C78.3737 25.2145 77.6068 25.4581 76.7227 25.9453C75.8566 26.4144 75.0086 27.055 74.1786 27.8669C73.3667 28.6788 72.5998 29.6351 71.8781 30.7358C71.1744 31.8184 70.561 32.9731 70.0377 34.2001C68.901 36.8705 68.3326 39.4957 68.3326 42.0759C68.3326 44.6381 69.0273 45.9191 70.4166 45.9191Z" fill="#B43131"/>
<path d="M113.774 42.509C113.774 44.1689 114.361 44.9989 115.534 44.9989C116.346 44.9989 117.013 44.8726 117.536 44.62C118.078 44.3674 118.439 44.2411 118.619 44.2411C118.998 44.2411 119.187 44.4396 119.187 44.8365C119.187 46.3882 118.375 47.7234 116.752 48.8421C115.037 50.0149 113.287 50.3036 111.501 49.7082C110.328 49.2932 109.462 48.4001 108.903 47.0288C108.632 46.3251 108.497 45.6846 108.497 45.1072C108.497 44.1689 108.587 43.1766 108.767 42.1301C107.089 45.5583 105.005 47.9219 102.515 49.221C101.523 49.7262 100.468 49.9788 99.3489 49.9788C98.2302 49.9788 97.2559 49.7533 96.4259 49.3022C95.6139 48.8331 94.9193 48.1926 94.3419 47.3806C93.1691 45.6846 92.6368 43.5555 92.7451 40.9933C92.8533 37.7816 93.8006 34.6331 95.5869 31.5477C97.2288 28.6608 99.3038 26.3062 101.812 24.4838C104.32 22.6253 106.665 21.6961 108.849 21.6961C111.032 21.6961 112.791 22.6975 114.126 24.7003C115.371 22.6975 116.472 21.6961 117.428 21.6961C118.457 21.6961 119.232 21.8856 119.756 22.2645C120.748 22.9862 121.1 23.6177 120.811 24.159C116.282 33.4332 113.955 39.2071 113.829 41.4805C113.792 41.8053 113.774 42.1481 113.774 42.509ZM98.7535 42.6172C98.7535 44.7824 99.4481 45.865 100.837 45.865C101.902 45.865 103.21 44.9628 104.762 43.1585C107.035 40.5062 109.047 36.9336 110.797 32.4408C111.357 31.0335 111.826 29.6261 112.205 28.2187C112.132 26.9918 111.618 26.0896 110.662 25.5123C110.337 25.3138 109.85 25.2145 109.2 25.2145C108.569 25.2145 107.82 25.4491 106.954 25.9182C106.106 26.3874 105.276 27.0279 104.464 27.8398C103.67 28.6518 102.921 29.6171 102.218 30.7358C101.532 31.8364 100.928 33.0363 100.404 34.3354C99.3038 37.114 98.7535 39.8746 98.7535 42.6172Z" fill="#B43131"/>
<path d="M143.329 26.8114C142.283 26.8114 140.37 28.327 137.591 31.3583C135.516 33.7219 134.01 35.4992 133.072 36.69L130.636 39.7754C129.589 41.7602 128.768 43.4111 128.173 44.7283L126.711 47.8678C126.332 48.6436 125.999 49.194 125.71 49.5187C125.439 49.8255 125.06 49.9788 124.573 49.9788C124.104 49.9788 123.644 49.8886 123.193 49.7082C122.76 49.5458 122.381 49.3293 122.056 49.0586C121.371 48.4813 121.028 47.8497 121.028 47.1641C121.028 46.8935 121.226 46.3612 121.623 45.5673L122.652 43.375C122.976 42.7255 123.355 41.8955 123.788 40.8851L125.304 37.1772C127.433 31.8544 128.498 28.4172 128.498 26.8655C128.498 26.0355 128.227 25.422 127.686 25.0251L127.144 24.6462C126.964 24.5199 126.874 24.3034 126.874 23.9966C126.874 23.6719 126.991 23.3651 127.226 23.0764C127.478 22.7877 127.803 22.5351 128.2 22.3186C129.012 21.9036 129.824 21.6961 130.636 21.6961C131.466 21.6961 132.115 21.7863 132.584 21.9668C133.054 22.1472 133.46 22.3908 133.802 22.6975C134.488 23.329 134.831 23.9876 134.831 24.6733C134.831 25.3589 134.741 26.0536 134.56 26.7572C134.38 27.4429 134.154 28.1466 133.884 28.8683C133.613 29.572 133.324 30.2576 133.017 30.9252C132.296 32.4769 131.845 33.4332 131.664 33.7941C131.502 34.1369 131.457 34.2632 131.529 34.173C134.831 29.8968 136.816 27.3707 137.483 26.5949C138.873 24.989 139.955 23.8884 140.731 23.2929C142.156 22.2284 143.501 21.6961 144.764 21.6961C146.045 21.6961 147.064 22.0931 147.822 22.887C148.58 23.6809 148.959 24.7274 148.959 26.0265C148.959 27.1632 148.67 28.4984 148.093 30.0321C147.515 31.5658 147.127 32.6393 146.929 33.2528L150.907 28.0022L153.127 25.3499C154.462 23.8523 155.635 22.8689 156.645 22.3998C157.655 21.9307 158.476 21.6961 159.108 21.6961C159.758 21.6961 160.389 21.8134 161.003 22.048C161.634 22.2825 162.166 22.6163 162.599 23.0494C163.52 23.9335 163.98 25.1063 163.98 26.5678C163.98 27.9752 163.655 29.4186 163.005 30.8982C162.356 32.3777 161.787 33.5956 161.3 34.5519C160.813 35.4901 160.344 36.4374 159.893 37.3937C158.576 40.2626 157.917 42.3917 157.917 43.781C157.917 44.7553 158.314 45.2425 159.108 45.2425C159.866 45.2425 160.551 45.0801 161.165 44.7553C161.796 44.4306 162.202 44.2682 162.383 44.2682C162.762 44.2682 162.951 44.4576 162.951 44.8365C162.951 46.4424 162.13 47.7866 160.488 48.8692C159.388 49.609 158.377 49.9788 157.457 49.9788C156.555 49.9788 155.824 49.8706 155.265 49.6541C154.705 49.4375 154.2 49.0947 153.749 48.6256C152.739 47.5791 152.234 46.271 152.234 44.7012C152.234 43.1314 152.432 41.688 152.829 40.3708C153.226 39.0537 153.695 37.7816 154.236 36.5547C154.778 35.3097 155.319 34.173 155.86 33.1445C156.42 32.098 156.844 31.268 157.132 30.6546C157.71 29.3915 157.998 28.4623 157.998 27.8669C157.998 27.1632 157.628 26.8114 156.889 26.8114C155.914 26.8114 154.164 28.4262 151.638 31.656C149.726 34.164 148.399 35.9683 147.66 37.0689L145.792 39.7754C144.746 41.7602 143.943 43.4111 143.383 44.7283L142.003 47.8678C141.66 48.6436 141.362 49.194 141.11 49.5187C140.857 49.8255 140.505 49.9788 140.054 49.9788C139.603 49.9788 139.161 49.9067 138.728 49.7623C138.313 49.618 137.952 49.4285 137.646 49.194C136.942 48.6707 136.59 48.1204 136.59 47.543C136.59 46.9476 136.78 46.1447 137.158 45.1342C137.555 44.1058 138.043 42.96 138.62 41.697L142.409 33.6858C143.762 30.7087 144.439 28.8232 144.439 28.0293C144.439 27.2173 144.069 26.8114 143.329 26.8114ZM146.009 34.4436C146.027 34.4436 146.036 34.4346 146.036 34.4166L146.063 34.3625C146.027 34.3985 146.009 34.4256 146.009 34.4436Z" fill="#B43131"/>
<path d="M190.124 42.8879C190.666 42.8879 190.936 43.4021 190.936 44.4306C190.936 45.459 190.783 46.298 190.476 46.9476C190.169 47.5971 189.745 48.1475 189.204 48.5985C188.103 49.5187 186.642 49.9788 184.82 49.9788C183.557 49.9788 182.122 49.7262 180.516 49.221C178.91 48.6978 177.674 48.3189 176.808 48.0843C175.96 47.8497 175.175 47.7325 174.454 47.7325C173.75 47.7325 173.173 47.8046 172.722 47.949C172.289 48.0933 171.883 48.2738 171.504 48.4903C171.143 48.7068 170.791 48.9323 170.448 49.1669C169.726 49.6721 169.23 49.9247 168.96 49.9247C168.707 49.9247 168.454 49.8525 168.202 49.7082C167.949 49.5638 167.715 49.3744 167.498 49.1398C166.993 48.5985 166.74 48.1745 166.74 47.8678C166.74 47.5611 166.903 47.0107 167.227 46.2168C167.57 45.4229 168.247 44.3313 169.257 42.942C170.268 41.5346 171.386 40.1543 172.613 38.8011C173.84 37.4298 175.139 36.0766 176.511 34.7414C180.516 30.8079 183.114 28.2097 184.305 26.9467C185.514 25.6837 186.579 24.4297 187.499 23.1847C189.502 20.4962 190.503 18.0694 190.503 15.9043C190.503 13.6128 189.682 12.1332 188.04 11.4656C187.535 11.2672 186.876 11.1679 186.065 11.1679C185.271 11.1679 184.468 11.4025 183.656 11.8716C182.844 12.3227 182.158 12.9001 181.599 13.6037C180.444 15.0292 179.867 16.5719 179.867 18.2318C179.867 19.7475 180.3 20.6857 181.166 21.0466C181.527 21.209 181.707 21.4435 181.707 21.7503C181.707 22.3998 181.391 22.9952 180.76 23.5365C179.587 24.5469 178.586 25.0522 177.756 25.0522C176.926 25.0522 176.258 24.8988 175.753 24.5921C175.248 24.2853 174.824 23.8793 174.481 23.3741C173.795 22.3637 173.452 21.2721 173.452 20.0993C173.452 18.9084 173.597 17.8439 173.885 16.9057C174.174 15.9674 174.589 15.0562 175.13 14.1721C175.69 13.2699 176.348 12.4219 177.106 11.628C177.882 10.8341 178.748 10.1395 179.704 9.54402C181.815 8.24491 183.881 7.59536 185.902 7.59536C187.941 7.59536 189.547 7.86601 190.72 8.4073C191.911 8.9486 192.876 9.65228 193.616 10.5184C194.987 12.1783 195.673 14.2894 195.673 16.8515C195.673 21.0556 193.634 25.3048 189.556 29.599C187.409 31.8544 185.235 33.8663 183.033 35.6345L177.891 39.7754C175.094 42.0849 173.164 43.9795 172.099 45.459C173.488 44.8456 174.634 44.5118 175.536 44.4576C176.438 44.3854 177.169 44.3674 177.729 44.4035C178.306 44.4215 178.91 44.4576 179.542 44.5118C181.202 44.6561 182.528 44.7283 183.52 44.7283C184.513 44.7283 185.37 44.6381 186.092 44.4576C186.831 44.2591 187.427 44.0426 187.878 43.8081C188.347 43.5735 188.735 43.366 189.042 43.1856C189.348 42.9871 189.709 42.8879 190.124 42.8879Z" fill="#B43131"/>
<path d="M207.798 33.6046C207.094 33.6046 206.742 33.334 206.742 32.7927C206.742 31.5297 207.184 30.4561 208.068 29.572C208.357 29.2833 208.916 29.0217 209.746 28.7871C210.594 28.5345 211.677 28.0203 212.994 27.2444C214.329 26.4505 215.538 25.4942 216.621 24.3755C219.057 21.8314 220.274 18.9355 220.274 15.6877C220.274 14.2804 219.923 13.1797 219.219 12.3858C218.515 11.5739 217.622 11.1679 216.539 11.1679C215.457 11.1679 214.465 11.4025 213.562 11.8716C212.678 12.3227 211.902 12.9001 211.235 13.6037C209.809 15.0833 209.097 16.626 209.097 18.2318C209.097 19.7475 209.53 20.6857 210.396 21.0466C210.757 21.209 210.937 21.4435 210.937 21.7503C210.937 22.3998 210.621 22.9952 209.99 23.5365C208.817 24.5469 207.825 25.0522 207.013 25.0522C206.201 25.0522 205.542 24.9259 205.037 24.6733C204.532 24.4206 204.099 24.0688 203.738 23.6177C203.034 22.6795 202.682 21.6059 202.682 20.397C202.682 19.1881 202.845 18.1055 203.169 17.1492C203.494 16.1929 203.945 15.2637 204.523 14.3616C205.118 13.4414 205.831 12.5753 206.661 11.7633C207.509 10.9514 208.447 10.2297 209.476 9.59815C211.677 8.26296 213.824 7.59536 215.917 7.59536C218.028 7.59536 219.67 7.86601 220.843 8.4073C222.034 8.9486 222.99 9.65228 223.712 10.5184C225.047 12.1242 225.714 14.2353 225.714 16.8515C225.714 21.1097 223.766 25.0882 219.868 28.7871C218.425 30.1584 217.036 31.1778 215.7 31.8454C217.252 32.3145 218.317 33.5956 218.894 35.6886C219.075 36.3382 219.165 37.087 219.165 37.935C219.165 38.765 219.011 39.6672 218.705 40.6415C218.398 41.6158 217.965 42.5631 217.406 43.4833C216.846 44.3855 216.161 45.2335 215.349 46.0274C214.537 46.8032 213.626 47.4889 212.615 48.0843C210.432 49.3473 208.068 49.9788 205.524 49.9788C202.908 49.9788 200.869 49.2932 199.407 47.9219C198.144 46.7491 197.513 45.3237 197.513 43.6457C197.513 42.3285 197.928 41.1196 198.758 40.019C199.75 38.756 201.04 38.1245 202.628 38.1245C203.512 38.1245 204.144 38.3139 204.523 38.6928C205.19 39.3604 205.353 39.8927 205.01 40.2896C204.685 40.6685 204.396 41.0204 204.144 41.3452C203.909 41.6519 203.711 41.9677 203.548 42.2924C203.224 42.9059 203.061 43.4652 203.061 43.9705C203.061 44.4757 203.106 44.8816 203.197 45.1884C203.287 45.4771 203.431 45.7387 203.63 45.9733C204.099 46.4965 204.82 46.7581 205.795 46.7581C206.769 46.7581 207.716 46.4514 208.637 45.8379C209.575 45.2245 210.396 44.4396 211.099 43.4833C212.597 41.4444 213.346 39.2522 213.346 36.9065C213.346 34.5429 212.362 33.3611 210.396 33.3611L207.798 33.6046Z" fill="#B43131"/>
<path d="M5.29869 49.0586C4.93782 48.788 4.64913 48.4903 4.43261 48.1655C4.21609 47.8227 4.09881 47.534 4.08077 47.2994C4.06273 47.0468 4.10784 46.7491 4.21609 46.4063C4.3424 46.0454 4.50479 45.6124 4.70326 45.1072C8.38407 36.0495 10.2245 29.9689 10.2245 26.8655C10.1704 25.9994 9.87264 25.386 9.33134 25.0251L8.79005 24.6462C8.62766 24.5199 8.53744 24.3034 8.5194 23.9966C8.5194 23.6719 8.63668 23.3651 8.87124 23.0764C9.1058 22.7877 9.41254 22.5351 9.79144 22.3186C10.5673 21.9036 11.3612 21.6961 12.1731 21.6961C13.0031 21.6961 13.6437 21.7863 14.0947 21.9668C14.5639 22.1472 14.9608 22.3908 15.2856 22.6975C15.9712 23.3471 16.3141 24.0327 16.3141 24.7544C16.3321 25.4762 16.2509 26.2069 16.0705 26.9467C15.9081 27.6865 15.7096 28.4172 15.4751 29.1389C15.2405 29.8426 15.0059 30.5192 14.7714 31.1688C14.5368 31.8003 14.3834 32.2694 14.3113 32.5762C14.1669 33.2077 14.1128 33.6046 14.1489 33.767C14.5819 33.3881 14.8435 33.0182 14.9338 32.6574L15.9893 30.6546C18.3349 26.4325 20.6264 23.6358 22.8637 22.2645C23.5133 21.8856 24.2892 21.6961 25.1913 21.6961C26.1115 21.6961 26.8513 22.0209 27.4106 22.6705C27.97 23.302 28.2587 24.0057 28.2767 24.7815C28.3128 25.5574 28.2587 26.2069 28.1143 26.7302C27.988 27.2354 27.7895 27.7135 27.5189 28.1646C26.9235 29.175 26.2017 29.6802 25.3537 29.6802C25.1191 29.6802 24.9026 29.599 24.7042 29.4367L24.1087 28.9224C23.5133 28.3992 22.9359 28.1375 22.3766 28.1375C21.8353 28.1375 21.1677 28.4984 20.3738 29.2201C19.5979 29.9419 18.786 30.8711 17.938 32.0078C15.0871 35.7788 12.7596 40.001 10.9552 44.6741L9.76438 47.8137C9.45764 48.5895 9.187 49.1489 8.95244 49.4917C8.71787 49.8165 8.36603 49.9788 7.89691 49.9788C7.44583 49.9788 6.98573 49.8886 6.5166 49.7082C6.06552 49.5458 5.65955 49.3293 5.29869 49.0586Z" stroke="#B43131" stroke-width="1.33342" mask="url(#path-1-outside-1)"/>
<path d="M46.0583 43.5645C46.0583 41.1286 46.7529 37.3937 48.1423 32.3597C43.7939 32.4679 40.4649 32.5942 38.1554 32.7386C37.4517 34.0196 36.8111 35.2375 36.2338 36.3923L34.5557 39.7213C32.3364 44.0877 30.3427 46.9656 28.5744 48.355C27.2212 49.4375 25.7867 49.9788 24.2711 49.9788C23.1164 49.9788 22.2413 49.5999 21.6458 48.8421C21.4293 48.5354 21.303 48.2467 21.2669 47.976C21.2308 47.6874 21.294 47.4979 21.4564 47.4077C23.5313 46.6318 25.2184 45.45 26.5175 43.8622C27.6542 42.4368 28.7909 40.6956 29.9277 38.6387L32.986 33.1716L31.2809 33.4152C30.1983 33.6137 29.657 33.4422 29.657 32.901C29.657 32.3597 29.9818 31.8454 30.6313 31.3583C31.7681 30.5102 32.8777 29.9509 33.9603 29.6802L35.1241 29.4096C38.0832 24.5199 40.3386 21.1007 41.8903 19.152C43.4601 17.2034 44.8855 15.5795 46.1665 14.2804C47.4656 12.9813 48.8279 11.8355 50.2533 10.8431C53.3748 8.69599 56.4512 7.62242 59.4824 7.62242C60.4026 7.62242 61.0251 7.81188 61.3499 8.19079C61.8912 8.78621 62.0626 9.42674 61.8641 10.1124C61.6656 10.78 61.3409 11.7453 60.8898 13.0083C58.0029 20.8752 56.2437 25.7468 55.6122 27.6233C55.9008 27.6053 56.1625 27.5962 56.397 27.5962H56.9925C59.0133 27.5962 60.0959 27.7947 60.2402 28.1917C60.2763 28.318 60.2944 28.5525 60.2944 28.8954C60.2944 29.2201 60.1861 29.599 59.9696 30.0321C59.7711 30.4651 59.4373 30.835 58.9682 31.1417C58.0119 31.7913 56.4061 32.1702 54.1507 32.2785C52.9237 36.5186 52.22 39.4506 52.0396 41.0745C51.8772 42.6984 51.9313 43.799 52.202 44.3764C52.4907 44.9358 52.8876 45.2154 53.3928 45.2154C53.9161 45.2154 54.3401 45.1703 54.6649 45.0801C54.9897 44.9719 55.2784 44.8546 55.531 44.7283L56.2346 44.4035C56.4151 44.2952 56.5955 44.2411 56.7759 44.2411C56.9744 44.2411 57.1368 44.3674 57.2631 44.62C57.3894 44.8546 57.4526 45.1703 57.4526 45.5673C57.4526 45.9642 57.2812 46.4424 56.9383 47.0017C56.6136 47.543 56.1805 48.0302 55.6392 48.4632C54.3762 49.4736 52.9508 49.9788 51.363 49.9788C48.9271 49.9788 47.3033 48.8963 46.4913 46.7311C46.2026 45.9733 46.0583 45.2966 46.0583 44.7012V43.5645ZM40.6453 28.4623C43.857 28.0473 46.8341 27.8037 49.5767 27.7316C50.0819 26.1799 50.6232 24.6462 51.2006 23.1306L52.8786 18.8002C53.456 17.4289 54.0244 16.1298 54.5837 14.9029L56.1535 11.5739C52.4005 12.5482 48.6926 15.787 45.0298 21.2901C44.254 22.4449 43.4961 23.6358 42.7564 24.8627L40.6453 28.4623Z" stroke="#B43131" stroke-width="1.33342" mask="url(#path-1-outside-1)"/>
<path d="M89.0101 44.2411C89.389 44.2411 89.5785 44.4396 89.5785 44.8365C89.5785 46.3882 88.7756 47.7234 87.1697 48.8421C86.1052 49.5999 85.0948 49.9788 84.1385 49.9788C83.2002 49.9788 82.4514 49.8706 81.8921 49.6541C81.3327 49.4375 80.8275 49.0947 80.3765 48.6256C79.366 47.543 78.8608 46.0544 78.8608 44.1599C78.8608 43.781 78.933 43.1766 79.0773 42.3466C77.6158 44.602 76.3618 46.1898 75.3153 47.11C73.2043 49.0226 71.1383 49.9788 69.1175 49.9788C65.9238 49.9788 63.8308 48.5354 62.8385 45.6485C62.4776 44.5839 62.2972 43.2487 62.2972 41.6429C62.2972 40.037 62.5407 38.4131 63.0279 36.7712C63.5151 35.1293 64.1737 33.5685 65.0036 32.089C65.8517 30.6095 66.826 29.2382 67.9266 27.9752C69.0453 26.6941 70.2181 25.5844 71.4451 24.6462C74.0794 22.6795 76.4611 21.6961 78.5902 21.6961C80.7193 21.6961 82.4244 22.5622 83.7054 24.2943C86.8449 13.5406 89.2086 7.19841 90.7964 5.26779C91.464 4.47389 92.1677 4.07693 92.9075 4.07693C94.1344 4.07693 95.0636 4.42878 95.6951 5.13246C95.8936 5.36702 95.9928 5.60159 95.9928 5.83615C95.9928 6.07071 95.8485 6.50375 95.5598 7.13526C95.2711 7.76677 94.8471 8.78621 94.2878 10.1936C92.6819 14.4337 91.5542 17.5372 90.9047 19.5039C89.2447 24.5379 88.126 28.0022 87.5486 29.8968L86.0601 34.9037C84.779 39.3604 84.1385 42.1932 84.1385 43.4021C84.1385 44.611 84.5805 45.2154 85.4646 45.2154C86.2766 45.2154 86.9261 45.1072 87.4133 44.8907L88.4418 44.4035C88.6402 44.2952 88.8297 44.2411 89.0101 44.2411ZM70.4166 45.9191C72.2751 45.9191 74.4042 44.1058 76.8039 40.4791C79.3119 36.7261 81.0621 32.6393 82.0545 28.2187C81.9823 26.9918 81.4681 26.0896 80.5118 25.5123C80.187 25.3138 79.6908 25.2145 79.0232 25.2145C78.3737 25.2145 77.6068 25.4581 76.7227 25.9453C75.8566 26.4144 75.0086 27.055 74.1786 27.8669C73.3667 28.6788 72.5998 29.6351 71.8781 30.7358C71.1744 31.8184 70.561 32.9731 70.0377 34.2001C68.901 36.8705 68.3326 39.4957 68.3326 42.0759C68.3326 44.6381 69.0273 45.9191 70.4166 45.9191Z" stroke="#B43131" stroke-width="1.33342" mask="url(#path-1-outside-1)"/>
<path d="M113.774 42.509C113.774 44.1689 114.361 44.9989 115.534 44.9989C116.346 44.9989 117.013 44.8726 117.536 44.62C118.078 44.3674 118.439 44.2411 118.619 44.2411C118.998 44.2411 119.187 44.4396 119.187 44.8365C119.187 46.3882 118.375 47.7234 116.752 48.8421C115.037 50.0149 113.287 50.3036 111.501 49.7082C110.328 49.2932 109.462 48.4001 108.903 47.0288C108.632 46.3251 108.497 45.6846 108.497 45.1072C108.497 44.1689 108.587 43.1766 108.767 42.1301C107.089 45.5583 105.005 47.9219 102.515 49.221C101.523 49.7262 100.468 49.9788 99.3489 49.9788C98.2302 49.9788 97.2559 49.7533 96.4259 49.3022C95.6139 48.8331 94.9193 48.1926 94.3419 47.3806C93.1691 45.6846 92.6368 43.5555 92.7451 40.9933C92.8533 37.7816 93.8006 34.6331 95.5869 31.5477C97.2288 28.6608 99.3038 26.3062 101.812 24.4838C104.32 22.6253 106.665 21.6961 108.849 21.6961C111.032 21.6961 112.791 22.6975 114.126 24.7003C115.371 22.6975 116.472 21.6961 117.428 21.6961C118.457 21.6961 119.232 21.8856 119.756 22.2645C120.748 22.9862 121.1 23.6177 120.811 24.159C116.282 33.4332 113.955 39.2071 113.829 41.4805C113.792 41.8053 113.774 42.1481 113.774 42.509ZM98.7535 42.6172C98.7535 44.7824 99.4481 45.865 100.837 45.865C101.902 45.865 103.21 44.9628 104.762 43.1585C107.035 40.5062 109.047 36.9336 110.797 32.4408C111.357 31.0335 111.826 29.6261 112.205 28.2187C112.132 26.9918 111.618 26.0896 110.662 25.5123C110.337 25.3138 109.85 25.2145 109.2 25.2145C108.569 25.2145 107.82 25.4491 106.954 25.9182C106.106 26.3874 105.276 27.0279 104.464 27.8398C103.67 28.6518 102.921 29.6171 102.218 30.7358C101.532 31.8364 100.928 33.0363 100.404 34.3354C99.3038 37.114 98.7535 39.8746 98.7535 42.6172Z" stroke="#B43131" stroke-width="1.33342" mask="url(#path-1-outside-1)"/>
<path d="M143.329 26.8114C142.283 26.8114 140.37 28.327 137.591 31.3583C135.516 33.7219 134.01 35.4992 133.072 36.69L130.636 39.7754C129.589 41.7602 128.768 43.4111 128.173 44.7283L126.711 47.8678C126.332 48.6436 125.999 49.194 125.71 49.5187C125.439 49.8255 125.06 49.9788 124.573 49.9788C124.104 49.9788 123.644 49.8886 123.193 49.7082C122.76 49.5458 122.381 49.3293 122.056 49.0586C121.371 48.4813 121.028 47.8497 121.028 47.1641C121.028 46.8935 121.226 46.3612 121.623 45.5673L122.652 43.375C122.976 42.7255 123.355 41.8955 123.788 40.8851L125.304 37.1772C127.433 31.8544 128.498 28.4172 128.498 26.8655C128.498 26.0355 128.227 25.422 127.686 25.0251L127.144 24.6462C126.964 24.5199 126.874 24.3034 126.874 23.9966C126.874 23.6719 126.991 23.3651 127.226 23.0764C127.478 22.7877 127.803 22.5351 128.2 22.3186C129.012 21.9036 129.824 21.6961 130.636 21.6961C131.466 21.6961 132.115 21.7863 132.584 21.9668C133.054 22.1472 133.46 22.3908 133.802 22.6975C134.488 23.329 134.831 23.9876 134.831 24.6733C134.831 25.3589 134.741 26.0536 134.56 26.7572C134.38 27.4429 134.154 28.1466 133.884 28.8683C133.613 29.572 133.324 30.2576 133.017 30.9252C132.296 32.4769 131.845 33.4332 131.664 33.7941C131.502 34.1369 131.457 34.2632 131.529 34.173C134.831 29.8968 136.816 27.3707 137.483 26.5949C138.873 24.989 139.955 23.8884 140.731 23.2929C142.156 22.2284 143.501 21.6961 144.764 21.6961C146.045 21.6961 147.064 22.0931 147.822 22.887C148.58 23.6809 148.959 24.7274 148.959 26.0265C148.959 27.1632 148.67 28.4984 148.093 30.0321C147.515 31.5658 147.127 32.6393 146.929 33.2528L150.907 28.0022L153.127 25.3499C154.462 23.8523 155.635 22.8689 156.645 22.3998C157.655 21.9307 158.476 21.6961 159.108 21.6961C159.758 21.6961 160.389 21.8134 161.003 22.048C161.634 22.2825 162.166 22.6163 162.599 23.0494C163.52 23.9335 163.98 25.1063 163.98 26.5678C163.98 27.9752 163.655 29.4186 163.005 30.8982C162.356 32.3777 161.787 33.5956 161.3 34.5519C160.813 35.4901 160.344 36.4374 159.893 37.3937C158.576 40.2626 157.917 42.3917 157.917 43.781C157.917 44.7553 158.314 45.2425 159.108 45.2425C159.866 45.2425 160.551 45.0801 161.165 44.7553C161.796 44.4306 162.202 44.2682 162.383 44.2682C162.762 44.2682 162.951 44.4576 162.951 44.8365C162.951 46.4424 162.13 47.7866 160.488 48.8692C159.388 49.609 158.377 49.9788 157.457 49.9788C156.555 49.9788 155.824 49.8706 155.265 49.6541C154.705 49.4375 154.2 49.0947 153.749 48.6256C152.739 47.5791 152.234 46.271 152.234 44.7012C152.234 43.1314 152.432 41.688 152.829 40.3708C153.226 39.0537 153.695 37.7816 154.236 36.5547C154.778 35.3097 155.319 34.173 155.86 33.1445C156.42 32.098 156.844 31.268 157.132 30.6546C157.71 29.3915 157.998 28.4623 157.998 27.8669C157.998 27.1632 157.628 26.8114 156.889 26.8114C155.914 26.8114 154.164 28.4262 151.638 31.656C149.726 34.164 148.399 35.9683 147.66 37.0689L145.792 39.7754C144.746 41.7602 143.943 43.4111 143.383 44.7283L142.003 47.8678C141.66 48.6436 141.362 49.194 141.11 49.5187C140.857 49.8255 140.505 49.9788 140.054 49.9788C139.603 49.9788 139.161 49.9067 138.728 49.7623C138.313 49.618 137.952 49.4285 137.646 49.194C136.942 48.6707 136.59 48.1204 136.59 47.543C136.59 46.9476 136.78 46.1447 137.158 45.1342C137.555 44.1058 138.043 42.96 138.62 41.697L142.409 33.6858C143.762 30.7087 144.439 28.8232 144.439 28.0293C144.439 27.2173 144.069 26.8114 143.329 26.8114ZM146.009 34.4436C146.027 34.4436 146.036 34.4346 146.036 34.4166L146.063 34.3625C146.027 34.3985 146.009 34.4256 146.009 34.4436Z" stroke="#B43131" stroke-width="1.33342" mask="url(#path-1-outside-1)"/>
<path d="M190.124 42.8879C190.666 42.8879 190.936 43.4021 190.936 44.4306C190.936 45.459 190.783 46.298 190.476 46.9476C190.169 47.5971 189.745 48.1475 189.204 48.5985C188.103 49.5187 186.642 49.9788 184.82 49.9788C183.557 49.9788 182.122 49.7262 180.516 49.221C178.91 48.6978 177.674 48.3189 176.808 48.0843C175.96 47.8497 175.175 47.7325 174.454 47.7325C173.75 47.7325 173.173 47.8046 172.722 47.949C172.289 48.0933 171.883 48.2738 171.504 48.4903C171.143 48.7068 170.791 48.9323 170.448 49.1669C169.726 49.6721 169.23 49.9247 168.96 49.9247C168.707 49.9247 168.454 49.8525 168.202 49.7082C167.949 49.5638 167.715 49.3744 167.498 49.1398C166.993 48.5985 166.74 48.1745 166.74 47.8678C166.74 47.5611 166.903 47.0107 167.227 46.2168C167.57 45.4229 168.247 44.3313 169.257 42.942C170.268 41.5346 171.386 40.1543 172.613 38.8011C173.84 37.4298 175.139 36.0766 176.511 34.7414C180.516 30.8079 183.114 28.2097 184.305 26.9467C185.514 25.6837 186.579 24.4297 187.499 23.1847C189.502 20.4962 190.503 18.0694 190.503 15.9043C190.503 13.6128 189.682 12.1332 188.04 11.4656C187.535 11.2672 186.876 11.1679 186.065 11.1679C185.271 11.1679 184.468 11.4025 183.656 11.8716C182.844 12.3227 182.158 12.9001 181.599 13.6037C180.444 15.0292 179.867 16.5719 179.867 18.2318C179.867 19.7475 180.3 20.6857 181.166 21.0466C181.527 21.209 181.707 21.4435 181.707 21.7503C181.707 22.3998 181.391 22.9952 180.76 23.5365C179.587 24.5469 178.586 25.0522 177.756 25.0522C176.926 25.0522 176.258 24.8988 175.753 24.5921C175.248 24.2853 174.824 23.8793 174.481 23.3741C173.795 22.3637 173.452 21.2721 173.452 20.0993C173.452 18.9084 173.597 17.8439 173.885 16.9057C174.174 15.9674 174.589 15.0562 175.13 14.1721C175.69 13.2699 176.348 12.4219 177.106 11.628C177.882 10.8341 178.748 10.1395 179.704 9.54402C181.815 8.24491 183.881 7.59536 185.902 7.59536C187.941 7.59536 189.547 7.86601 190.72 8.4073C191.911 8.9486 192.876 9.65228 193.616 10.5184C194.987 12.1783 195.673 14.2894 195.673 16.8515C195.673 21.0556 193.634 25.3048 189.556 29.599C187.409 31.8544 185.235 33.8663 183.033 35.6345L177.891 39.7754C175.094 42.0849 173.164 43.9795 172.099 45.459C173.488 44.8456 174.634 44.5118 175.536 44.4576C176.438 44.3854 177.169 44.3674 177.729 44.4035C178.306 44.4215 178.91 44.4576 179.542 44.5118C181.202 44.6561 182.528 44.7283 183.52 44.7283C184.513 44.7283 185.37 44.6381 186.092 44.4576C186.831 44.2591 187.427 44.0426 187.878 43.8081C188.347 43.5735 188.735 43.366 189.042 43.1856C189.348 42.9871 189.709 42.8879 190.124 42.8879Z" stroke="#B43131" stroke-width="1.33342" mask="url(#path-1-outside-1)"/>
<path d="M207.798 33.6046C207.094 33.6046 206.742 33.334 206.742 32.7927C206.742 31.5297 207.184 30.4561 208.068 29.572C208.357 29.2833 208.916 29.0217 209.746 28.7871C210.594 28.5345 211.677 28.0203 212.994 27.2444C214.329 26.4505 215.538 25.4942 216.621 24.3755C219.057 21.8314 220.274 18.9355 220.274 15.6877C220.274 14.2804 219.923 13.1797 219.219 12.3858C218.515 11.5739 217.622 11.1679 216.539 11.1679C215.457 11.1679 214.465 11.4025 213.562 11.8716C212.678 12.3227 211.902 12.9001 211.235 13.6037C209.809 15.0833 209.097 16.626 209.097 18.2318C209.097 19.7475 209.53 20.6857 210.396 21.0466C210.757 21.209 210.937 21.4435 210.937 21.7503C210.937 22.3998 210.621 22.9952 209.99 23.5365C208.817 24.5469 207.825 25.0522 207.013 25.0522C206.201 25.0522 205.542 24.9259 205.037 24.6733C204.532 24.4206 204.099 24.0688 203.738 23.6177C203.034 22.6795 202.682 21.6059 202.682 20.397C202.682 19.1881 202.845 18.1055 203.169 17.1492C203.494 16.1929 203.945 15.2637 204.523 14.3616C205.118 13.4414 205.831 12.5753 206.661 11.7633C207.509 10.9514 208.447 10.2297 209.476 9.59815C211.677 8.26296 213.824 7.59536 215.917 7.59536C218.028 7.59536 219.67 7.86601 220.843 8.4073C222.034 8.9486 222.99 9.65228 223.712 10.5184C225.047 12.1242 225.714 14.2353 225.714 16.8515C225.714 21.1097 223.766 25.0882 219.868 28.7871C218.425 30.1584 217.036 31.1778 215.7 31.8454C217.252 32.3145 218.317 33.5956 218.894 35.6886C219.075 36.3382 219.165 37.087 219.165 37.935C219.165 38.765 219.011 39.6672 218.705 40.6415C218.398 41.6158 217.965 42.5631 217.406 43.4833C216.846 44.3855 216.161 45.2335 215.349 46.0274C214.537 46.8032 213.626 47.4889 212.615 48.0843C210.432 49.3473 208.068 49.9788 205.524 49.9788C202.908 49.9788 200.869 49.2932 199.407 47.9219C198.144 46.7491 197.513 45.3237 197.513 43.6457C197.513 42.3285 197.928 41.1196 198.758 40.019C199.75 38.756 201.04 38.1245 202.628 38.1245C203.512 38.1245 204.144 38.3139 204.523 38.6928C205.19 39.3604 205.353 39.8927 205.01 40.2896C204.685 40.6685 204.396 41.0204 204.144 41.3452C203.909 41.6519 203.711 41.9677 203.548 42.2924C203.224 42.9059 203.061 43.4652 203.061 43.9705C203.061 44.4757 203.106 44.8816 203.197 45.1884C203.287 45.4771 203.431 45.7387 203.63 45.9733C204.099 46.4965 204.82 46.7581 205.795 46.7581C206.769 46.7581 207.716 46.4514 208.637 45.8379C209.575 45.2245 210.396 44.4396 211.099 43.4833C212.597 41.4444 213.346 39.2522 213.346 36.9065C213.346 34.5429 212.362 33.3611 210.396 33.3611L207.798 33.6046Z" stroke="#B43131" stroke-width="1.33342" mask="url(#path-1-outside-1)"/>
</svg>
