<svg width="479" height="479" viewBox="0 0 479 479" fill="none" xmlns="http://www.w3.org/2000/svg">
<path d="M152.393 200H145.401V205.681H133.758V217.526H125V234.921H133.758V246.768H145.401V252.432H151.565C165.968 252.432 178.674 240.806 178.674 226.282C178.674 211.857 166.82 200 152.393 200Z" fill="#674232"/>
<path d="M307.647 205.005H313.694V202.778H292.618V205.005H298.698V247.399H292.618V249.607H313.694V247.399H307.647V205.005Z" fill="#674232"/>
<path d="M346.001 249.607V247.408H339.542V204.534C349.414 204.041 351.101 206.155 352.367 215.115H354.536L353.767 202.778H316.269L315.505 215.115H317.73C319.006 206.155 320.672 204.041 330.563 204.534V247.408H324.099V249.607H346.001Z" fill="#674232"/>
<path d="M288.606 204.989V202.778H271.333L261.18 234.807L251.377 202.778H234.168V204.989H240.22V247.411L233.683 247.404C227.609 247.551 227.516 242.375 227.542 241.304C227.626 229.887 225.077 225.732 214.136 224.042V223.89C220.662 223.2 229.004 221.343 229.004 213.433C229.004 203.694 219.912 202.778 212.244 202.778H189.666V204.989H195.711V247.404H189.666V249.607H210.731V247.404H204.686V225.042C208.57 224.887 212.946 225.88 214.922 227.579C216.747 229.126 217.73 233.933 217.73 239.736C217.73 246.897 221.426 249.607 228.518 249.607H248.819V247.411H242.905V205.715H243.05L256.992 249.607H259.36L273.389 205.715H273.601V247.411H267.57V249.607H288.606V247.411H282.571V204.989H288.606ZM204.686 222.855V204.989H210.785C217.03 204.989 219.336 206.557 219.336 214.432C219.336 220.713 216.747 222.855 210.433 222.855H204.686Z" fill="#674232"/>
<path d="M195.711 263.777C195.711 263.387 195.501 263.206 195.14 263.206H194.021V260.969H196.646C197.817 260.969 198.312 261.464 198.312 262.635V272.802C198.312 275.556 200.052 277.198 202.705 277.198C205.357 277.198 207.101 275.556 207.101 272.776V262.635C207.101 261.464 207.62 260.969 208.788 260.969H211.39V263.206H210.271C209.907 263.206 209.702 263.387 209.702 263.777V272.904C209.702 276.908 206.918 279.64 202.732 279.64C198.519 279.64 195.711 276.908 195.711 272.904V263.777Z" fill="#674232"/>
<path d="M213.151 277.093H214.267C214.634 277.093 214.841 276.884 214.841 276.522V260.972H217.206L225.372 272.595C226.048 273.583 226.907 275.092 226.907 275.092H226.957C226.957 275.092 226.776 273.635 226.776 272.595V262.638C226.776 261.467 227.269 260.972 228.466 260.972H231.067V263.209H229.948C229.584 263.209 229.377 263.39 229.377 263.78V279.331H227.035L218.846 267.709C218.17 266.717 217.337 265.21 217.337 265.21H217.285C217.285 265.21 217.442 266.693 217.442 267.709V277.665C217.442 278.836 216.944 279.331 215.776 279.331H213.151V277.093Z" fill="#674232"/>
<path d="M233.888 277.093H235.683V263.209H233.888V260.972H239.947V263.209H238.153V277.093H239.947V279.331H233.888V277.093Z" fill="#674232"/>
<path d="M242.78 263.78C242.625 263.311 242.364 263.209 241.926 263.209H241.562V260.972H243.016C244.315 260.972 244.76 261.26 245.174 262.481L249.203 273.792C249.544 274.78 249.908 276.313 249.908 276.313H249.96C249.96 276.313 250.296 274.78 250.662 273.792L254.692 262.481C255.132 261.26 255.548 260.972 256.848 260.972H258.304V263.209H257.943C257.471 263.209 257.24 263.311 257.083 263.78L251.31 279.331H248.554L242.78 263.78Z" fill="#674232"/>
<path d="M261.504 263.206H259.817V260.971H270.61C271.778 260.971 272.271 261.464 272.271 262.635V264.948H269.903V263.777C269.903 263.387 269.696 263.206 269.332 263.206H264.108V268.954H270.527V271.188H264.108V276.519C264.108 276.881 264.315 277.091 264.679 277.091H270.034C270.4 277.091 270.61 276.881 270.61 276.519V275.348H272.999V277.662C272.999 278.835 272.507 279.328 271.336 279.328H263.17C261.999 279.328 261.504 278.835 261.504 277.662V263.206Z" fill="#674232"/>
<path d="M282.63 269.787C284.606 269.787 285.774 268.511 285.774 266.457C285.774 264.401 284.606 263.206 282.68 263.206H279.249V269.787H282.63ZM276.647 263.206H274.958V260.971H282.966C286.191 260.971 288.454 262.999 288.454 266.355C288.454 269.42 286.453 270.931 285.151 271.214V271.267C285.151 271.267 285.622 271.5 285.929 272.1L288.142 276.493C288.404 277.041 288.818 277.093 289.442 277.093H289.782V279.328H288.504C287.076 279.328 286.555 279.147 285.96 277.95L283.463 273.011C282.995 272.152 282.654 272.021 281.64 272.021H279.249V279.328H276.647V263.206V263.206Z" fill="#674232"/>
<path d="M293.108 275.063C293.108 275.063 294.981 277.274 297.708 277.274C299.427 277.274 300.859 276.232 300.859 274.542C300.859 270.694 291.989 271.291 291.989 265.572C291.989 262.816 294.407 260.657 297.868 260.657C299.819 260.657 303.092 261.543 303.092 264.037V265.548H300.702V264.689C300.702 263.725 299.324 263.023 297.868 263.023C295.89 263.023 294.643 264.115 294.643 265.493C294.643 269.213 303.484 268.38 303.484 274.411C303.484 277.222 301.297 279.64 297.661 279.64C293.758 279.64 291.575 276.907 291.575 276.907L293.108 275.063Z" fill="#674232"/>
<path d="M306.211 277.093H308.005V263.209H306.211V260.972H312.273V263.209H310.476V277.093H312.273V279.331H306.211V277.093Z" fill="#674232"/>
<path d="M320.541 263.206H316.847C316.483 263.206 316.276 263.387 316.276 263.777V264.948H313.963V262.53C313.963 261.362 314.351 260.971 315.522 260.971H328.161C329.328 260.971 329.72 261.362 329.72 262.53V264.948H327.407V263.777C327.407 263.387 327.2 263.206 326.833 263.206H323.14V279.328H320.541V263.206Z" fill="#674232"/>
<path d="M337.135 271.322L332.48 263.859C332.142 263.311 331.906 263.209 331.359 263.209H330.84V260.972H332.035C333.284 260.972 333.777 261.155 334.507 262.378L337.289 267.007C337.889 268.019 338.408 269.061 338.408 269.061H338.46C338.46 269.061 338.953 268.019 339.577 267.007L342.337 262.378C343.061 261.155 343.582 260.972 344.803 260.972H346V263.209H345.503C344.96 263.209 344.7 263.311 344.363 263.859L339.731 271.322V279.331H337.135V271.322Z" fill="#674232"/>
</svg>
