<svg width="200" height="200" viewBox="0 0 200 200" fill="none" xmlns="http://www.w3.org/2000/svg">
<path d="M38.3332 71.9988H33.3983V76.0082H25.1812V84.368H19V96.6448H25.1812V105.006H33.3983V109.004H37.7486C47.9141 109.004 56.8819 100.799 56.8819 90.5475C56.8819 80.367 48.5154 71.9988 38.3332 71.9988Z" fill="white"/>
<path d="M147.907 75.5328H152.175V73.9606H137.3V75.5328H141.592V105.453H137.3V107.012H152.175V105.453H147.907V75.5328Z" fill="white"/>
<path d="M174.976 107.012V105.46H170.418V75.2002C177.385 74.8525 178.576 76.344 179.47 82.6681H181L180.457 73.9606H153.992L153.453 82.6681H155.024C155.924 76.344 157.1 74.8525 164.08 75.2002V105.46H159.518V107.012H174.976Z" fill="white"/>
<path d="M134.469 75.521V73.9606H122.278L115.112 96.5658L108.194 73.9606H96.0478V75.521H100.319V105.461L95.7052 105.456C91.4186 105.56 91.3531 101.907 91.3716 101.151C91.4304 93.0939 89.6314 90.1611 81.9099 88.9685V88.861C86.5156 88.3739 92.4029 87.0638 92.4029 81.4805C92.4029 74.6072 85.9865 73.9606 80.5746 73.9606H64.6394V75.521H68.9058V105.456H64.6394V107.012H79.5063V105.456H75.2399V89.674C77.9811 89.5648 81.0701 90.2653 82.4642 91.4646C83.7525 92.5564 84.4462 95.9493 84.4462 100.044C84.4462 105.099 87.0548 107.012 92.0603 107.012H106.388V105.461H102.214V76.0333H102.316L112.156 107.012H113.827L123.729 76.0333H123.879V105.461H119.622V107.012H134.469V105.461H130.209V75.521H134.469ZM75.2399 88.1304V75.521H79.5449C83.9524 75.521 85.58 76.6279 85.58 82.186C85.58 86.6187 83.7525 88.1304 79.2963 88.1304H75.2399Z" fill="white"/>
<path d="M68.906 117.012C68.906 116.736 68.7581 116.609 68.5028 116.609H67.7134V115.03H69.5661C70.3925 115.03 70.7418 115.379 70.7418 116.206V123.381C70.7418 125.325 71.9697 126.484 73.8425 126.484C75.7137 126.484 76.9449 125.325 76.9449 123.363V116.206C76.9449 115.379 77.3111 115.03 78.1358 115.03H79.9717V116.609H79.1823C78.9253 116.609 78.7808 116.736 78.7808 117.012V123.454C78.7808 126.279 76.8156 128.207 73.861 128.207C70.888 128.207 68.906 126.279 68.906 123.454V117.012Z" fill="white"/>
<path d="M81.2141 126.409H82.0019C82.2606 126.409 82.4067 126.262 82.4067 126.006V115.031H84.0763L89.8393 123.235C90.3163 123.932 90.9227 124.997 90.9227 124.997H90.958C90.958 124.997 90.8303 123.969 90.8303 123.235V116.207C90.8303 115.381 91.178 115.031 92.0229 115.031H93.8588V116.61H93.0693C92.8123 116.61 92.6662 116.738 92.6662 117.013V127.988H91.0134L85.2336 119.786C84.7566 119.086 84.1687 118.023 84.1687 118.023H84.1317C84.1317 118.023 84.2426 119.069 84.2426 119.786V126.813C84.2426 127.639 83.8915 127.988 83.0668 127.988H81.2141V126.409Z" fill="white"/>
<path d="M95.8502 126.409H97.1167V116.61H95.8502V115.031H100.127V116.61H98.8602V126.409H100.127V127.988H95.8502V126.409Z" fill="white"/>
<path d="M102.126 117.013C102.017 116.682 101.832 116.61 101.523 116.61H101.266V115.031H102.292C103.209 115.031 103.523 115.234 103.816 116.096L106.659 124.08C106.899 124.777 107.156 125.858 107.156 125.858H107.193C107.193 125.858 107.43 124.777 107.689 124.08L110.533 116.096C110.843 115.234 111.137 115.031 112.054 115.031H113.082V116.61H112.827C112.494 116.61 112.332 116.682 112.221 117.013L108.146 127.988H106.201L102.126 117.013Z" fill="white"/>
<path d="M115.341 116.608H114.15V115.031H121.768C122.592 115.031 122.94 115.379 122.94 116.205V117.838H121.269V117.011C121.269 116.736 121.123 116.608 120.866 116.608H117.179V120.665H121.709V122.242H117.179V126.004C117.179 126.26 117.325 126.407 117.582 126.407H121.361C121.62 126.407 121.768 126.26 121.768 126.004V125.178H123.454V126.811C123.454 127.639 123.106 127.986 122.28 127.986H116.517C115.691 127.986 115.341 127.639 115.341 126.811V116.608Z" fill="white"/>
<path d="M130.251 121.252C131.645 121.252 132.47 120.352 132.47 118.903C132.47 117.451 131.645 116.608 130.286 116.608H127.864V121.252H130.251ZM126.028 116.608H124.836V115.031H130.488C132.764 115.031 134.361 116.462 134.361 118.83C134.361 120.994 132.949 122.06 132.03 122.26V122.297C132.03 122.297 132.362 122.462 132.579 122.885L134.141 125.986C134.326 126.372 134.618 126.409 135.058 126.409H135.298V127.986H134.396C133.389 127.986 133.021 127.859 132.601 127.014L130.839 123.528C130.508 122.922 130.268 122.83 129.552 122.83H127.864V127.986H126.028V116.608V116.608Z" fill="white"/>
<path d="M137.646 124.977C137.646 124.977 138.968 126.537 140.893 126.537C142.105 126.537 143.117 125.802 143.117 124.609C143.117 121.893 136.856 122.315 136.856 118.278C136.856 116.333 138.563 114.81 141.005 114.81C142.383 114.81 144.692 115.435 144.692 117.195V118.262H143.006V117.655C143.006 116.975 142.033 116.479 141.005 116.479C139.609 116.479 138.729 117.25 138.729 118.223C138.729 120.848 144.969 120.26 144.969 124.517C144.969 126.5 143.426 128.207 140.859 128.207C138.104 128.207 136.564 126.279 136.564 126.279L137.646 124.977Z" fill="white"/>
<path d="M146.894 126.409H148.16V116.61H146.894V115.031H151.172V116.61H149.904V126.409H151.172V127.988H146.894V126.409Z" fill="white"/>
<path d="M157.008 116.608H154.401C154.144 116.608 153.998 116.736 153.998 117.011V117.838H152.365V116.131C152.365 115.306 152.639 115.031 153.465 115.031H162.386C163.209 115.031 163.486 115.306 163.486 116.131V117.838H161.854V117.011C161.854 116.736 161.707 116.608 161.449 116.608H158.842V127.986H157.008V116.608Z" fill="white"/>
<path d="M168.719 122.336L165.433 117.069C165.195 116.682 165.028 116.61 164.642 116.61H164.276V115.031H165.119C166.001 115.031 166.349 115.161 166.864 116.024L168.828 119.291C169.251 120.005 169.617 120.74 169.617 120.74H169.654C169.654 120.74 170.002 120.005 170.442 119.291L172.391 116.024C172.901 115.161 173.269 115.031 174.131 115.031H174.976V116.61H174.625C174.242 116.61 174.058 116.682 173.82 117.069L170.551 122.336V127.988H168.719V122.336Z" fill="white"/>
</svg>
