<svg width="380" height="549" viewBox="0 0 380 549" fill="none" xmlns="http://www.w3.org/2000/svg">
<path d="M169.455 404.587L155.95 406.198L155.949 406.191L155.946 406.162L155.942 406.133L155.939 406.103L155.935 406.073L155.932 406.043L155.928 406.012L155.924 405.981L155.921 405.95L155.917 405.918L155.913 405.886L155.909 405.853L155.905 405.82L155.901 405.787L155.897 405.753L155.893 405.719L155.889 405.684L155.885 405.65L155.881 405.614L155.876 405.579L155.872 405.543L155.868 405.507L155.863 405.47L155.859 405.433L155.854 405.395L155.85 405.358L155.845 405.32L155.841 405.281L155.836 405.242L155.831 405.203L155.827 405.164L155.822 405.124L155.817 405.083L155.812 405.043L155.807 405.002L155.803 404.961L155.798 404.919L155.793 404.877L155.787 404.835L155.782 404.792L155.777 404.749L155.772 404.706L155.767 404.662L155.762 404.618L155.756 404.573L155.751 404.529L155.746 404.484L155.74 404.438L155.735 404.392L155.729 404.346L155.724 404.3L155.718 404.253L155.712 404.206L155.707 404.159L155.701 404.111L155.695 404.063L155.69 404.014L155.684 403.966L155.678 403.917L155.672 403.867L155.666 403.817L155.66 403.767L155.654 403.717L155.648 403.666L155.642 403.615L155.636 403.564L155.63 403.512L155.624 403.461L155.617 403.408L155.611 403.356L155.605 403.303L155.598 403.25L155.592 403.196L155.586 403.142L155.579 403.088L155.573 403.034L155.566 402.979L155.559 402.924L155.553 402.869L155.546 402.813L155.54 402.757L155.533 402.701L155.526 402.644L155.519 402.587L155.512 402.53L155.506 402.473L155.499 402.415L155.492 402.357L155.485 402.298L155.478 402.24L155.471 402.181L155.464 402.121L155.457 402.062L155.449 402.002L155.442 401.942L155.435 401.882L155.428 401.821L155.421 401.76L155.413 401.699L155.406 401.637L155.399 401.575L155.391 401.513L155.384 401.451L155.376 401.388L155.369 401.325L155.361 401.262L155.354 401.199L155.346 401.135L155.338 401.071L155.331 401.007L155.323 400.942L155.315 400.877L155.307 400.812L155.3 400.747L155.292 400.681L155.284 400.615L155.276 400.549L155.268 400.482L155.26 400.416L155.252 400.349L155.244 400.282L155.236 400.214L155.228 400.146L155.22 400.078L155.212 400.01L155.204 399.941L155.195 399.873L155.187 399.804L155.179 399.734L155.171 399.665L155.162 399.595L155.154 399.525L155.146 399.455L155.137 399.384L155.129 399.313L155.12 399.242L155.112 399.171L155.103 399.099L155.095 399.028L155.086 398.956L155.077 398.883L155.069 398.811L155.06 398.738L155.051 398.665L155.043 398.592L155.034 398.519L155.025 398.445L155.016 398.371L155.007 398.297L154.999 398.223L154.99 398.148L154.981 398.073L154.972 397.998L154.963 397.923L154.954 397.847L154.945 397.772L154.936 397.696L154.927 397.619L154.917 397.543L154.908 397.466L154.899 397.39L154.89 397.313L154.881 397.235L154.871 397.158L154.862 397.08L154.853 397.002L154.844 396.924L154.834 396.846L154.825 396.767L154.815 396.688L154.806 396.609L154.797 396.53L154.787 396.451L154.778 396.371L154.768 396.291L154.759 396.211L154.749 396.131L154.739 396.051L154.73 395.97L154.72 395.889L154.71 395.808L154.701 395.727L154.691 395.646L154.681 395.564L154.672 395.482L154.662 395.4L154.652 395.318L154.642 395.236L154.632 395.153L154.622 395.07L154.612 394.987L154.603 394.904L154.593 394.821L154.583 394.737L154.573 394.654L154.563 394.57L154.553 394.486L154.543 394.402L154.533 394.317L154.522 394.233L154.512 394.148L154.502 394.063L154.492 393.978L154.482 393.892L154.472 393.807L154.461 393.721L154.451 393.635L154.441 393.549L154.431 393.463L154.42 393.377L154.41 393.291L154.4 393.204L154.389 393.117L154.379 393.03L154.369 392.943L154.358 392.856L154.348 392.768L154.337 392.68L154.327 392.593L154.316 392.505L154.306 392.417L154.295 392.328L154.285 392.24L154.274 392.151L154.263 392.063L154.253 391.974L154.242 391.885L154.232 391.795L154.221 391.706L154.21 391.617L154.2 391.527L154.189 391.437L154.178 391.347L154.167 391.257L154.157 391.167L154.146 391.077L154.135 390.986L154.124 390.896L154.113 390.805L154.103 390.714L154.092 390.623L154.081 390.532L154.07 390.44L154.059 390.349L154.048 390.257L154.037 390.166L154.026 390.074L154.015 389.982L154.004 389.89L153.993 389.798L153.982 389.705L153.971 389.613L153.96 389.52L153.949 389.427L153.938 389.335L153.927 389.242L153.916 389.149L153.905 389.055L153.894 388.962L153.882 388.869L153.871 388.775L153.86 388.681L153.849 388.588L153.838 388.494L153.826 388.4L153.815 388.306L153.804 388.211L153.793 388.117L153.781 388.023L153.77 387.928L153.759 387.833L153.748 387.739L153.736 387.644L153.725 387.549L153.714 387.454L153.702 387.359L153.691 387.263L153.679 387.168L153.668 387.073L153.657 386.977L153.645 386.881L153.634 386.786L153.622 386.69L153.611 386.594L153.599 386.498L153.588 386.402L153.577 386.306L153.565 386.209L153.554 386.113L153.542 386.017L153.531 385.92L153.519 385.823L153.507 385.727L153.496 385.63L153.484 385.533L153.473 385.436L153.461 385.339L153.45 385.242L153.438 385.145L153.426 385.048L153.415 384.95L153.403 384.853L153.392 384.756L153.38 384.658L153.368 384.56L153.357 384.463L153.345 384.365L153.333 384.267L153.322 384.169L153.31 384.071L153.298 383.973L153.287 383.875L153.275 383.777L153.263 383.679L153.251 383.581L153.24 383.483L153.228 383.384L153.216 383.286L153.204 383.187L153.193 383.089L153.181 382.99L153.169 382.892L153.157 382.793L153.146 382.694L153.134 382.595L153.122 382.497L153.11 382.398L153.098 382.299L153.087 382.2L153.075 382.101L153.063 382.002L153.051 381.903L153.039 381.804L153.028 381.705L153.016 381.605L153.004 381.506L152.992 381.407L152.98 381.307L152.968 381.208L152.956 381.109L152.945 381.009L152.933 380.91L152.921 380.81L152.909 380.711L152.897 380.611L152.885 380.512L152.873 380.412L152.861 380.313L152.85 380.213L152.838 380.113L152.826 380.014L152.814 379.914L152.802 379.814L152.79 379.715L152.778 379.615L152.766 379.515L152.754 379.415L152.742 379.316L152.731 379.216L152.719 379.116L152.707 379.016L152.695 378.916L152.683 378.816L152.671 378.716L152.659 378.617L152.647 378.517L152.635 378.417L152.623 378.317L152.611 378.217L152.599 378.117L152.588 378.017L152.576 377.917L152.564 377.818L152.552 377.718L152.54 377.618L152.528 377.518L152.516 377.418L152.504 377.318L152.492 377.218L152.48 377.118L152.468 377.019L152.456 376.919L152.445 376.819L152.433 376.719L152.421 376.619L152.409 376.52L152.397 376.42L152.385 376.32L152.373 376.22L152.361 376.121L152.349 376.021L152.337 375.921L152.326 375.822L152.314 375.722L152.302 375.623L152.29 375.523L152.278 375.423L152.266 375.324L152.254 375.224L152.242 375.125L152.231 375.026L152.219 374.926L152.207 374.827L152.195 374.727L152.183 374.628L152.171 374.529L152.159 374.43L152.148 374.33L152.136 374.231L152.124 374.132L152.112 374.033L152.1 373.934L152.089 373.835L152.077 373.736L152.065 373.637L152.053 373.538L152.041 373.44L152.03 373.341L152.018 373.242L152.006 373.144L151.994 373.045L151.983 372.946L151.971 372.848L151.959 372.749L151.947 372.651L151.936 372.553L151.924 372.455L151.912 372.356L151.9 372.258L151.889 372.16L151.877 372.062L151.865 371.964L151.854 371.866L151.842 371.768L151.83 371.671L151.819 371.573L151.807 371.475L151.795 371.378L151.784 371.28L151.772 371.183L151.76 371.085L151.749 370.988L151.737 370.891L151.726 370.794L151.714 370.697L151.596 369.704L150.603 369.822L144.236 370.582L142.934 359.667L149.316 358.906L150.309 358.787L150.19 357.794L149.194 349.446C148.854 346.593 149.122 342.919 150.927 339.81C152.7 336.756 156.034 334.112 162.123 333.385C162.124 333.385 162.125 333.385 162.125 333.384L172.609 332.176L173.866 342.709L173.856 342.71L173.841 342.712L173.825 342.714L173.81 342.716L173.794 342.718L173.779 342.72L173.763 342.721L173.747 342.723L173.731 342.725L173.715 342.727L173.699 342.729L173.683 342.731L173.667 342.733L173.651 342.735L173.634 342.737L173.618 342.739L173.601 342.741L173.585 342.743L173.568 342.745L173.551 342.747L173.534 342.749L173.517 342.751L173.5 342.753L173.483 342.755L173.466 342.757L173.449 342.759L173.431 342.761L173.414 342.763L173.396 342.765L173.379 342.767L173.361 342.769L173.343 342.772L173.326 342.774L173.308 342.776L173.29 342.778L173.272 342.78L173.254 342.782L173.235 342.784L173.217 342.787L173.199 342.789L173.18 342.791L173.162 342.793L173.143 342.795L173.125 342.798L173.106 342.8L173.087 342.802L173.069 342.804L173.05 342.807L173.031 342.809L173.012 342.811L172.993 342.813L172.974 342.816L172.955 342.818L172.935 342.82L172.916 342.823L172.897 342.825L172.877 342.827L172.858 342.829L172.838 342.832L172.819 342.834L172.799 342.836L172.779 342.839L172.759 342.841L172.74 342.844L172.72 342.846L172.7 342.848L172.68 342.851L172.66 342.853L172.64 342.855L172.619 342.858L172.599 342.86L172.579 342.863L172.559 342.865L172.538 342.868L172.518 342.87L172.497 342.872L172.477 342.875L172.456 342.877L172.436 342.88L172.415 342.882L172.394 342.885L172.374 342.887L172.353 342.89L172.332 342.892L172.311 342.895L172.29 342.897L172.269 342.9L172.248 342.902L172.227 342.905L172.206 342.907L172.185 342.91L172.164 342.912L172.142 342.915L172.121 342.917L172.1 342.92L172.078 342.922L172.057 342.925L172.036 342.928L172.014 342.93L171.993 342.933L171.971 342.935L171.95 342.938L171.928 342.94L171.906 342.943L171.885 342.946L171.863 342.948L171.841 342.951L171.819 342.953L171.798 342.956L171.776 342.959L171.754 342.961L171.732 342.964L171.71 342.966L171.688 342.969L171.666 342.972L171.644 342.974L171.622 342.977L171.6 342.98L171.578 342.982L171.556 342.985L171.534 342.987L171.512 342.99L171.49 342.993L171.467 342.995L171.445 342.998L171.423 343.001L171.401 343.003L171.378 343.006L171.356 343.009L171.334 343.011L171.311 343.014L171.289 343.017L171.267 343.019L171.244 343.022L171.222 343.025L171.199 343.027L171.177 343.03L171.155 343.033L171.132 343.035L171.11 343.038L171.087 343.041L171.065 343.043L171.042 343.046L171.019 343.049L170.997 343.052L170.974 343.054L170.952 343.057L170.929 343.06L170.907 343.062L170.884 343.065L170.861 343.068L170.839 343.07L170.816 343.073L170.794 343.076L170.771 343.078L170.748 343.081L170.726 343.084L170.703 343.087L170.68 343.089L170.658 343.092L170.635 343.095L170.612 343.097L170.59 343.1L170.567 343.103L170.545 343.105L170.522 343.108L170.499 343.111L170.477 343.114L170.454 343.116L170.431 343.119L170.409 343.122L170.386 343.124L170.363 343.127L170.341 343.13L170.318 343.132L170.296 343.135L170.273 343.138L170.25 343.141L170.228 343.143L170.205 343.146L170.183 343.149L170.16 343.151L170.138 343.154L170.115 343.157L170.092 343.159L170.07 343.162L170.047 343.165L170.025 343.167L170.002 343.17L169.98 343.173L169.958 343.176L169.935 343.178L169.913 343.181L169.89 343.184L169.868 343.186L169.846 343.189L169.823 343.192L169.801 343.194L169.779 343.197L169.756 343.2L169.734 343.202L169.712 343.205L169.69 343.207L169.667 343.21L169.645 343.213L169.623 343.215L169.601 343.218L169.579 343.221L169.557 343.223L169.535 343.226L169.513 343.229L169.491 343.231L169.469 343.234L169.447 343.236L169.425 343.239L169.403 343.242L169.381 343.244L169.359 343.247L169.337 343.25L169.316 343.252L169.294 343.255L169.272 343.257L169.251 343.26L169.229 343.262L169.207 343.265L169.186 343.268L169.164 343.27L169.143 343.273L169.121 343.275L169.1 343.278L169.078 343.28L169.057 343.283L169.036 343.286L169.015 343.288L168.993 343.291L168.972 343.293L168.951 343.296L168.93 343.298L168.909 343.301L168.888 343.303L168.867 343.306L168.846 343.308L168.825 343.311L168.804 343.313L168.783 343.316L168.763 343.318L168.742 343.321L168.721 343.323L168.701 343.326L168.68 343.328L168.659 343.33L168.639 343.333L168.619 343.335L168.598 343.338L168.578 343.34L168.558 343.343L168.537 343.345L168.517 343.347L168.497 343.35L168.477 343.352L168.457 343.355L168.437 343.357L168.417 343.359L168.397 343.362L168.378 343.364L168.358 343.366L168.338 343.369L168.319 343.371L168.299 343.373L168.28 343.376L168.26 343.378L168.241 343.38L168.222 343.383L168.202 343.385L168.183 343.387L168.164 343.39L168.145 343.392L168.126 343.394L168.107 343.396L168.088 343.399L168.069 343.401L168.051 343.403L168.032 343.405L168.013 343.408L167.995 343.41L167.976 343.412L167.958 343.414L167.94 343.416L167.921 343.418L167.903 343.421L167.885 343.423L167.867 343.425L167.849 343.427L167.831 343.429L167.813 343.431L167.796 343.433L167.778 343.436L167.76 343.438L167.743 343.44L167.726 343.442L167.708 343.444L167.691 343.446L167.674 343.448L167.657 343.45L167.64 343.452L167.623 343.454L167.606 343.456L167.589 343.458L167.572 343.46L167.555 343.462L167.539 343.464L167.522 343.466L167.506 343.468L167.49 343.47L167.473 343.472L167.457 343.474L167.441 343.476L167.425 343.478L167.409 343.48L167.394 343.481L167.378 343.483L167.362 343.485L167.347 343.487L167.331 343.489L167.316 343.491L167.301 343.493L167.286 343.494L167.271 343.496L167.256 343.498L167.241 343.5L167.226 343.501L167.211 343.503L167.197 343.505L167.182 343.507L167.168 343.508L167.153 343.51L167.139 343.512L167.125 343.514L167.111 343.515L167.097 343.517L167.083 343.518L167.069 343.52L167.056 343.522L167.042 343.523L167.029 343.525L167.016 343.527L167.002 343.528L166.989 343.53L166.976 343.531L166.963 343.533L166.951 343.534L166.938 343.536L166.925 343.537L166.913 343.539L166.9 343.54L166.888 343.542L166.876 343.543L166.864 343.545L166.852 343.546L166.84 343.547L166.828 343.549L166.817 343.55L166.805 343.552L166.794 343.553L166.783 343.554L166.772 343.556L166.761 343.557L166.75 343.558L166.739 343.56L166.728 343.561L166.718 343.562L166.707 343.563L166.697 343.565L166.687 343.566L166.676 343.567L166.666 343.568L166.657 343.569L166.647 343.571L166.637 343.572L166.628 343.573L166.618 343.574L166.609 343.575L166.6 343.576L166.591 343.577L166.582 343.578L166.573 343.579L166.565 343.58L166.556 343.581L166.548 343.582L166.539 343.583L166.531 343.584L166.523 343.585C165.708 343.683 164.662 344.006 163.862 344.824C163.026 345.678 162.591 346.934 162.791 348.606L163.695 356.183L163.813 357.176L164.806 357.057L175.505 355.781L175.648 366.834L166.093 367.974L165.1 368.092L165.219 369.085L165.23 369.181L165.241 369.277L165.253 369.373L165.264 369.469L165.276 369.566L165.287 369.662L165.299 369.758L165.31 369.855L165.322 369.951L165.333 370.048L165.345 370.145L165.356 370.241L165.368 370.338L165.38 370.435L165.391 370.532L165.403 370.629L165.414 370.726L165.426 370.823L165.438 370.921L165.449 371.018L165.461 371.115L165.472 371.213L165.484 371.31L165.496 371.408L165.507 371.506L165.519 371.603L165.531 371.701L165.542 371.799L165.554 371.897L165.566 371.995L165.577 372.093L165.589 372.191L165.601 372.289L165.612 372.387L165.624 372.485L165.636 372.583L165.648 372.682L165.659 372.78L165.671 372.878L165.683 372.977L165.695 373.075L165.706 373.174L165.718 373.272L165.73 373.371L165.742 373.47L165.753 373.568L165.765 373.667L165.777 373.766L165.789 373.864L165.801 373.963L165.812 374.062L165.824 374.161L165.836 374.26L165.848 374.359L165.86 374.458L165.871 374.557L165.883 374.656L165.895 374.755L165.907 374.854L165.919 374.953L165.931 375.052L165.942 375.151L165.954 375.25L165.966 375.35L165.978 375.449L165.99 375.548L166.002 375.647L166.013 375.747L166.025 375.846L166.037 375.945L166.049 376.044L166.061 376.144L166.073 376.243L166.084 376.342L166.096 376.442L166.108 376.541L166.12 376.64L166.132 376.74L166.144 376.839L166.156 376.938L166.167 377.038L166.179 377.137L166.191 377.236L166.203 377.336L166.215 377.435L166.227 377.534L166.239 377.634L166.25 377.733L166.262 377.832L166.274 377.932L166.286 378.031L166.298 378.13L166.31 378.229L166.321 378.329L166.333 378.428L166.345 378.527L166.357 378.626L166.369 378.726L166.381 378.825L166.393 378.924L166.404 379.023L166.416 379.122L166.428 379.221L166.44 379.32L166.452 379.419L166.463 379.518L166.475 379.617L166.487 379.716L166.499 379.815L166.511 379.914L166.522 380.013L166.534 380.112L166.546 380.211L166.558 380.31L166.57 380.408L166.581 380.507L166.593 380.606L166.605 380.704L166.617 380.803L166.628 380.901L166.64 381L166.652 381.098L166.664 381.197L166.675 381.295L166.687 381.393L166.699 381.492L166.711 381.59L166.722 381.688L166.734 381.786L166.746 381.884L166.757 381.982L166.769 382.08L166.781 382.178L166.793 382.276L166.804 382.374L166.816 382.472L166.827 382.569L166.839 382.667L166.851 382.765L166.862 382.862L166.874 382.96L166.886 383.057L166.897 383.154L166.909 383.252L166.92 383.349L166.932 383.446L166.944 383.543L166.955 383.64L166.967 383.737L166.978 383.834L166.99 383.93L167.001 384.027L167.013 384.124L167.024 384.22L167.036 384.317L167.047 384.413L167.059 384.509L167.07 384.605L167.082 384.702L167.093 384.798L167.105 384.894L167.116 384.989L167.128 385.085L167.139 385.181L167.151 385.277L167.162 385.372L167.173 385.468L167.185 385.563L167.196 385.658L167.207 385.753L167.219 385.848L167.23 385.943L167.241 386.038L167.253 386.133L167.264 386.228L167.275 386.322L167.287 386.417L167.298 386.511L167.309 386.605L167.32 386.699L167.332 386.793L167.343 386.887L167.354 386.981L167.365 387.075L167.376 387.168L167.387 387.262L167.399 387.355L167.41 387.449L167.421 387.542L167.432 387.635L167.443 387.728L167.454 387.821L167.465 387.913L167.476 388.006L167.487 388.098L167.498 388.191L167.509 388.283L167.52 388.375L167.531 388.467L167.542 388.559L167.553 388.65L167.564 388.742L167.575 388.833L167.586 388.925L167.597 389.016L167.608 389.107L167.618 389.198L167.629 389.289L167.64 389.379L167.651 389.47L167.662 389.56L167.672 389.65L167.683 389.74L167.694 389.83L167.705 389.92L167.715 390.01L167.726 390.099L167.737 390.189L167.747 390.278L167.758 390.367L167.769 390.456L167.779 390.545L167.79 390.633L167.8 390.722L167.811 390.81L167.821 390.898L167.832 390.986L167.842 391.074L167.853 391.162L167.863 391.249L167.874 391.337L167.884 391.424L167.894 391.511L167.905 391.598L167.915 391.685L167.925 391.771L167.936 391.858L167.946 391.944L167.956 392.03L167.967 392.116L167.977 392.202L167.987 392.287L167.997 392.373L168.007 392.458L168.018 392.543L168.028 392.628L168.038 392.712L168.048 392.797L168.058 392.881L168.068 392.965L168.078 393.049L168.088 393.133L168.098 393.217L168.108 393.3L168.118 393.383L168.128 393.466L168.138 393.549L168.148 393.632L168.157 393.715L168.167 393.797L168.177 393.879L168.187 393.961L168.196 394.043L168.206 394.124L168.216 394.205L168.226 394.287L168.235 394.367L168.245 394.448L168.255 394.529L168.264 394.609L168.274 394.689L168.283 394.769L168.293 394.849L168.302 394.928L168.312 395.008L168.321 395.087L168.331 395.166L168.34 395.244L168.349 395.323L168.359 395.401L168.368 395.479L168.377 395.557L168.386 395.635L168.396 395.712L168.405 395.789L168.414 395.866L168.423 395.943L168.432 396.019L168.441 396.096L168.451 396.172L168.46 396.248L168.469 396.323L168.478 396.399L168.487 396.474L168.496 396.549L168.504 396.624L168.513 396.698L168.522 396.772L168.531 396.846L168.54 396.92L168.549 396.994L168.557 397.067L168.566 397.14L168.575 397.213L168.583 397.286L168.592 397.358L168.601 397.43L168.609 397.502L168.618 397.574L168.626 397.645L168.635 397.716L168.643 397.787L168.652 397.858L168.66 397.928L168.669 397.999L168.677 398.069L168.685 398.138L168.693 398.208L168.702 398.277L168.71 398.346L168.718 398.414L168.726 398.483L168.734 398.551L168.743 398.619L168.751 398.686L168.759 398.754L168.767 398.821L168.775 398.888L168.783 398.954L168.79 399.021L168.798 399.087L168.806 399.152L168.814 399.218L168.822 399.283L168.83 399.348L168.837 399.413L168.845 399.477L168.853 399.541L168.86 399.605L168.868 399.669L168.875 399.732L168.883 399.795L168.89 399.858L168.898 399.921L168.905 399.983L168.913 400.045L168.92 400.106L168.927 400.168L168.935 400.229L168.942 400.289L168.949 400.35L168.956 400.41L168.963 400.47L168.971 400.53L168.978 400.589L168.985 400.648L168.992 400.707L168.999 400.765L169.006 400.823L169.013 400.881L169.019 400.939L169.026 400.996L169.033 401.053L169.04 401.11L169.046 401.166L169.053 401.222L169.06 401.278L169.066 401.333L169.073 401.388L169.08 401.443L169.086 401.498L169.093 401.552L169.099 401.606L169.105 401.659L169.112 401.713L169.118 401.766L169.124 401.818L169.131 401.871L169.137 401.923L169.143 401.974L169.149 402.026L169.155 402.077L169.161 402.127L169.167 402.178L169.173 402.228L169.179 402.278L169.185 402.327L169.191 402.376L169.197 402.425L169.202 402.473L169.208 402.522L169.214 402.569L169.22 402.617L169.225 402.664L169.231 402.711L169.236 402.757L169.242 402.803L169.247 402.849L169.253 402.894L169.258 402.939L169.263 402.984L169.269 403.029L169.274 403.073L169.279 403.116L169.284 403.16L169.29 403.203L169.295 403.245L169.3 403.288L169.305 403.33L169.31 403.371L169.315 403.413L169.319 403.454L169.324 403.494L169.329 403.534L169.334 403.574L169.339 403.614L169.343 403.653L169.348 403.692L169.352 403.73L169.357 403.768L169.361 403.806L169.366 403.843L169.37 403.88L169.375 403.917L169.379 403.953L169.383 403.989L169.388 404.024L169.392 404.059L169.396 404.094L169.4 404.129L169.404 404.163L169.408 404.196L169.412 404.23L169.416 404.262L169.42 404.295L169.424 404.327L169.427 404.359L169.431 404.39L169.435 404.421L169.439 404.452L169.442 404.482L169.446 404.512L169.449 404.541L169.453 404.57L169.455 404.587Z" fill="#F4DFA7" stroke="#272727" stroke-width="2"/>
<path d="M202.731 100.666C194.839 102.115 187.179 98.642 183.019 92.4014C183.852 92.3322 184.687 92.2134 185.526 92.0439C187.407 91.6643 189.192 91.034 190.833 90.2266L190.455 88.6139C181.756 88.648 173.943 82.8693 171.693 74.3711C174.413 75.019 177.299 75.144 180.212 74.6446L183.158 74.1396L180.387 73.0189C174.591 70.6744 170.069 65.5956 168.753 59.0737C168.143 56.0517 168.293 53.0384 169.065 50.2538C181.345 59.784 197.394 64.3915 213.914 61.9042L215.04 61.7347L214.557 60.7033C213.948 59.4026 213.489 57.9901 213.192 56.5211C211.096 46.1359 217.919 35.9902 228.472 33.8604C233.96 32.7527 239.39 34.0445 243.624 36.991L244.005 37.2561L244.434 37.079C248.112 35.5605 251.508 33.5525 254.534 31.1421C253.62 34.9378 251.559 38.3705 248.654 40.9859L249.489 42.4251C252.511 41.4309 255.366 40.122 258.015 38.5318C256.3 41.9099 254.109 45.0474 251.507 47.8227L251.191 48.1607L251.303 48.6102C251.509 49.432 251.699 50.2769 251.866 51.1069C257.032 76.6997 243.239 110.145 207.168 117.425C197.357 119.405 187.64 118.745 178.743 115.969C179.17 115.896 179.598 115.816 180.027 115.73C189.551 113.808 197.659 108.836 203.527 102.058L205.111 100.229L202.731 100.666Z" fill="white" stroke="#272727" stroke-width="1.7"/>
<path d="M14 379.5C59.5269 370.794 91 242.508 64 237.508C13 228.064 38.5 273.121 70 269.508C102.494 265.781 155 220.508 160.5 171.008" stroke="black" stroke-width="2" stroke-dasharray="20 20"/>
<mask id="path-4-inside-1" fill="white">
<path fill-rule="evenodd" clip-rule="evenodd" d="M361.014 424.994C360.911 423.34 359.487 422.083 357.833 422.186L220.994 430.707C219.341 430.81 218.083 432.234 218.186 433.888L218.841 444.396C218.916 445.611 219.72 446.661 220.873 447.051L289.356 470.221C290.091 470.47 290.894 470.424 291.596 470.094L359.921 437.905C361.033 437.381 361.713 436.231 361.637 435.004L361.014 424.994ZM362.457 448.183C362.326 446.068 360.102 444.752 358.185 445.655L291.954 476.857C291.252 477.188 290.449 477.234 289.714 476.985L223.622 454.623C221.602 453.94 219.534 455.523 219.666 457.652L223.568 520.317C223.671 521.97 225.095 523.227 226.749 523.124L363.587 514.604C365.241 514.501 366.498 513.077 366.395 511.423L362.457 448.183Z"/>
</mask>
<path fill-rule="evenodd" clip-rule="evenodd" d="M361.014 424.994C360.911 423.34 359.487 422.083 357.833 422.186L220.994 430.707C219.341 430.81 218.083 432.234 218.186 433.888L218.841 444.396C218.916 445.611 219.72 446.661 220.873 447.051L289.356 470.221C290.091 470.47 290.894 470.424 291.596 470.094L359.921 437.905C361.033 437.381 361.713 436.231 361.637 435.004L361.014 424.994ZM362.457 448.183C362.326 446.068 360.102 444.752 358.185 445.655L291.954 476.857C291.252 477.188 290.449 477.234 289.714 476.985L223.622 454.623C221.602 453.94 219.534 455.523 219.666 457.652L223.568 520.317C223.671 521.97 225.095 523.227 226.749 523.124L363.587 514.604C365.241 514.501 366.498 513.077 366.395 511.423L362.457 448.183Z" fill="#A7896D"/>
<path d="M366.395 511.423L368.391 511.299L366.395 511.423ZM291.954 476.857L292.807 478.667L291.954 476.857ZM289.714 476.985L289.073 478.88L289.714 476.985ZM358.185 445.655L357.332 443.846L358.185 445.655ZM362.457 448.183L360.461 448.307L362.457 448.183ZM361.637 435.004L359.641 435.129L361.637 435.004ZM289.356 470.221L288.715 472.116L289.356 470.221ZM361.014 424.994L359.017 425.118L361.014 424.994ZM221.118 432.703L357.957 424.183L357.709 420.19L220.87 428.711L221.118 432.703ZM220.837 444.271L220.183 433.763L216.19 434.012L216.845 444.52L220.837 444.271ZM220.232 448.945L288.715 472.116L289.997 468.327L221.514 445.156L220.232 448.945ZM292.448 471.903L360.774 439.714L359.069 436.096L290.744 468.284L292.448 471.903ZM359.017 425.118L359.641 435.129L363.633 434.88L363.01 424.87L359.017 425.118ZM357.332 443.846L291.102 475.048L292.807 478.667L359.037 447.465L357.332 443.846ZM290.355 475.091L224.263 452.729L222.981 456.518L289.073 478.88L290.355 475.091ZM225.564 520.192L221.662 457.527L217.67 457.776L221.572 520.441L225.564 520.192ZM363.463 512.608L226.624 521.128L226.873 525.121L363.712 516.6L363.463 512.608ZM360.461 448.307L364.399 511.548L368.391 511.299L364.454 448.059L360.461 448.307ZM363.712 516.6C366.468 516.428 368.563 514.055 368.391 511.299L364.399 511.548C364.433 512.099 364.014 512.573 363.463 512.608L363.712 516.6ZM221.572 520.441C221.744 523.197 224.117 525.292 226.873 525.121L226.624 521.128C226.073 521.163 225.599 520.744 225.564 520.192L221.572 520.441ZM224.263 452.729C220.896 451.59 217.449 454.228 217.67 457.776L221.662 457.527C221.618 456.818 222.307 456.29 222.981 456.518L224.263 452.729ZM291.102 475.048C290.868 475.158 290.6 475.174 290.355 475.091L289.073 478.88C290.298 479.294 291.636 479.218 292.807 478.667L291.102 475.048ZM359.037 447.465C359.676 447.164 360.417 447.602 360.461 448.307L364.454 448.059C364.234 444.533 360.528 442.341 357.332 443.846L359.037 447.465ZM360.774 439.714C362.627 438.841 363.76 436.925 363.633 434.88L359.641 435.129C359.666 435.538 359.44 435.921 359.069 436.096L360.774 439.714ZM288.715 472.116C289.94 472.53 291.278 472.454 292.448 471.903L290.744 468.284C290.51 468.395 290.242 468.41 289.997 468.327L288.715 472.116ZM216.845 444.52C216.971 446.546 218.309 448.295 220.232 448.945L221.514 445.156C221.13 445.026 220.862 444.677 220.837 444.271L216.845 444.52ZM357.957 424.183C358.508 424.148 358.983 424.567 359.017 425.118L363.01 424.87C362.838 422.114 360.465 420.019 357.709 420.19L357.957 424.183ZM220.87 428.711C218.114 428.882 216.019 431.256 216.19 434.012L220.183 433.763C220.148 433.212 220.567 432.737 221.118 432.703L220.87 428.711Z" fill="black" mask="url(#path-4-inside-1)"/>
</svg>
