<svg width="37" height="32" viewBox="0 0 37 32" fill="none" xmlns="http://www.w3.org/2000/svg">
<path d="M37 4.69924C35.6387 5.29783 34.1738 5.69933 32.6423 5.88182C34.2108 4.95473 35.4094 3.48745 35.979 1.73548C34.5141 2.59687 32.8864 3.21736 31.1626 3.55316C29.7716 2.10048 27.7962 1.18799 25.6137 1.18799C21.4187 1.18799 18.0228 4.53864 18.0228 8.67769C18.0228 9.26167 18.0894 9.83838 18.2226 10.3859C11.9116 10.0719 6.32573 7.0936 2.58208 2.56036C1.93102 3.66265 1.55369 4.95473 1.55369 6.32712C1.55369 8.92584 2.89283 11.218 4.92742 12.5612C3.68446 12.5247 2.5155 12.1889 1.4871 11.6268C1.4871 11.656 1.4871 11.6925 1.4871 11.7217C1.4871 15.3498 4.10618 18.3792 7.57607 19.0654C6.93982 19.2333 6.26655 19.3283 5.57849 19.3283C5.09018 19.3283 4.61668 19.2844 4.15057 19.1968C5.11978 22.1752 7.91645 24.3359 11.2383 24.3944C8.6415 26.4018 5.37132 27.599 1.81264 27.599C1.19856 27.599 0.599282 27.5625 0 27.4968C3.35893 29.621 7.34669 30.8621 11.6305 30.8621C25.5915 30.8621 33.2267 19.4523 33.2267 9.55366C33.2267 9.23244 33.2193 8.90396 33.2046 8.58275C34.6917 7.5243 35.979 6.20301 37 4.69924Z" fill="white"/>
</svg>
