<svg width="200" height="200" viewBox="0 0 200 200" fill="none" xmlns="http://www.w3.org/2000/svg">
<path d="M44.5733 116.879L40.8742 127.998H38.6592L36.267 120.09L33.8969 127.998H31.7041L28.005 116.879H30.4858L32.9666 125.251L35.3145 116.879H37.2416L39.656 125.296L42.1811 116.879H44.5733ZM52.0067 116.635C53.2176 116.635 54.2439 116.93 55.0856 117.521C55.9421 118.097 56.3629 119.035 56.3482 120.334V125.65C56.3482 126.654 55.9052 127.356 55.0192 127.754C54.1332 128.138 52.8706 128.33 51.2315 128.33C49.9172 128.33 48.8319 128.057 47.9754 127.511C47.1189 126.964 46.6907 126.049 46.6907 124.764C46.6907 123.553 47.0377 122.645 47.7318 122.04C48.4406 121.434 49.4373 121.131 50.722 121.131C52.051 121.131 53.1586 121.397 54.0446 121.929V120.866C54.0446 119.359 53.1364 118.606 51.3201 118.606C50.6704 118.606 50.0206 118.71 49.3709 118.916C48.7211 119.108 48.1822 119.382 47.7539 119.736V117.565C48.1674 117.3 48.7654 117.078 49.5481 116.901C50.3455 116.724 51.165 116.635 52.0067 116.635ZM51.4973 126.514C52.4276 126.514 53.0847 126.448 53.4687 126.315C53.8526 126.182 54.0446 125.916 54.0446 125.517V123.369C53.2915 123.044 52.4645 122.881 51.5637 122.881C50.722 122.881 50.0797 123.029 49.6367 123.324C49.2084 123.62 48.9943 124.063 48.9943 124.653C48.9943 125.274 49.238 125.739 49.7253 126.049C50.2273 126.359 50.818 126.514 51.4973 126.514ZM59.9702 127.998V112.67H62.2739V127.998H59.9702ZM65.8833 127.998V112.67H68.1869V127.998H65.8833ZM76.3814 116.613C78.1091 116.613 79.3717 117.174 80.1691 118.296C80.9813 119.404 81.38 120.962 81.3652 122.97H73.5684C73.6422 124.063 73.9597 124.897 74.5208 125.473C75.0967 126.034 75.9089 126.315 76.9573 126.315C77.6366 126.315 78.2863 126.233 78.9065 126.071C79.5268 125.894 80.0731 125.672 80.5457 125.406V127.577C79.3939 128.079 78.0722 128.33 76.5808 128.33C74.9121 128.33 73.5979 127.828 72.6381 126.824C71.693 125.805 71.2204 124.365 71.2204 122.505C71.2204 120.6 71.6708 119.145 72.5716 118.141C73.4724 117.122 74.7423 116.613 76.3814 116.613ZM76.315 118.518C75.5323 118.518 74.9195 118.725 74.4765 119.138C74.0335 119.551 73.7456 120.253 73.6127 121.242H78.9951C78.8918 120.297 78.626 119.611 78.1977 119.182C77.7695 118.739 77.1419 118.518 76.315 118.518ZM93.7594 116.879L89.1744 128.685C88.2293 131.092 86.952 132.295 85.3424 132.295C84.7665 132.295 84.2792 132.207 83.8805 132.029V130.036C84.2496 130.184 84.6188 130.257 84.988 130.257C85.5639 130.257 86.0143 130.065 86.3391 129.681C86.6788 129.298 86.9667 128.714 87.203 127.932L82.6622 116.879H85.2981L88.3327 125.185L91.3451 116.879H93.7594ZM101.589 116.635C103.243 116.635 104.498 117.13 105.355 118.119C106.211 119.108 106.639 120.511 106.639 122.328C106.639 124.513 106.122 126.064 105.089 126.979C104.07 127.88 102.77 128.33 101.19 128.33C98.0154 128.33 96.428 127.489 96.428 125.805V112.426H98.7316V117.322C99.1599 117.115 99.6398 116.953 100.171 116.834C100.718 116.701 101.19 116.635 101.589 116.635ZM101.013 126.315C102.224 126.315 103.066 125.968 103.538 125.274C104.026 124.58 104.269 123.627 104.269 122.416C104.269 121.176 104.011 120.231 103.494 119.581C102.992 118.931 102.239 118.606 101.235 118.606C100.821 118.606 100.386 118.665 99.9277 118.784C99.4847 118.887 99.086 119.042 98.7316 119.249V125.229C98.7316 125.953 99.4921 126.315 101.013 126.315ZM114.481 116.635C115.691 116.635 116.718 116.93 117.559 117.521C118.416 118.097 118.837 119.035 118.822 120.334V125.65C118.822 126.654 118.379 127.356 117.493 127.754C116.607 128.138 115.344 128.33 113.705 128.33C112.391 128.33 111.306 128.057 110.449 127.511C109.593 126.964 109.165 126.049 109.165 124.764C109.165 123.553 109.512 122.645 110.206 122.04C110.914 121.434 111.911 121.131 113.196 121.131C114.525 121.131 115.632 121.397 116.518 121.929V120.866C116.518 119.359 115.61 118.606 113.794 118.606C113.144 118.606 112.494 118.71 111.845 118.916C111.195 119.108 110.656 119.382 110.228 119.736V117.565C110.641 117.3 111.239 117.078 112.022 116.901C112.819 116.724 113.639 116.635 114.481 116.635ZM113.971 126.514C114.901 126.514 115.559 126.448 115.942 126.315C116.326 126.182 116.518 125.916 116.518 125.517V123.369C115.765 123.044 114.938 122.881 114.038 122.881C113.196 122.881 112.553 123.029 112.11 123.324C111.682 123.62 111.468 124.063 111.468 124.653C111.468 125.274 111.712 125.739 112.199 126.049C112.701 126.359 113.292 126.514 113.971 126.514ZM122.444 117.787C123.109 117.447 123.913 117.174 124.858 116.967C125.818 116.746 126.734 116.635 127.605 116.635C129.156 116.635 130.3 116.96 131.038 117.61C131.777 118.259 132.146 119.271 132.146 120.644V127.998H129.82V120.954C129.82 119.404 128.941 118.629 127.184 118.629C126.342 118.629 125.538 118.769 124.77 119.049V127.998H122.444V117.787ZM140.872 116.635C143.884 116.635 145.39 117.587 145.39 119.492V132.583H143.087V127.666C142.673 127.887 142.215 128.05 141.713 128.153C141.226 128.256 140.783 128.308 140.384 128.308C138.716 128.308 137.431 127.813 136.53 126.824C135.629 125.835 135.179 124.454 135.179 122.682C135.179 118.651 137.077 116.635 140.872 116.635ZM137.549 122.593C137.549 123.79 137.822 124.712 138.369 125.362C138.93 126.012 139.712 126.337 140.717 126.337C141.573 126.337 142.363 126.123 143.087 125.694V119.758C143.087 119.404 142.858 119.131 142.4 118.939C141.957 118.747 141.44 118.651 140.849 118.651C139.609 118.651 138.745 118.998 138.258 119.692C137.785 120.386 137.549 121.353 137.549 122.593ZM153.918 128.33C152.368 128.33 151.157 127.954 150.286 127.201C149.429 126.433 149.001 125.318 149.001 123.856V116.879H151.327V123.524C151.327 124.469 151.533 125.17 151.947 125.628C152.375 126.071 153.032 126.292 153.918 126.292C154.804 126.292 155.454 126.071 155.867 125.628C156.296 125.17 156.51 124.469 156.51 123.524V116.879H158.747V123.856C158.747 125.318 158.326 126.433 157.484 127.201C156.643 127.954 155.454 128.33 153.918 128.33ZM166.94 116.613C168.668 116.613 169.93 117.174 170.728 118.296C171.54 119.404 171.939 120.962 171.924 122.97H164.127C164.201 124.063 164.518 124.897 165.079 125.473C165.655 126.034 166.468 126.315 167.516 126.315C168.195 126.315 168.845 126.233 169.465 126.071C170.085 125.894 170.632 125.672 171.104 125.406V127.577C169.952 128.079 168.631 128.33 167.139 128.33C165.471 128.33 164.157 127.828 163.197 126.824C162.252 125.805 161.779 124.365 161.779 122.505C161.779 120.6 162.229 119.145 163.13 118.141C164.031 117.122 165.301 116.613 166.94 116.613ZM166.874 118.518C166.091 118.518 165.478 118.725 165.035 119.138C164.592 119.551 164.304 120.253 164.171 121.242H169.554C169.45 120.297 169.185 119.611 168.756 119.182C168.328 118.739 167.701 118.518 166.874 118.518Z" fill="white"/>
<path d="M101.876 82.2965L108.987 96.1524L120.541 70.4199" stroke="white" stroke-width="8.11862" stroke-linecap="round" stroke-linejoin="round"/>
<path d="M91.7778 96.1524L80.2233 70.4199" stroke="white" stroke-width="8.11862" stroke-linecap="round" stroke-linejoin="round"/>
</svg>
