<svg width="479" height="479" viewBox="0 0 479 479" fill="none" xmlns="http://www.w3.org/2000/svg">
<path d="M163.843 262.541L158.793 277.718H155.77L152.505 266.924L149.269 277.718H146.276L141.227 262.541H144.613L148 273.969L151.205 262.541H153.835L157.131 274.03L160.577 262.541H163.843ZM173.989 262.208C175.642 262.208 177.043 262.61 178.192 263.417C179.361 264.203 179.936 265.484 179.915 267.257V274.513C179.915 275.884 179.311 276.842 178.101 277.385C176.892 277.909 175.169 278.171 172.931 278.171C171.137 278.171 169.656 277.799 168.487 277.053C167.318 276.307 166.733 275.058 166.733 273.304C166.733 271.651 167.207 270.411 168.154 269.585C169.122 268.758 170.482 268.345 172.236 268.345C174.05 268.345 175.562 268.708 176.771 269.434V267.983C176.771 265.926 175.531 264.898 173.052 264.898C172.165 264.898 171.278 265.04 170.391 265.321C169.505 265.583 168.769 265.957 168.184 266.441V263.477C168.749 263.115 169.565 262.812 170.633 262.571C171.722 262.329 172.84 262.208 173.989 262.208ZM173.294 275.693C174.564 275.693 175.461 275.602 175.985 275.421C176.509 275.239 176.771 274.876 176.771 274.332V271.4C175.743 270.956 174.614 270.733 173.385 270.733C172.236 270.733 171.359 270.935 170.754 271.338C170.17 271.742 169.877 272.347 169.877 273.152C169.877 274 170.21 274.635 170.875 275.058C171.56 275.481 172.367 275.693 173.294 275.693ZM184.86 277.718V256.795H188.004V277.718H184.86ZM192.931 277.718V256.795H196.075V277.718H192.931ZM207.261 262.178C209.619 262.178 211.343 262.943 212.431 264.475C213.54 265.987 214.084 268.114 214.064 270.855H203.421C203.522 272.347 203.955 273.485 204.721 274.272C205.507 275.037 206.616 275.421 208.047 275.421C208.974 275.421 209.861 275.309 210.708 275.088C211.554 274.846 212.3 274.543 212.945 274.18V277.143C211.373 277.829 209.569 278.171 207.533 278.171C205.255 278.171 203.461 277.486 202.151 276.116C200.861 274.725 200.216 272.759 200.216 270.22C200.216 267.62 200.831 265.634 202.06 264.263C203.29 262.872 205.023 262.178 207.261 262.178ZM207.17 264.778C206.102 264.778 205.265 265.061 204.661 265.624C204.056 266.188 203.663 267.146 203.482 268.496H210.828C210.687 267.206 210.325 266.27 209.74 265.684C209.156 265.08 208.299 264.778 207.17 264.778ZM230.982 262.541L224.723 278.656C223.433 281.941 221.69 283.584 219.493 283.584C218.706 283.584 218.041 283.463 217.497 283.22V280.5C218.001 280.702 218.505 280.802 219.009 280.802C219.795 280.802 220.41 280.54 220.853 280.015C221.317 279.493 221.71 278.695 222.032 277.628L215.834 262.541H219.432L223.574 273.878L227.686 262.541H230.982ZM241.669 262.208C243.927 262.208 245.64 262.883 246.81 264.233C247.978 265.583 248.562 267.498 248.562 269.979C248.562 272.961 247.857 275.078 246.447 276.327C245.056 277.557 243.281 278.171 241.124 278.171C236.791 278.171 234.624 277.023 234.624 274.725V256.462H237.769V263.145C238.353 262.863 239.008 262.642 239.734 262.479C240.48 262.298 241.124 262.208 241.669 262.208ZM240.883 275.421C242.536 275.421 243.685 274.947 244.33 274C244.996 273.053 245.327 271.752 245.327 270.099C245.327 268.406 244.975 267.116 244.269 266.229C243.584 265.342 242.556 264.898 241.186 264.898C240.621 264.898 240.027 264.979 239.401 265.141C238.797 265.282 238.253 265.493 237.769 265.776V273.938C237.769 274.927 238.807 275.421 240.883 275.421ZM259.267 262.208C260.918 262.208 262.32 262.61 263.468 263.417C264.638 264.203 265.213 265.484 265.192 267.257V274.513C265.192 275.884 264.587 276.842 263.378 277.385C262.169 277.909 260.445 278.171 258.207 278.171C256.414 278.171 254.933 277.799 253.763 277.053C252.595 276.307 252.01 275.058 252.01 273.304C252.01 271.651 252.484 270.411 253.431 269.585C254.398 268.758 255.759 268.345 257.513 268.345C259.327 268.345 260.838 268.708 262.047 269.434V267.983C262.047 265.926 260.808 264.898 258.329 264.898C257.442 264.898 256.554 265.04 255.669 265.321C254.781 265.583 254.046 265.957 253.461 266.441V263.477C254.025 263.115 254.841 262.812 255.91 262.571C256.998 262.329 258.117 262.208 259.267 262.208ZM258.571 275.693C259.84 275.693 260.738 275.602 261.261 275.421C261.785 275.239 262.047 274.876 262.047 274.332V271.4C261.019 270.956 259.89 270.733 258.662 270.733C257.513 270.733 256.635 270.935 256.03 271.338C255.446 271.742 255.154 272.347 255.154 273.152C255.154 274 255.487 274.635 256.152 275.058C256.837 275.481 257.644 275.693 258.571 275.693ZM270.136 263.78C271.044 263.316 272.141 262.943 273.431 262.661C274.742 262.359 275.992 262.208 277.181 262.208C279.298 262.208 280.86 262.651 281.867 263.539C282.876 264.424 283.379 265.806 283.379 267.68V277.718H280.204V268.103C280.204 265.987 279.005 264.929 276.606 264.929C275.457 264.929 274.359 265.121 273.311 265.503V277.718H270.136V263.78ZM295.29 262.208C299.402 262.208 301.457 263.507 301.457 266.107V283.977H298.314V277.265C297.749 277.567 297.124 277.789 296.438 277.93C295.774 278.07 295.169 278.141 294.624 278.141C292.347 278.141 290.593 277.466 289.364 276.116C288.134 274.766 287.519 272.881 287.519 270.462C287.519 264.96 290.11 262.208 295.29 262.208ZM290.754 270.34C290.754 271.974 291.127 273.233 291.874 274.12C292.64 275.007 293.707 275.451 295.079 275.451C296.247 275.451 297.326 275.159 298.314 274.573V266.471C298.314 265.987 298.001 265.615 297.376 265.353C296.771 265.091 296.066 264.96 295.259 264.96C293.566 264.96 292.387 265.433 291.722 266.38C291.077 267.328 290.754 268.648 290.754 270.34ZM313.098 278.171C310.982 278.171 309.329 277.658 308.14 276.63C306.971 275.582 306.386 274.06 306.386 272.064V262.541H309.561V271.611C309.561 272.901 309.843 273.858 310.408 274.483C310.992 275.088 311.889 275.389 313.098 275.389C314.308 275.389 315.195 275.088 315.759 274.483C316.344 273.858 316.636 272.901 316.636 271.611V262.541H319.69V272.064C319.69 274.06 319.115 275.582 317.966 276.63C316.818 277.658 315.195 278.171 313.098 278.171ZM330.873 262.178C333.232 262.178 334.954 262.943 336.044 264.475C337.152 265.987 337.697 268.114 337.676 270.855H327.033C327.134 272.347 327.567 273.485 328.333 274.272C329.119 275.037 330.229 275.421 331.659 275.421C332.586 275.421 333.473 275.309 334.32 275.088C335.166 274.846 335.913 274.543 336.557 274.18V277.143C334.985 277.829 333.181 278.171 331.145 278.171C328.868 278.171 327.074 277.486 325.764 276.116C324.474 274.725 323.828 272.759 323.828 270.22C323.828 267.62 324.443 265.634 325.673 264.263C326.902 262.872 328.636 262.178 330.873 262.178ZM330.783 264.778C329.714 264.778 328.878 265.061 328.273 265.624C327.668 266.188 327.275 267.146 327.093 268.496H334.441C334.299 267.206 333.938 266.27 333.352 265.684C332.768 265.08 331.912 264.778 330.783 264.778Z" fill="#674232"/>
<path d="M242.061 215.336L251.768 234.249L267.539 199.124" stroke="#674232" stroke-width="11.0819" stroke-linecap="round" stroke-linejoin="round"/>
<path d="M228.277 234.249L212.505 199.124" stroke="#674232" stroke-width="11.0819" stroke-linecap="round" stroke-linejoin="round"/>
</svg>
